{
	"asset": {
		"generator": "Unity 5.6.3f1",
		"extras": {
			"exporterVersion" : "2.1.1"
		},
		"version": "2.0"
	},
	"accessors": [
		{
			"bufferView": 2,
			"byteOffset": 0,
			"componentType": 5126,
			"count": 191,
			"max": [ 0.05935001, 0.04373837, 0.05139685 ],
			"min": [ -0.05935001, -0.05846119, -0.1742032 ],
			"type": "VEC3"
		},
		{
			"bufferView": 2,
			"byteOffset": 2292,
			"componentType": 5126,
			"count": 191,
			"max": [ 0.9999965, 0.9869491, 0.9999999 ],
			"min": [ -1, -0.985628, -0.9999996 ],
			"type": "VEC3"
		},
		{
			"bufferView": 1,
			"byteOffset": 0,
			"componentType": 5126,
			"count": 191,
			"max": [ 0.5662, 0.9974 ],
			"min": [ 0.0066, 0.6365 ],
			"type": "VEC2"
		},
		{
			"bufferView": 3,
			"byteOffset": 0,
			"componentType": 5126,
			"count": 191,
			"max": [ 0.9844332, 0.9999826, 0.9277444, 1 ],
			"min": [ -0.9999979, -0.999982, -0.6550679, -1 ],
			"type": "VEC4"
		},
		{
			"bufferView": 0,
			"byteOffset": 0,
			"componentType": 5123,
			"count": 798,
			"max": [ 190 ],
			"min": [ 0 ],
			"type": "SCALAR"
		}
	],
	"buffers": [
		{
			"byteLength": 10764,
			"uri": "Unity2Skfb.bin"
		}
	],
	"bufferViews": [
		{
			"buffer": 0,
			"byteLength": 1596,
			"byteOffset": 9168,
			"target": 34963
		},
		{
			"buffer": 0,
			"byteLength": 1528,
			"byteOffset": 0,
			"byteStride": 8,
			"target": 34962
		},
		{
			"buffer": 0,
			"byteLength": 4584,
			"byteOffset": 1528,
			"byteStride": 12,
			"target": 34962
		},
		{
			"buffer": 0,
			"byteLength": 3056,
			"byteOffset": 6112,
			"byteStride": 16,
			"target": 34962
		}
	],
	"images": [
		{
			"uri": "Assets/jicheanniu/37_jiashihsianniu.jpg"
		},
		{
			"uri": "Assets/jicheanniu/37_jiashihsianniu_converted_metalRoughness.jpg"
		}
	],
	"materials": [
		{
			"pbrMetallicRoughness": {
				"baseColorTexture" : {
					"index" : 0,
					"texCoord" : 0
				},
				"baseColorFactor": [0.588, 0.588, 0.588, 1],
				"metallicRoughnessTexture" : {
					"index" : 1,
					"texCoord" : 0
				},
				"metallicFactor": 1,
				"roughnessFactor": 1
			},
			"emissiveTexture" : {
				"index" : 0,
				"texCoord" : 0
			},
			"emissiveFactor": [1, 1, 1],
			"doubleSided": false,
			"name": "Material__106"
		}
	],
	"meshes": [
		{
			"name": "mesh_A31_47304A31",
			"primitives": [
				{
					"attributes": {
						"POSITION": 0,
						"NORMAL": 1,
						"TEXCOORD_0": 2,
						"TANGENT": 3
					},
					"indices": 4,
					"material": 0,
					"mode": 4
				}
			]
		}
	],
	"nodes": [
		{
			"name": "UnityGlTF_correctionMatrix",
			"children": [
				1
			],
			"matrix": [-1, 0, -8.742278E-08, 0, 0, 1, 0, 0, 8.742278E-08, 0, -1, 0, 0, 0, 0, 1]
		},
		{
			"name": "node_A31_02_-196472",
			"children": [
				2
			],
			"matrix": [1, 0, 0, 0, 0, -1.192093E-07, 1, 0, 0, -1, -1.192093E-07, 0, 0, 2.437, -0.3052998, 1]
		},
		{
			"name": "node_A31_-196476",
			"mesh": 0,
			"translation": [ 0, 0.3052998, 2.437],
			"rotation": [1.025325E-08, -0.01602676, -0.9998716, 6.396757E-07]
		}
	],
	"samplers": [
		{
			"magFilter": 9729,
			"minFilter": 9985,
			"wrapS": 10497,
			"wrapT": 10497
		}
	],
	"scenes": [
		{
			"name":"defaultScene",
			"nodes": [
				0
			]
		}
	],
	"scene": 0,
	"textures": [
		{
			"sampler": 0,
			"source": 0
		},
		{
			"sampler": 0,
			"source": 1
		}
	]
}