{
	"asset": {
		"generator": "Unity 5.6.3f1",
		"extras": {
			"exporterVersion" : "2.1.1"
		},
		"version": "2.0"
	},
	"accessors": [
		{
			"bufferView": 2,
			"byteOffset": 0,
			"componentType": 5126,
			"count": 536,
			"max": [ 0.02545, 0.02554989, -0.04278898 ],
			"min": [ -0.02545, -0.02554989, -0.1912889 ],
			"type": "VEC3"
		},
		{
			"bufferView": 2,
			"byteOffset": 6432,
			"componentType": 5126,
			"count": 536,
			"max": [ 0.9974588, 0.9996394, 0.9946713 ],
			"min": [ -0.9993147, -0.9987902, -0.9999636 ],
			"type": "VEC3"
		},
		{
			"bufferView": 1,
			"byteOffset": 0,
			"componentType": 5126,
			"count": 536,
			"max": [ 0.9795, 0.8511 ],
			"min": [ 0.3395, 0.4219 ],
			"type": "VEC2"
		},
		{
			"bufferView": 3,
			"byteOffset": 0,
			"componentType": 5126,
			"count": 536,
			"max": [ 0.9998029, 0.9814891, 0.7442583, 1 ],
			"min": [ -0.9988758, -0.9988894, -0.7299482, -1 ],
			"type": "VEC4"
		},
		{
			"bufferView": 0,
			"byteOffset": 0,
			"componentType": 5123,
			"count": 630,
			"max": [ 535 ],
			"min": [ 0 ],
			"type": "SCALAR"
		}
	],
	"buffers": [
		{
			"byteLength": 26988,
			"uri": "Unity2Skfb.bin"
		}
	],
	"bufferViews": [
		{
			"buffer": 0,
			"byteLength": 1260,
			"byteOffset": 25728,
			"target": 34963
		},
		{
			"buffer": 0,
			"byteLength": 4288,
			"byteOffset": 0,
			"byteStride": 8,
			"target": 34962
		},
		{
			"buffer": 0,
			"byteLength": 12864,
			"byteOffset": 4288,
			"byteStride": 12,
			"target": 34962
		},
		{
			"buffer": 0,
			"byteLength": 8576,
			"byteOffset": 17152,
			"byteStride": 16,
			"target": 34962
		}
	],
	"images": [
		{
			"uri": "Assets/jicheanniu/35_jiashishishangbujian.jpg"
		},
		{
			"uri": "Assets/jicheanniu/35_jiashishishangbujian_converted_metalRoughness.jpg"
		}
	],
	"materials": [
		{
			"pbrMetallicRoughness": {
				"baseColorTexture" : {
					"index" : 0,
					"texCoord" : 0
				},
				"baseColorFactor": [0.588, 0.588, 0.588, 1],
				"metallicRoughnessTexture" : {
					"index" : 1,
					"texCoord" : 0
				},
				"metallicFactor": 1,
				"roughnessFactor": 1
			},
			"emissiveTexture" : {
				"index" : 0,
				"texCoord" : 0
			},
			"emissiveFactor": [1, 1, 1],
			"doubleSided": false,
			"name": "Material__12"
		}
	],
	"meshes": [
		{
			"name": "mesh_A34_47288A34",
			"primitives": [
				{
					"attributes": {
						"POSITION": 0,
						"NORMAL": 1,
						"TEXCOORD_0": 2,
						"TANGENT": 3
					},
					"indices": 4,
					"material": 0,
					"mode": 4
				}
			]
		}
	],
	"nodes": [
		{
			"name": "UnityGlTF_correctionMatrix",
			"children": [
				1
			],
			"matrix": [-1, 0, -8.742278E-08, 0, 0, 1, 0, 0, 8.742278E-08, 0, -1, 0, 0, 0, 0, 1]
		},
		{
			"name": "node_A34_02_-198878",
			"children": [
				2
			],
			"matrix": [1, 0, 0, 0, 0, -1.192093E-07, 1, 0, 0, -1, -1.192093E-07, 0, 0, 2.437, -0.3052998, 1]
		},
		{
			"name": "node_A34_-198882",
			"mesh": 0,
			"translation": [ 0, 0.3052998, 2.437],
			"rotation": [0, 0, -1, 6.397578E-07]
		}
	],
	"samplers": [
		{
			"magFilter": 9729,
			"minFilter": 9985,
			"wrapS": 10497,
			"wrapT": 10497
		}
	],
	"scenes": [
		{
			"name":"defaultScene",
			"nodes": [
				0
			]
		}
	],
	"scene": 0,
	"textures": [
		{
			"sampler": 0,
			"source": 0
		},
		{
			"sampler": 0,
			"source": 1
		}
	]
}