# 3ds Max Wavefront OBJ Exporter v0.97b - (c)2007 guruware
# 创建的文件:03.11.2017 16:58:39

mtllib C11.mtl

#
# object C11
#

v  0.0238 0.0755 0.0083
v  0.0236 0.0656 0.0046
v  0.0235 0.0656 -0.0027
v  0.0236 0.0766 -0.0027
v  -0.0236 0.0656 0.0044
v  -0.0234 0.0656 -0.0029
v  0.0233 0.0656 -0.0100
v  -0.0234 0.0656 -0.0103
v  -0.0236 0.0754 -0.0142
v  0.0235 0.0754 -0.0140
v  0.0238 0.0876 -0.0023
v  0.0239 0.0853 0.0056
v  0.0236 0.0853 -0.0107
v  -0.0236 0.0766 -0.0028
v  -0.0237 0.0754 0.0081
v  -0.0237 0.0876 -0.0026
v  -0.0237 0.0853 -0.0109
v  -0.0239 0.0853 0.0053
v  -0.0103 0.0121 -0.0366
v  0.0122 0.0121 -0.0364
v  0.0122 -0.0056 -0.0396
v  -0.0102 -0.0063 -0.0396
v  0.0114 0.0277 0.0177
v  0.0117 0.0304 0.0058
v  -0.0108 0.0304 0.0056
v  -0.0108 0.0277 0.0177
v  0.0113 0.0219 0.0279
v  -0.0109 0.0219 0.0278
v  0.0140 0.0123 -0.0209
v  0.0140 -0.0054 -0.0201
v  0.0140 -0.0054 -0.0257
v  0.0141 0.0121 -0.0272
v  -0.0129 -0.0062 -0.0202
v  -0.0129 0.0123 -0.0211
v  -0.0127 0.0121 -0.0303
v  -0.0127 -0.0063 -0.0317
v  0.0140 0.0126 -0.0073
v  0.0140 0.0257 -0.0184
v  0.0141 0.0285 -0.0066
v  -0.0129 -0.0061 -0.0069
v  -0.0129 0.0126 -0.0073
v  0.0140 0.0127 0.0071
v  0.0138 -0.0052 0.0072
v  0.0140 -0.0053 -0.0069
v  -0.0129 0.0285 0.0058
v  -0.0129 0.0285 -0.0068
v  -0.0129 0.0127 0.0070
v  0.0137 0.0127 0.0207
v  0.0135 -0.0052 0.0205
v  -0.0129 -0.0060 0.0071
v  -0.0129 -0.0060 0.0203
v  -0.0129 0.0127 0.0206
v  0.0137 0.0257 0.0177
v  0.0137 0.0194 0.0229
v  0.0137 0.0124 0.0265
v  -0.0129 0.0126 0.0302
v  -0.0130 0.0208 0.0243
v  -0.0129 0.0257 0.0175
v  0.0141 0.0207 -0.0243
v  0.0122 0.0217 -0.0280
v  0.0120 0.0276 -0.0186
v  -0.0129 0.0257 -0.0186
v  -0.0105 0.0276 -0.0188
v  -0.0103 0.0217 -0.0281
v  -0.0127 0.0207 -0.0245
v  0.0119 0.0304 -0.0066
v  -0.0108 0.0304 -0.0069
v  0.0140 0.0285 0.0059
v  -0.0100 0.0786 -0.0057
v  -0.0102 0.0786 0.0050
v  0.0104 0.0786 0.0052
v  0.0105 0.0786 -0.0056
v  -0.0111 0.0763 -0.0069
v  0.0116 0.0763 -0.0068
v  -0.0112 0.0763 0.0056
v  0.0114 0.0763 0.0057
v  -0.0109 0.0127 0.0363
v  0.0114 0.0127 0.0364
v  0.0137 -0.0050 0.0262
v  -0.0127 -0.0058 0.0317
v  -0.0108 -0.0056 0.0395
v  0.0116 -0.0050 0.0396
# 82 vertices

vn 0.6489 -0.0400 0.7598
vn 0.5969 -0.6627 0.4523
vn 0.7035 -0.7106 -0.0113
vn 0.9998 -0.0143 -0.0160
vn -0.6020 -0.6603 0.4490
vn -0.6986 -0.7155 -0.0056
vn 0.5899 -0.6700 -0.4508
vn -0.5916 -0.6694 -0.4493
vn -0.6373 -0.0305 -0.7700
vn 0.6347 -0.0303 -0.7722
vn 0.6566 0.7542 -0.0017
vn 0.6203 0.5512 0.5580
vn 0.6141 0.5687 -0.5473
vn -0.9999 -0.0141 -0.0083
vn -0.6487 -0.0406 0.7599
vn -0.6518 0.7584 0.0007
vn -0.6177 0.5686 -0.5432
vn -0.6271 0.5487 0.5529
vn -0.5161 0.3521 -0.7808
vn 0.5847 0.3334 -0.7395
vn 0.6003 0.1222 -0.7904
vn -0.5532 0.1298 -0.8228
vn 0.3779 0.8598 0.3434
vn 0.6198 0.6785 0.3942
vn -0.6426 0.6635 0.3832
vn -0.3688 0.8676 0.3336
vn 0.5113 0.6540 0.5576
vn -0.4713 0.6766 0.5658
vn 1.0000 -0.0025 0.0066
vn 1.0000 -0.0011 0.0041
vn 0.9975 0.0011 -0.0710
vn 0.9918 0.0503 -0.1177
vn -1.0000 0.0001 -0.0094
vn -0.9999 0.0033 -0.0135
vn -0.9669 0.1177 -0.2264
vn -0.9830 0.0195 -0.1826
vn 1.0000 -0.0029 0.0017
vn 0.9110 0.3751 -0.1713
vn 0.9001 0.4329 -0.0498
vn -1.0000 0.0000 -0.0000
vn 0.9999 -0.0040 0.0145
vn 0.9999 -0.0084 0.0147
vn 1.0000 -0.0028 0.0036
vn -0.9034 0.4255 0.0530
vn -0.8990 0.4345 -0.0552
vn 1.0000 -0.0034 0.0064
vn 1.0000 -0.0084 0.0028
vn -1.0000 -0.0025 0.0047
vn -1.0000 -0.0037 -0.0001
vn 0.9118 0.3628 0.1923
vn 0.9675 0.1845 0.1731
vn 0.9894 0.0688 0.1280
vn -0.9765 0.1029 0.1895
vn -0.9433 0.2650 0.2001
vn -0.9095 0.3823 0.1632
vn 0.9544 0.2302 -0.1902
vn 0.5184 0.6340 -0.5738
vn 0.3742 0.8581 -0.3515
vn -0.8934 0.4011 -0.2024
vn -0.3462 0.8631 -0.3677
vn -0.4409 0.6650 -0.6028
vn -0.9261 0.2784 -0.2547
vn 0.6348 0.6730 -0.3795
vn -0.6305 0.6681 -0.3952
vn 0.8939 0.4432 0.0676
vn -0.4328 0.7957 -0.4237
vn -0.4435 0.7405 0.5049
vn 0.4268 0.7396 0.5203
vn 0.4426 0.7955 -0.4139
vn -0.6778 0.2616 -0.6871
vn 0.6855 0.2665 -0.6775
vn -0.7067 0.2063 0.6767
vn 0.6979 0.2122 0.6840
vn -0.5407 0.3592 0.7607
vn 0.5701 0.3531 0.7418
vn 0.9966 0.0075 0.0821
vn -0.9892 0.0115 0.1458
vn -0.5814 0.1300 0.8032
vn 0.5935 0.1337 0.7936
# 79 vertex normals

vt 0.0412 0.6635 0.0000
vt 0.0347 0.6453 0.0000
vt 0.0219 0.6453 0.0000
vt 0.0220 0.6657 0.0000
vt 0.0021 0.7448 0.0000
vt 0.0021 0.7503 0.0000
vt 0.0286 0.7503 0.0000
vt 0.0286 0.7448 0.0000
vt 0.0286 0.6940 0.0000
vt 0.0021 0.6940 0.0000
vt 0.0021 0.7036 0.0000
vt 0.0286 0.7036 0.0000
vt 0.0090 0.6453 0.0000
vt 0.0022 0.6636 0.0000
vt 0.0021 0.6885 0.0000
vt 0.0286 0.6885 0.0000
vt 0.0225 0.6860 0.0000
vt 0.0363 0.6818 0.0000
vt 0.0079 0.6818 0.0000
vt 0.0021 0.7197 0.0000
vt 0.0286 0.7197 0.0000
vt 0.0286 0.7130 0.0000
vt 0.0021 0.7130 0.0000
vt 0.0286 0.7353 0.0000
vt 0.0286 0.7260 0.0000
vt 0.0021 0.7260 0.0000
vt 0.0021 0.7353 0.0000
vt 0.0025 0.9728 0.0000
vt 0.0232 0.9728 0.0000
vt 0.0232 0.9977 0.0000
vt 0.0025 0.9977 0.0000
vt 0.0232 0.8072 0.0000
vt 0.0232 0.8215 0.0000
vt 0.0025 0.8215 0.0000
vt 0.0025 0.8071 0.0000
vt 0.0232 0.7931 0.0000
vt 0.0025 0.7930 0.0000
vt 0.0620 0.7946 0.0000
vt 0.0637 0.7558 0.0000
vt 0.0530 0.7558 0.0000
vt 0.0501 0.7946 0.0000
vt 0.0439 0.7946 0.0000
vt 0.0414 0.7558 0.0000
vt 0.0886 0.7946 0.0000
vt 0.0668 0.8229 0.0000
vt 0.0898 0.8291 0.0000
vt 0.0896 0.7558 0.0000
vt 0.0887 0.7946 0.0000
vt 0.1164 0.7946 0.0000
vt 0.1167 0.7558 0.0000
vt 0.1141 0.8291 0.0000
vt 0.1429 0.7946 0.0000
vt 0.1425 0.7558 0.0000
vt 0.1422 0.7558 0.0000
vt 0.1426 0.7946 0.0000
vt 0.1371 0.8230 0.0000
vt 0.1471 0.8098 0.0000
vt 0.1543 0.7946 0.0000
vt 0.1614 0.7946 0.0000
vt 0.1498 0.8126 0.0000
vt 0.1369 0.8230 0.0000
vt 0.0554 0.8123 0.0000
vt 0.0484 0.8144 0.0000
vt 0.0664 0.8270 0.0000
vt 0.0897 0.8332 0.0000
vt 0.1138 0.8332 0.0000
vt 0.1372 0.8274 0.0000
vt 0.1371 0.8274 0.0000
vt 0.1567 0.8149 0.0000
vt 0.0032 0.8812 0.0000
vt 0.0031 0.8687 0.0000
vt 0.0221 0.8687 0.0000
vt 0.0221 0.8812 0.0000
vt 0.0232 0.9431 0.0000
vt 0.0025 0.9431 0.0000
vt 0.0025 0.9287 0.0000
vt 0.0232 0.9286 0.0000
vt 0.0025 0.8846 0.0000
vt 0.0232 0.8846 0.0000
vt 0.1138 0.9034 0.0000
vt 0.0897 0.9034 0.0000
vt 0.0232 0.8656 0.0000
vt 0.0025 0.8656 0.0000
vt 0.0025 0.7772 0.0000
vt 0.0232 0.7772 0.0000
vt 0.1731 0.7946 0.0000
vt 0.0025 0.9565 0.0000
vt 0.0232 0.9565 0.0000
vt 0.0320 0.7946 0.0000
vt 0.0260 0.7558 0.0000
vt 0.0918 0.9082 0.0000
vt 0.1123 0.9082 0.0000
vt 0.1536 0.7558 0.0000
vt 0.1643 0.7558 0.0000
vt 0.0025 0.7556 0.0000
vt 0.0232 0.7556 0.0000
vt 0.1794 0.7558 0.0000
# 97 texture coords

g C11
usemtl Material__1011
s 32
f 1/1/1 2/2/2 3/3/3 4/4/4 
f 5/5/5 6/6/6 3/7/3 2/8/2 
f 7/9/7 8/10/8 9/11/9 10/12/10 
f 4/4/4 3/3/3 7/13/7 10/14/10 
f 6/15/6 8/10/8 7/9/7 3/16/3 
f 4/4/4 11/17/11 12/18/12 1/1/1 
f 10/14/10 13/19/13 11/17/11 4/4/4 
f 14/4/14 6/3/6 5/2/5 15/1/15 
f 16/20/16 11/21/11 13/22/13 17/23/17 
f 1/24/1 12/25/12 18/26/18 15/27/15 
f 8/13/8 6/3/6 14/4/14 9/14/9 
f 16/20/16 18/26/18 12/25/12 11/21/11 
f 15/1/15 18/18/18 16/17/16 14/4/14 
f 17/23/17 13/22/13 10/12/10 9/11/9 
f 5/5/5 2/8/2 1/24/1 15/27/15 
f 14/4/14 16/17/16 17/19/17 9/14/9 
f 19/28/19 20/29/20 21/30/21 22/31/22 
f 23/32/23 24/33/24 25/34/25 26/35/26 
f 27/36/27 23/32/23 26/35/26 28/37/28 
f 29/38/29 30/39/30 31/40/31 32/41/32 
f 33/39/33 34/38/34 35/42/35 36/43/36 
f 37/44/37 29/38/29 38/45/38 39/46/39 
f 33/39/33 40/47/40 41/48/40 34/38/34 
f 42/49/41 43/50/42 44/47/43 37/44/37 
f 45/51/44 46/46/45 41/48/40 47/49/40 
f 42/49/41 48/52/46 49/53/47 43/50/42 
f 47/49/40 50/50/40 51/54/48 52/55/49 
f 53/56/50 54/57/51 55/58/52 48/52/46 
f 56/59/53 57/60/54 58/61/55 52/55/49 
f 59/62/56 60/63/57 61/64/58 38/45/38 
f 62/45/59 63/64/60 64/63/61 65/62/62 
f 66/65/63 39/46/39 38/45/38 61/64/58 
f 67/65/64 63/64/60 62/45/59 46/46/45 
f 24/66/24 68/51/65 39/46/39 66/65/63 
f 46/46/45 45/51/44 25/66/25 67/65/64 
f 68/51/65 24/66/24 23/67/23 53/56/50 
f 45/51/44 58/61/55 26/68/26 25/66/25 
f 23/67/23 27/69/27 54/57/51 53/56/50 
f 57/60/54 28/69/28 26/68/26 58/61/55 
f 69/70/66 70/71/67 71/72/68 72/73/69 
f 61/74/58 63/75/60 67/76/64 66/77/63 
f 67/76/64 73/78/70 74/79/71 66/77/63 
f 67/65/64 25/66/25 75/80/72 73/81/70 
f 76/82/73 75/83/72 25/34/25 24/33/24 
f 74/81/71 76/80/73 24/66/24 66/65/63 
f 27/36/27 28/37/28 77/84/74 78/85/75 
f 27/69/27 78/86/75 55/58/52 54/57/51 
f 77/86/74 28/69/28 57/60/54 56/59/53 
f 64/87/61 63/75/60 61/74/58 60/88/57 
f 20/89/20 32/41/32 31/40/31 21/90/21 
f 65/62/62 64/63/61 19/89/19 35/42/35 
f 74/79/71 73/78/70 69/70/66 72/73/69 
f 69/91/66 73/81/70 75/80/72 70/92/67 
f 75/83/72 76/82/73 71/72/68 70/71/67 
f 71/92/68 76/80/73 74/81/71 72/91/69 
f 60/88/57 20/29/20 19/28/19 64/87/61 
f 38/45/38 29/38/29 32/41/32 59/62/56 
f 62/45/59 65/62/62 35/42/35 34/38/34 
f 30/39/30 29/38/29 37/44/37 44/47/43 
f 62/45/59 34/38/34 41/48/40 46/46/45 
f 37/44/37 39/46/39 68/51/65 42/49/41 
f 47/49/40 41/48/40 40/47/40 50/50/40 
f 53/56/50 48/52/46 42/49/41 68/51/65 
f 58/61/55 45/51/44 47/49/40 52/55/49 
f 79/93/76 49/53/47 48/52/46 55/58/52 
f 51/54/48 80/94/77 56/59/53 52/55/49 
f 78/85/75 77/84/74 81/95/78 82/96/79 
f 79/93/76 55/58/52 78/86/75 82/97/79 
f 77/86/74 56/59/53 80/94/77 81/97/78 
f 20/89/20 60/63/57 59/62/56 32/41/32 
f 19/89/19 22/90/22 36/43/36 35/42/35 
# 71 polygons

