# 3ds Max Wavefront OBJ Exporter v0.97b - (c)2007 guruware
# 创建的文件:03.11.2017 16:06:17

mtllib C_sudumiaobiao.mtl

#
# object C_sudumiaobiao
#

v  0.0175 0.0054 -0.0011
v  -0.0712 -0.0367 0.0021
v  -0.0720 -0.0355 0.0020
v  0.0148 0.0109 -0.0018
v  0.0274 0.0066 -0.0014
v  0.0236 0.0167 -0.0026
# 6 vertices

vn 0.5047 0.6327 -0.5874
vn 0.4905 0.6338 -0.5981
vn 0.5041 0.6327 -0.5878
vn 0.5161 0.6316 -0.5785
# 4 vertex normals

vt 0.5410 0.7463 0.0000
vt 0.4284 0.7441 0.0000
vt 0.4294 0.7428 0.0000
vt 0.5426 0.7364 0.0000
vt 0.5553 0.7466 0.0000
vt 0.5507 0.7359 0.0000
# 6 texture coords

g C_sudumiaobiao
usemtl Material__1011
s 32
f 1/1/1 2/2/2 3/3/2 4/4/3 
f 5/5/4 1/1/1 4/4/3 6/6/4 
# 2 polygons

