{
	"asset": {
		"generator": "Unity 5.6.3f1",
		"extras": {
			"exporterVersion" : "2.1.1"
		},
		"version": "2.0"
	},
	"accessors": [
		{
			"bufferView": 2,
			"byteOffset": 0,
			"componentType": 5126,
			"count": 39,
			"max": [ 0.03748992, 0.01518917, -0.01270032 ],
			"min": [ -0.03748891, -0.01142883, -0.03275371 ],
			"type": "VEC3"
		},
		{
			"bufferView": 2,
			"byteOffset": 468,
			"componentType": 5126,
			"count": 39,
			"max": [ 0.9994442, 0.9999061, 0.9999691 ],
			"min": [ -0.9985161, -0.9999317, -0.02248606 ],
			"type": "VEC3"
		},
		{
			"bufferView": 1,
			"byteOffset": 0,
			"componentType": 5126,
			"count": 39,
			"max": [ 0.8372, 0.5061 ],
			"min": [ 0.706, 0.4476 ],
			"type": "VEC2"
		},
		{
			"bufferView": 3,
			"byteOffset": 0,
			"componentType": 5126,
			"count": 39,
			"max": [ 0.9999368, 0.9985214, 0.6308782, -1 ],
			"min": [ -0.9997912, -0.9996254, -0.6389729, -1 ],
			"type": "VEC4"
		},
		{
			"bufferView": 0,
			"byteOffset": 0,
			"componentType": 5123,
			"count": 108,
			"max": [ 38 ],
			"min": [ 0 ],
			"type": "SCALAR"
		},
		{
			"bufferView": 2,
			"byteOffset": 936,
			"componentType": 5126,
			"count": 117,
			"max": [ 0.00632, 0.02271271, 0.04704022 ],
			"min": [ -0.01206231, -0.02271175, -0.04704046 ],
			"type": "VEC3"
		},
		{
			"bufferView": 2,
			"byteOffset": 2340,
			"componentType": 5126,
			"count": 117,
			"max": [ 0.9999958, 0.8344149, 0.9999995 ],
			"min": [ -0.9999958, -0.8418474, -0.8056057 ],
			"type": "VEC3"
		},
		{
			"bufferView": 1,
			"byteOffset": 312,
			"componentType": 5126,
			"count": 117,
			"max": [ 0.7115578, 0.4663413 ],
			"min": [ 0.6328486, 0.2929007 ],
			"type": "VEC2"
		},
		{
			"bufferView": 3,
			"byteOffset": 624,
			"componentType": 5126,
			"count": 117,
			"max": [ 1, 1, 0.4095721, 1 ],
			"min": [ -0.8420793, 0, -0.3910372, -1 ],
			"type": "VEC4"
		},
		{
			"bufferView": 0,
			"byteOffset": 216,
			"componentType": 5123,
			"count": 408,
			"max": [ 116 ],
			"min": [ 0 ],
			"type": "SCALAR"
		}
	],
	"buffers": [
		{
			"byteLength": 8520,
			"uri": "Unity2Skfb.bin"
		}
	],
	"bufferViews": [
		{
			"buffer": 0,
			"byteLength": 1032,
			"byteOffset": 7488,
			"target": 34963
		},
		{
			"buffer": 0,
			"byteLength": 1248,
			"byteOffset": 0,
			"byteStride": 8,
			"target": 34962
		},
		{
			"buffer": 0,
			"byteLength": 3744,
			"byteOffset": 1248,
			"byteStride": 12,
			"target": 34962
		},
		{
			"buffer": 0,
			"byteLength": 2496,
			"byteOffset": 4992,
			"byteStride": 16,
			"target": 34962
		}
	],
	"images": [
		{
			"uri": "Assets/jicheanniu/40_dianhua.jpg"
		},
		{
			"uri": "Assets/jicheanniu/40_dianhua_converted_metalRoughness.jpg"
		},
		{
			"uri": "Assets/jicheanniu/29_jicheyipingxinhao.jpg"
		},
		{
			"uri": "Assets/jicheanniu/29_jicheyipingxinhao_converted_metalRoughness.jpg"
		}
	],
	"materials": [
		{
			"pbrMetallicRoughness": {
				"baseColorTexture" : {
					"index" : 0,
					"texCoord" : 0
				},
				"baseColorFactor": [0.588, 0.588, 0.588, 1],
				"metallicRoughnessTexture" : {
					"index" : 1,
					"texCoord" : 0
				},
				"metallicFactor": 1,
				"roughnessFactor": 1
			},
			"emissiveTexture" : {
				"index" : 0,
				"texCoord" : 0
			},
			"emissiveFactor": [1, 1, 1],
			"doubleSided": false,
			"name": "Material__70"
		},
		{
			"pbrMetallicRoughness": {
				"baseColorTexture" : {
					"index" : 2,
					"texCoord" : 0
				},
				"baseColorFactor": [0.588, 0.588, 0.588, 1],
				"metallicRoughnessTexture" : {
					"index" : 3,
					"texCoord" : 0
				},
				"metallicFactor": 1,
				"roughnessFactor": 1
			},
			"emissiveTexture" : {
				"index" : 2,
				"texCoord" : 0
			},
			"emissiveFactor": [1, 1, 1],
			"doubleSided": false,
			"name": "Material__274"
		}
	],
	"meshes": [
		{
			"name": "mesh_A13_17610A13_01",
			"primitives": [
				{
					"attributes": {
						"POSITION": 0,
						"NORMAL": 1,
						"TEXCOORD_0": 2,
						"TANGENT": 3
					},
					"indices": 4,
					"material": 0,
					"mode": 4
				}
			]
		},
		{
			"name": "mesh_A13_17612A13_02",
			"primitives": [
				{
					"attributes": {
						"POSITION": 5,
						"NORMAL": 6,
						"TEXCOORD_0": 7,
						"TANGENT": 8
					},
					"indices": 9,
					"material": 1,
					"mode": 4
				}
			]
		}
	],
	"nodes": [
		{
			"name": "UnityGlTF_correctionMatrix",
			"children": [
				1
			],
			"matrix": [-1, 0, -8.742278E-08, 0, 0, 1, 0, 0, 8.742278E-08, 0, -1, 0, 0, 0, 0, 1]
		},
		{
			"name": "node_A13_-2196",
			"children": [
				2,
				3
			],
			"matrix": [1, 0, 0, 0, 0, 1, 0, 0, 0, 0, 1, 0, 0, 0, 0, 1]
		},
		{
			"name": "node_A13_01_-2204",
			"mesh": 0,
			"translation": [ -0.0006752014, 0.02271008, 0.001713753],
			"scale": [ -0.3530451, -1, -1],
			"rotation": [-0.6920575, 0.1451081, -0.1451081, -0.6920576]
		},
		{
			"name": "node_A13_02_-2206",
			"mesh": 1,
			"translation": [ -0.0006752014, 0.02271008, 0.001713753],
			"scale": [ -0.3530451, -1, -1],
			"rotation": [-0.6920575, 0.1451081, -0.1451081, -0.6920576]
		}
	],
	"samplers": [
		{
			"magFilter": 9729,
			"minFilter": 9985,
			"wrapS": 10497,
			"wrapT": 10497
		}
	],
	"scenes": [
		{
			"name":"defaultScene",
			"nodes": [
				0
			]
		}
	],
	"scene": 0,
	"textures": [
		{
			"sampler": 0,
			"source": 0
		},
		{
			"sampler": 0,
			"source": 1
		},
		{
			"sampler": 0,
			"source": 2
		},
		{
			"sampler": 0,
			"source": 3
		}
	]
}