# 3ds Max Wavefront OBJ Exporter v0.97b - (c)2007 guruware
# 创建的文件:03.11.2017 16:14:58

mtllib B10.mtl

#
# object B10
#

v  -0.0354 0.0144 0.0047
v  0.0089 0.0142 0.0044
v  0.0089 0.0144 -0.0053
v  -0.0352 0.0146 -0.0051
v  -0.0354 -0.0009 0.0041
v  -0.0201 -0.0010 0.0040
v  0.0147 -0.0008 -0.0053
v  -0.0201 -0.0007 -0.0057
v  -0.0353 -0.0006 -0.0055
v  0.0146 -0.0011 0.0043
v  -0.0139 -0.0010 0.0041
v  -0.0102 -0.0012 0.0104
v  -0.0002 0.0003 0.0005
v  -0.0039 -0.0013 0.0142
v  0.0034 -0.0013 0.0142
v  0.0098 -0.0012 0.0105
v  0.0134 -0.0010 0.0042
v  0.0135 -0.0008 -0.0032
v  0.0099 -0.0006 -0.0094
v  0.0035 -0.0004 -0.0132
v  -0.0038 -0.0004 -0.0133
v  -0.0102 -0.0005 -0.0096
v  -0.0138 -0.0007 -0.0033
v  -0.0232 -0.0267 0.0063
v  -0.0171 -0.0271 0.0170
v  -0.0171 -0.0057 0.0164
v  -0.0232 -0.0054 0.0057
v  -0.0066 -0.0274 0.0232
v  -0.0066 -0.0059 0.0225
v  0.0057 -0.0059 0.0225
v  0.0038 -0.0036 0.0153
v  -0.0045 -0.0037 0.0154
v  0.0111 -0.0036 0.0112
v  0.0164 -0.0058 0.0164
v  0.0225 -0.0055 0.0059
v  0.0152 -0.0034 0.0041
v  0.0226 -0.0051 -0.0064
v  0.0152 -0.0032 -0.0043
v  0.0165 -0.0048 -0.0169
v  0.0111 -0.0029 -0.0114
v  0.0168 -0.0263 -0.0166
v  0.0060 -0.0260 -0.0229
v  0.0059 -0.0046 -0.0231
v  -0.0044 -0.0028 -0.0157
v  0.0039 -0.0028 -0.0156
v  -0.0064 -0.0045 -0.0232
v  -0.0170 -0.0047 -0.0171
v  -0.0116 -0.0028 -0.0115
v  -0.0231 -0.0049 -0.0066
v  -0.0157 -0.0030 -0.0044
v  -0.0232 -0.0265 -0.0061
v  -0.0117 -0.0035 0.0112
v  -0.0158 -0.0033 0.0039
v  0.0058 -0.0274 0.0232
v  0.0166 -0.0273 0.0170
v  0.0228 -0.0271 0.0064
v  0.0229 -0.0266 -0.0059
v  -0.0063 -0.0259 -0.0229
v  -0.0170 -0.0262 -0.0167
# 59 vertices

vn -0.5760 0.5610 0.5945
vn 0.4575 0.6468 0.6102
vn 0.4580 0.6670 -0.5877
vn -0.5746 0.5956 -0.5613
vn -0.5805 -0.5937 0.5572
vn 0.0000 -0.4775 0.8786
vn 0.7550 0.2825 -0.5918
vn -0.0078 -0.4198 -0.9076
vn -0.5807 -0.5548 -0.5958
vn 0.7295 0.2710 0.6280
vn -0.5061 0.8433 0.1809
vn -0.3875 0.8152 0.4304
vn 0.0034 0.9995 0.0312
vn -0.1453 0.7897 0.5960
vn 0.1549 0.7861 0.5984
vn 0.3965 0.8044 0.4424
vn 0.5230 0.8327 0.1816
vn 0.5068 0.8570 -0.0930
vn 0.3571 0.8826 -0.3057
vn 0.1345 0.8955 -0.4242
vn -0.1144 0.8978 -0.4253
vn -0.3356 0.8928 -0.3004
vn -0.4765 0.8748 -0.0880
vn -0.9646 0.0096 0.2634
vn -0.7051 0.0222 0.7087
vn -0.5808 0.5666 0.5844
vn -0.7958 0.5639 0.2209
vn -0.2575 0.0312 0.9658
vn -0.2128 0.5637 0.7981
vn 0.2116 0.5647 0.7977
vn 0.1530 0.7987 0.5820
vn -0.1496 0.8079 0.5700
vn 0.3998 0.8186 0.4124
vn 0.5775 0.5626 0.5917
vn 0.7928 0.5655 0.2274
vn 0.5181 0.8414 0.1533
vn 0.7961 0.5711 -0.2000
vn 0.4846 0.8677 -0.1109
vn 0.5876 0.5737 -0.5706
vn 0.3387 0.8868 -0.3144
vn 0.7148 -0.0016 -0.6993
vn 0.2670 -0.0101 -0.9636
vn 0.2206 0.5735 -0.7890
vn -0.1125 0.9012 -0.4186
vn 0.1248 0.8976 -0.4227
vn -0.2115 0.5764 -0.7893
vn -0.5827 0.5709 -0.5784
vn -0.3226 0.8948 -0.3087
vn -0.7957 0.5692 -0.2068
vn -0.4647 0.8787 -0.1094
vn -0.9664 -0.0026 -0.2569
vn -0.3899 0.8292 0.4006
vn -0.4952 0.8563 0.1467
vn 0.2574 0.0328 0.9657
vn 0.7001 0.0286 0.7135
vn 0.9616 0.0202 0.2737
vn 0.9690 0.0090 -0.2468
vn -0.2593 -0.0145 -0.9657
vn -0.7084 -0.0117 -0.7057
# 59 vertex normals

vt 0.0754 0.3034 0.0000
vt 0.0754 0.3953 0.0000
vt 0.0984 0.3953 0.0000
vt 0.0984 0.3035 0.0000
vt 0.0720 0.2107 0.0000
vt 0.0029 0.2107 0.0000
vt 0.0029 0.2984 0.0000
vt 0.0720 0.3763 0.0000
vt 0.0029 0.4499 0.0000
vt 0.0984 0.2583 0.0000
vt 0.0754 0.2583 0.0000
vt 0.0984 0.2106 0.0000
vt 0.0754 0.2106 0.0000
vt 0.0984 0.4558 0.0000
vt 0.0754 0.4558 0.0000
vt 0.0492 0.4526 0.0000
vt 0.0518 0.4572 0.0000
vt 0.0419 0.4598 0.0000
vt 0.0519 0.4625 0.0000
vt 0.0492 0.4671 0.0000
vt 0.0446 0.4697 0.0000
vt 0.0394 0.4698 0.0000
vt 0.0347 0.4671 0.0000
vt 0.0321 0.4626 0.0000
vt 0.0320 0.4573 0.0000
vt 0.0346 0.4526 0.0000
vt 0.0393 0.4499 0.0000
vt 0.0446 0.4500 0.0000
vt 0.0645 0.4367 0.0000
vt 0.0730 0.4512 0.0000
vt 0.0577 0.4551 0.0000
vt 0.0532 0.4476 0.0000
vt 0.0732 0.4679 0.0000
vt 0.0579 0.4638 0.0000
vt 0.0535 0.4714 0.0000
vt 0.0500 0.4679 0.0000
vt 0.0531 0.4626 0.0000
vt 0.0447 0.4710 0.0000
vt 0.0458 0.4758 0.0000
vt 0.0371 0.4757 0.0000
vt 0.0386 0.4710 0.0000
vt 0.0297 0.4713 0.0000
vt 0.0334 0.4679 0.0000
vt 0.0256 0.4638 0.0000
vt 0.0304 0.4627 0.0000
vt 0.0104 0.4683 0.0000
vt 0.0104 0.4514 0.0000
vt 0.0256 0.4553 0.0000
vt 0.0334 0.4515 0.0000
vt 0.0304 0.4567 0.0000
vt 0.0298 0.4480 0.0000
vt 0.0371 0.4436 0.0000
vt 0.0386 0.4484 0.0000
vt 0.0456 0.4435 0.0000
vt 0.0446 0.4484 0.0000
vt 0.0499 0.4283 0.0000
vt 0.0530 0.4565 0.0000
vt 0.0499 0.4512 0.0000
vt 0.0648 0.4825 0.0000
vt 0.0502 0.4910 0.0000
vt 0.0334 0.4911 0.0000
vt 0.0189 0.4827 0.0000
vt 0.0188 0.4369 0.0000
vt 0.0331 0.4284 0.0000
# 64 texture coords

g B10
usemtl Material__1011
s 32
f 1/1/1 2/2/2 3/3/3 4/4/4 
f 1/5/1 5/6/5 6/7/6 2/8/2 
f 7/9/7 8/7/8 3/8/3 
f 4/4/4 9/10/9 5/11/5 1/1/1 
f 6/7/6 10/9/10 2/8/2 
f 4/5/4 3/8/3 8/7/8 9/6/9 
f 9/10/9 8/12/8 6/13/6 5/11/5 
f 7/14/7 3/3/3 2/2/2 10/15/10 
f 11/16/11 12/17/12 13/18/13 
f 12/17/12 14/19/14 13/18/13 
f 14/19/14 15/20/15 13/18/13 
f 15/20/15 16/21/16 13/18/13 
f 16/21/16 17/22/17 13/18/13 
f 17/22/17 18/23/18 13/18/13 
f 18/23/18 19/24/19 13/18/13 
f 19/24/19 20/25/20 13/18/13 
f 20/25/20 21/26/21 13/18/13 
f 21/26/21 22/27/22 13/18/13 
f 22/27/22 23/28/23 13/18/13 
f 23/28/23 11/16/11 13/18/13 
f 24/29/24 25/30/25 26/31/26 27/32/27 
f 25/30/25 28/33/28 29/34/29 26/31/26 
f 30/35/30 31/36/31 32/37/32 29/34/29 
f 33/38/33 31/36/31 30/35/30 34/39/34 
f 35/40/35 36/41/36 33/38/33 34/39/34 
f 37/42/37 38/43/38 36/41/36 35/40/35 
f 39/44/39 40/45/40 38/43/38 37/42/37 
f 39/44/39 41/46/41 42/47/42 43/48/43 
f 44/49/44 45/50/45 43/48/43 46/51/46 
f 47/52/47 48/53/48 44/49/44 46/51/46 
f 49/54/49 50/55/50 48/53/48 47/52/47 
f 51/56/51 24/29/24 27/32/27 49/54/49 
f 26/31/26 52/57/52 53/58/53 27/32/27 
f 32/37/32 52/57/52 26/31/26 29/34/29 
f 54/59/54 30/35/30 29/34/29 28/33/28 
f 30/35/30 54/59/54 55/60/55 34/39/34 
f 34/39/34 55/60/55 56/61/56 35/40/35 
f 35/40/35 56/61/56 57/62/57 37/42/37 
f 37/42/37 57/62/57 41/46/41 39/44/39 
f 43/48/43 45/50/45 40/45/40 39/44/39 
f 43/48/43 42/47/42 58/63/58 46/51/46 
f 58/63/58 59/64/59 47/52/47 46/51/46 
f 59/64/59 51/56/51 49/54/49 47/52/47 
f 27/32/27 53/58/53 50/55/50 49/54/49 
f 12/17/12 11/16/11 53/58/53 52/57/52 
f 14/19/14 12/17/12 52/57/52 32/37/32 
f 31/36/31 15/20/15 14/19/14 32/37/32 
f 31/36/31 33/38/33 16/21/16 15/20/15 
f 36/41/36 17/22/17 16/21/16 33/38/33 
f 38/43/38 18/23/18 17/22/17 36/41/36 
f 40/45/40 19/24/19 18/23/18 38/43/38 
f 20/25/20 19/24/19 40/45/40 45/50/45 
f 45/50/45 44/49/44 21/26/21 20/25/20 
f 22/27/22 21/26/21 44/49/44 48/53/48 
f 48/53/48 50/55/50 23/28/23 22/27/22 
f 53/58/53 11/16/11 23/28/23 50/55/50 
# 42 polygons - 14 triangles

