{
	"asset": {
		"generator": "Unity 5.6.3f1",
		"extras": {
			"exporterVersion" : "2.1.1"
		},
		"version": "2.0"
	},
	"accessors": [
		{
			"bufferView": 2,
			"byteOffset": 0,
			"componentType": 5126,
			"count": 11,
			"max": [ 0.03675884, -0.0007981443, 0.03862449 ],
			"min": [ 0.002602682, -0.002157814, 0.004889081 ],
			"type": "VEC3"
		},
		{
			"bufferView": 2,
			"byteOffset": 132,
			"componentType": 5126,
			"count": 11,
			"max": [ -0.02110722, 0.9960107, 0.1155079 ],
			"min": [ -0.1281582, 0.9912641, 0.03115996 ],
			"type": "VEC3"
		},
		{
			"bufferView": 1,
			"byteOffset": 0,
			"componentType": 5126,
			"count": 11,
			"max": [ 0.3296, 0.8018 ],
			"min": [ 0.3011, 0.6039 ],
			"type": "VEC2"
		},
		{
			"bufferView": 3,
			"byteOffset": 0,
			"componentType": 5126,
			"count": 11,
			"max": [ 0.7011999, 0.1125185, -0.7055372, -1 ],
			"min": [ 0.6888062, 0.0872179, -0.7186418, -1 ],
			"type": "VEC4"
		},
		{
			"bufferView": 0,
			"byteOffset": 0,
			"componentType": 5123,
			"count": 27,
			"max": [ 10 ],
			"min": [ 0 ],
			"type": "SCALAR"
		}
	],
	"buffers": [
		{
			"byteLength": 582,
			"uri": "Unity2Skfb.bin"
		}
	],
	"bufferViews": [
		{
			"buffer": 0,
			"byteLength": 54,
			"byteOffset": 528,
			"target": 34963
		},
		{
			"buffer": 0,
			"byteLength": 88,
			"byteOffset": 0,
			"byteStride": 8,
			"target": 34962
		},
		{
			"buffer": 0,
			"byteLength": 264,
			"byteOffset": 88,
			"byteStride": 12,
			"target": 34962
		},
		{
			"buffer": 0,
			"byteLength": 176,
			"byteOffset": 352,
			"byteStride": 16,
			"target": 34962
		}
	],
	"images": [
		{
			"uri": "Assets/jicheanniu/37_jiashihsianniu.jpg"
		},
		{
			"uri": "Assets/jicheanniu/37_jiashihsianniu_converted_metalRoughness.jpg"
		}
	],
	"materials": [
		{
			"pbrMetallicRoughness": {
				"baseColorTexture" : {
					"index" : 0,
					"texCoord" : 0
				},
				"baseColorFactor": [0.588, 0.588, 0.588, 1],
				"metallicRoughnessTexture" : {
					"index" : 1,
					"texCoord" : 0
				},
				"metallicFactor": 1,
				"roughnessFactor": 1
			},
			"emissiveTexture" : {
				"index" : 0,
				"texCoord" : 0
			},
			"emissiveFactor": [1, 1, 1],
			"doubleSided": false,
			"name": "Material__106"
		}
	],
	"meshes": [
		{
			"name": "mesh_A24_47280A24",
			"primitives": [
				{
					"attributes": {
						"POSITION": 0,
						"NORMAL": 1,
						"TEXCOORD_0": 2,
						"TANGENT": 3
					},
					"indices": 4,
					"material": 0,
					"mode": 4
				}
			]
		}
	],
	"nodes": [
		{
			"name": "UnityGlTF_correctionMatrix",
			"children": [
				2
			],
			"matrix": [-1, 0, -8.742278E-08, 0, 0, 1, 0, 0, 8.742278E-08, 0, -1, 0, 0, 0, 0, 1]
		},
		{
			"name": "node_A24_-195222",
			"mesh": 0,
			"translation": [ -0.004850686, 8.854254, 2.3858],
			"rotation": [-0.01036299, -0.1767066, -0.9777074, -0.1129411]
		},
		{
			"name": "node_A24_02_-195218",
			"children": [
				1
			],
			"matrix": [1, 0, 0, 0, 0, -1.192093E-07, 1, 0, 0, -1, -1.192093E-07, 0, 0.004850686, 2.3858, -8.854254, 1]
		}
	],
	"samplers": [
		{
			"magFilter": 9729,
			"minFilter": 9985,
			"wrapS": 10497,
			"wrapT": 10497
		}
	],
	"scenes": [
		{
			"name":"defaultScene",
			"nodes": [
				0
			]
		}
	],
	"scene": 0,
	"textures": [
		{
			"sampler": 0,
			"source": 0
		},
		{
			"sampler": 0,
			"source": 1
		}
	]
}