# 3ds Max Wavefront OBJ Exporter v0.97b - (c)2007 guruware
# 创建的文件:16.08.2017 19:15:52

mtllib ceshi.mtl

#
# object Rectangle001
#

v  3.626385 6.371240 5.986733
v  -1.185962 6.371240 5.986733
v  -1.185962 4.003638 5.986733
v  3.626385 4.003638 5.986733
v  -1.185962 4.003638 0.000000
v  3.626385 4.003638 0.000000
v  3.626385 6.371240 0.000000
v  -1.185962 6.371240 0.000000
# 8 vertices

vn 0.000000 0.000000 1.000000
vn 0.000000 -1.000000 0.000000
vn 1.000000 0.000000 0.000000
vn 0.000000 1.000000 0.000000
vn -1.000000 0.000000 0.000000
# 5 vertex normals

vt 331897890054090490000000000000.000000 0.000000 -4682609090710152600000000000000000.000000
vt 0.000000 0.000000 0.000000
vt 0.000000 1.000000 1.000000
vt 1.000000 1.000000 0.000000
vt 0.000000 0.000000 1.000000
vt 1.000000 0.000000 0.000000
vt 0.000000 8256176.000000 0.000000
# 7 texture coords

g Rectangle001
usemtl Material__26
s 1
f 1/1/1 2/2/1 3/3/1 4/4/1 
usemtl Material__25
s off
f 5/5/2 6/6/2 4/4/2 3/3/2 
usemtl Material__26
f 6/6/3 7/2/3 1/1/3 4/4/3 
f 7/2/4 8/7/4 2/2/4 1/1/4 
f 8/7/5 5/5/5 3/3/5 2/2/5 
# 5 polygons

