{
	"asset": {
		"generator": "Unity 5.6.3f1",
		"extras": {
			"exporterVersion" : "2.1.1"
		},
		"version": "2.0"
	},
	"accessors": [
		{
			"bufferView": 2,
			"byteOffset": 0,
			"componentType": 5126,
			"count": 133,
			"max": [ 0.0047, 0.0254, 0.0334 ],
			"min": [ -0.0023, -0.0202, -0.0606 ],
			"type": "VEC3"
		},
		{
			"bufferView": 2,
			"byteOffset": 1596,
			"componentType": 5126,
			"count": 133,
			"max": [ 0.9995933, 0.9977851, 0.9994172 ],
			"min": [ -0.9991767, -0.9968612, -1 ],
			"type": "VEC3"
		},
		{
			"bufferView": 1,
			"byteOffset": 0,
			"componentType": 5126,
			"count": 133,
			"max": [ 0.7116, 0.4663 ],
			"min": [ 0.6328, 0.2929 ],
			"type": "VEC2"
		},
		{
			"bufferView": 3,
			"byteOffset": 0,
			"componentType": 5126,
			"count": 133,
			"max": [ 1, 0.9998404, 0.3579531, 1 ],
			"min": [ -0.8204463, 0, -0.3725902, -1 ],
			"type": "VEC4"
		},
		{
			"bufferView": 0,
			"byteOffset": 0,
			"componentType": 5123,
			"count": 582,
			"max": [ 132 ],
			"min": [ 0 ],
			"type": "SCALAR"
		}
	],
	"buffers": [
		{
			"byteLength": 7548,
			"uri": "Unity2Skfb.bin"
		}
	],
	"bufferViews": [
		{
			"buffer": 0,
			"byteLength": 1164,
			"byteOffset": 6384,
			"target": 34963
		},
		{
			"buffer": 0,
			"byteLength": 1064,
			"byteOffset": 0,
			"byteStride": 8,
			"target": 34962
		},
		{
			"buffer": 0,
			"byteLength": 3192,
			"byteOffset": 1064,
			"byteStride": 12,
			"target": 34962
		},
		{
			"buffer": 0,
			"byteLength": 2128,
			"byteOffset": 4256,
			"byteStride": 16,
			"target": 34962
		}
	],
	"images": [
		{
			"uri": "Assets/jicheanniu/29_jicheyipingxinhao.jpg"
		},
		{
			"uri": "Assets/jicheanniu/29_jicheyipingxinhao_converted_metalRoughness.jpg"
		}
	],
	"materials": [
		{
			"pbrMetallicRoughness": {
				"baseColorTexture" : {
					"index" : 0,
					"texCoord" : 0
				},
				"baseColorFactor": [0.588, 0.588, 0.588, 1],
				"metallicRoughnessTexture" : {
					"index" : 1,
					"texCoord" : 0
				},
				"metallicFactor": 1,
				"roughnessFactor": 1
			},
			"emissiveTexture" : {
				"index" : 0,
				"texCoord" : 0
			},
			"emissiveFactor": [1, 1, 1],
			"doubleSided": false,
			"name": "Material__274"
		}
	],
	"meshes": [
		{
			"name": "mesh_620_47324A13_yaoshi",
			"primitives": [
				{
					"attributes": {
						"POSITION": 0,
						"NORMAL": 1,
						"TEXCOORD_0": 2,
						"TANGENT": 3
					},
					"indices": 4,
					"material": 0,
					"mode": 4
				}
			]
		}
	],
	"nodes": [
		{
			"name": "UnityGlTF_correctionMatrix",
			"children": [
				1
			],
			"matrix": [-1, 0, -8.742278E-08, 0, 0, 1, 0, 0, 8.742278E-08, 0, -1, 0, 0, 0, 0, 1]
		},
		{
			"name": "node_A13_02_-192522",
			"children": [
				2
			],
			"matrix": [-0.1226956, -0.8058127, 0.5793198, 0, -0.3565332, 0.580551, 0.7320141, 0, -0.926191, -0.116732, -0.35853, 0, 0.004715174, 0.00641904, -0.004273097, 1]
		},
		{
			"name": "node_A13_yaoshi_-192528",
			"mesh": 0,
			"translation": [ 0.01128757, -0.01338387, 0.002645015],
			"rotation": [-0.4839199, -0.4666757, -0.1540192, -0.7240949]
		}
	],
	"samplers": [
		{
			"magFilter": 9729,
			"minFilter": 9985,
			"wrapS": 10497,
			"wrapT": 10497
		}
	],
	"scenes": [
		{
			"name":"defaultScene",
			"nodes": [
				0
			]
		}
	],
	"scene": 0,
	"textures": [
		{
			"sampler": 0,
			"source": 0
		},
		{
			"sampler": 0,
			"source": 1
		}
	]
}