# 3ds Max Wavefront OBJ Exporter v0.97b - (c)2007 guruware
# 创建的文件:03.08.2017 15:05:07

mtllib A13_02.mtl

#
# object A13_02
#

v  -0.0138 0.0092 -0.0005
v  -0.0120 0.0095 0.0061
v  -0.0007 0.0092 -0.0005
v  -0.0074 0.0098 0.0110
v  -0.0007 0.0102 0.0128
v  0.0058 0.0104 0.0110
v  0.0107 0.0104 0.0062
v  0.0125 0.0102 -0.0004
v  0.0108 0.0099 -0.0071
v  0.0060 0.0095 -0.0118
v  -0.0006 0.0092 -0.0136
v  -0.0073 0.0090 -0.0119
v  -0.0121 0.0089 -0.0071
v  -0.0061 -0.0096 0.0118
v  -0.0105 -0.0100 0.0068
v  0.0004 -0.0092 0.0136
v  0.0071 -0.0090 0.0119
v  0.0119 -0.0089 0.0071
v  0.0138 -0.0092 0.0005
v  0.0121 -0.0095 -0.0061
v  0.0072 -0.0099 -0.0110
v  0.0006 -0.0102 -0.0128
v  -0.0060 -0.0105 -0.0110
v  -0.0108 -0.0104 -0.0062
v  -0.0124 -0.0104 0.0002
# 25 vertices

vn -0.7801 0.6254 -0.0196
vn -0.6867 0.6430 0.3391
vn -0.0420 0.9984 -0.0383
vn -0.4172 0.6653 0.6191
vn -0.0339 0.6929 0.7203
vn 0.3365 0.7116 0.6168
vn 0.6111 0.7114 0.3469
vn 0.7099 0.7040 -0.0195
vn 0.6137 0.6823 -0.3973
vn 0.3390 0.6579 -0.6725
vn -0.0201 0.6341 -0.7730
vn -0.4004 0.6197 -0.6751
vn -0.6865 0.6064 -0.4013
vn -0.5272 -0.0051 0.8497
vn -0.8757 -0.0482 0.4805
vn -0.0061 0.0426 0.9991
vn 0.4914 0.0712 0.8680
vn 0.8605 0.0785 0.5033
vn 0.9978 0.0649 0.0095
vn 0.8710 0.0328 -0.4902
vn 0.5043 -0.0053 -0.8635
vn 0.0072 -0.0426 -0.9991
vn -0.4919 -0.0714 -0.8677
vn -0.8664 -0.0792 -0.4930
vn -0.9974 -0.0669 0.0272
# 25 vertex normals

vt 0.7351 0.4476 0.0000
vt 0.7497 0.4515 0.0000
vt 0.7352 0.4768 0.0000
vt 0.7604 0.4621 0.0000
vt 0.7644 0.4767 0.0000
vt 0.7606 0.4913 0.0000
vt 0.7499 0.5021 0.0000
vt 0.7353 0.5061 0.0000
vt 0.7207 0.5022 0.0000
vt 0.7099 0.4916 0.0000
vt 0.7060 0.4770 0.0000
vt 0.7098 0.4623 0.0000
vt 0.7205 0.4516 0.0000
vt 0.8150 0.4606 0.0000
vt 0.8135 0.5038 0.0000
vt 0.8086 0.5036 0.0000
vt 0.8092 0.4605 0.0000
vt 0.8208 0.4609 0.0000
vt 0.8184 0.5040 0.0000
vt 0.8233 0.5043 0.0000
vt 0.8265 0.4613 0.0000
vt 0.8282 0.5048 0.0000
vt 0.8321 0.4618 0.0000
vt 0.8372 0.4626 0.0000
vt 0.8331 0.5053 0.0000
vt 0.7747 0.4622 0.0000
vt 0.7790 0.5052 0.0000
vt 0.7739 0.5058 0.0000
vt 0.7696 0.4631 0.0000
vt 0.7802 0.4616 0.0000
vt 0.7840 0.5046 0.0000
vt 0.7859 0.4612 0.0000
vt 0.7889 0.5042 0.0000
vt 0.7938 0.5039 0.0000
vt 0.7917 0.4608 0.0000
vt 0.7975 0.4606 0.0000
vt 0.7988 0.5037 0.0000
vt 0.8037 0.5036 0.0000
vt 0.8034 0.4605 0.0000
# 39 texture coords

g A13_02
usemtl Material__67
s 2
f 1/1/1 2/2/2 3/3/3 
f 2/2/2 4/4/4 3/3/3 
f 4/4/4 5/5/5 3/3/3 
f 5/5/5 6/6/6 3/3/3 
f 6/6/6 7/7/7 3/3/3 
f 7/7/7 8/8/8 3/3/3 
f 8/8/8 9/9/9 3/3/3 
f 9/9/9 10/10/10 3/3/3 
f 10/10/10 11/11/11 3/3/3 
f 11/11/11 12/12/12 3/3/3 
f 12/12/12 13/13/13 3/3/3 
f 13/13/13 1/1/1 3/3/3 
f 14/14/14 4/15/4 2/16/2 15/17/15 
f 16/18/16 5/19/5 4/15/4 14/14/14 
f 6/20/6 5/19/5 16/18/16 17/21/17 
f 7/22/7 6/20/6 17/21/17 18/23/18 
f 19/24/19 8/25/8 7/22/7 18/23/18 
f 20/26/20 9/27/9 8/28/8 19/29/19 
f 9/27/9 20/26/20 21/30/21 10/31/10 
f 10/31/10 21/30/21 22/32/22 11/33/11 
f 12/34/12 11/33/11 22/32/22 23/35/23 
f 24/36/24 13/37/13 12/34/12 23/35/23 
f 1/38/1 13/37/13 24/36/24 25/39/25 
f 15/17/15 2/16/2 1/38/1 25/39/25 
# 12 polygons - 12 triangles

