# 3ds Max Wavefront OBJ Exporter v0.97b - (c)2007 guruware
# 创建的文件:31.07.2017 09:57:04

mtllib A23.mtl

#
# object A23
#

v  -0.0275 0.1450 0.0614
v  0.0270 0.1451 0.0639
v  0.0271 0.1593 0.0263
v  -0.0274 0.1594 0.0249
v  -0.0277 0.1049 0.1062
v  0.0265 0.1038 0.1049
v  0.0265 0.1259 0.0875
v  -0.0277 0.1259 0.0845
v  -0.0286 0.0448 0.1288
v  0.0257 0.0449 0.1303
v  0.0262 0.0765 0.1215
v  -0.0283 0.0767 0.1212
v  -0.0292 0.0114 0.1312
v  -0.0297 -0.0211 0.1234
v  0.0248 -0.0207 0.1250
v  0.0253 0.0116 0.1323
v  -0.0306 -0.0770 0.0925
v  0.0239 -0.0776 0.0927
v  0.0244 -0.0509 0.1127
v  -0.0301 -0.0512 0.1115
# 20 vertices

vn 0.2159 0.7651 0.6066
vn 0.3301 0.3944 0.8576
vn 0.3562 -0.0781 0.9311
vn 0.2991 -0.5317 0.7923
vn 0.2091 -0.8242 0.5262
vn 0.2772 0.5244 0.8051
vn 0.3744 0.1865 0.9083
vn 0.3388 -0.2608 0.9040
vn 0.2688 -0.6536 0.7075
# 9 vertex normals

vt 0.0033 0.7421 0.0000
vt 0.0778 0.7421 0.0000
vt 0.0778 0.7974 0.0000
vt 0.0033 0.7974 0.0000
vt 0.0033 0.6326 0.0000
vt 0.0778 0.6326 0.0000
vt 0.0778 0.6874 0.0000
vt 0.0033 0.6874 0.0000
vt 0.0033 0.5219 0.0000
vt 0.0778 0.5219 0.0000
vt 0.0778 0.5772 0.0000
vt 0.0033 0.5772 0.0000
vt 0.0033 0.4653 0.0000
vt 0.0033 0.4090 0.0000
vt 0.0778 0.4090 0.0000
vt 0.0778 0.4653 0.0000
vt 0.0033 0.2990 0.0000
vt 0.0778 0.2990 0.0000
vt 0.0778 0.3539 0.0000
vt 0.0033 0.3539 0.0000
# 20 texture coords

g A23
usemtl Material__46
s off
f 1/1/1 2/2/1 3/3/1 4/4/1 
f 5/5/2 6/6/2 7/7/2 8/8/2 
f 9/9/3 10/10/3 11/11/3 12/12/3 
f 13/13/4 14/14/4 15/15/4 16/16/4 
f 17/17/5 18/18/5 19/19/5 20/20/5 
f 8/8/6 7/7/6 2/2/6 1/1/6 
f 11/11/7 6/6/7 5/5/7 12/12/7 
f 9/9/8 13/13/8 16/16/8 10/10/8 
f 19/19/9 15/15/9 14/14/9 20/20/9 
# 9 polygons

