# 3ds Max Wavefront OBJ Exporter v0.97b - (c)2007 guruware
# 创建的文件:31.07.2017 14:33:18

mtllib A8.mtl

#
# object A8
#

v  -0.0032 0.0124 0.0096
v  -0.0032 0.0124 0.0452
v  0.0030 0.0124 0.0452
v  0.0030 0.0124 0.0096
v  0.0030 -0.0075 0.0096
v  0.0030 -0.0075 0.0452
v  -0.0032 -0.0075 0.0452
v  -0.0032 -0.0075 0.0096
v  0.0094 0.0122 0.0152
v  0.0003 0.0122 0.0178
v  0.0004 -0.0031 0.0244
v  0.0127 -0.0031 0.0209
v  0.0159 0.0122 0.0084
v  0.0217 -0.0031 0.0116
v  0.0181 0.0122 -0.0007
v  0.0248 -0.0031 -0.0009
v  0.0155 0.0122 -0.0098
v  0.0212 -0.0031 -0.0132
v  0.0120 -0.0031 -0.0221
v  0.0088 0.0122 -0.0163
v  -0.0003 0.0122 -0.0186
v  -0.0005 -0.0031 -0.0253
v  -0.0128 -0.0031 -0.0217
v  -0.0094 0.0122 -0.0160
v  -0.0159 0.0122 -0.0092
v  -0.0218 -0.0031 -0.0125
v  -0.0249 -0.0031 0.0000
v  -0.0182 0.0122 -0.0001
v  -0.0213 -0.0031 0.0124
v  -0.0156 0.0122 0.0089
v  -0.0089 0.0122 0.0155
v  -0.0121 -0.0031 0.0213
v  0.0000 0.0115 -0.0004
v  0.0004 -0.0124 0.0244
v  0.0127 -0.0124 0.0209
v  0.0217 -0.0124 0.0116
v  0.0248 -0.0124 -0.0009
v  0.0212 -0.0124 -0.0132
v  0.0120 -0.0124 -0.0221
v  -0.0005 -0.0124 -0.0253
v  -0.0128 -0.0124 -0.0217
v  -0.0218 -0.0124 -0.0125
v  -0.0249 -0.0123 0.0000
v  -0.0213 -0.0124 0.0124
v  -0.0121 -0.0124 0.0213
# 45 vertices

vn -0.0800 0.9710 -0.2254
vn -0.5774 0.5774 0.5774
vn 0.5774 0.5774 0.5774
vn 0.8976 0.3967 -0.1924
vn 0.1706 -0.8601 -0.4808
vn 0.0655 -0.3305 0.9415
vn -0.8684 -0.2062 0.4509
vn -0.1706 -0.8601 -0.4808
vn 0.3050 0.8051 0.5087
vn 0.0105 0.8044 0.5940
vn 0.0169 0.1964 0.9804
vn 0.5038 0.1965 0.8412
vn 0.5200 0.8043 0.2876
vn 0.8577 0.1970 0.4748
vn 0.5914 0.8063 -0.0118
vn 0.9801 0.1976 -0.0206
vn 0.5079 0.8053 -0.3058
vn 0.8396 0.1973 -0.5061
vn 0.4779 0.1971 -0.8560
vn 0.2893 0.8049 -0.5181
vn -0.0105 0.8055 -0.5925
vn -0.0168 0.1977 -0.9801
vn -0.5050 0.1980 -0.8401
vn -0.3061 0.8053 -0.5077
vn -0.5161 0.8071 -0.2867
vn -0.8562 0.1988 -0.4768
vn -0.9799 0.1987 0.0187
vn -0.5921 0.8058 0.0112
vn -0.8400 0.1977 0.5053
vn -0.5073 0.8065 0.3037
vn -0.2893 0.8043 0.5190
vn -0.4760 0.1970 0.8571
vn -0.0001 1.0000 0.0000
vn 0.0171 0.0000 0.9999
vn 0.5137 0.0000 0.8580
vn 0.8747 0.0000 0.4847
vn 0.9998 0.0000 -0.0208
vn 0.8560 0.0000 -0.5170
vn 0.4879 0.0000 -0.8729
vn -0.0170 0.0000 -0.9999
vn -0.5146 0.0000 -0.8574
vn -0.8730 0.0000 -0.4877
vn -0.9998 0.0000 0.0197
vn -0.8562 0.0000 0.5166
vn -0.4846 0.0000 0.8747
# 45 vertex normals

vt 0.7025 0.6914 0.0000
vt 0.7025 0.5865 0.0000
vt 0.7194 0.5865 0.0000
vt 0.7194 0.6914 0.0000
vt 0.7913 0.6914 0.0000
vt 0.7913 0.5865 0.0000
vt 0.6305 0.5865 0.0000
vt 0.6305 0.6914 0.0000
vt 0.7194 0.5252 0.0000
vt 0.7025 0.5252 0.0000
vt 0.7134 0.8031 0.0000
vt 0.7272 0.8163 0.0000
vt 0.7087 0.8429 0.0000
vt 0.6849 0.8181 0.0000
vt 0.7078 0.7853 0.0000
vt 0.6773 0.7853 0.0000
vt 0.7121 0.7666 0.0000
vt 0.6871 0.7505 0.0000
vt 0.7253 0.7530 0.0000
vt 0.7122 0.7252 0.0000
vt 0.7445 0.7160 0.0000
vt 0.7445 0.7478 0.0000
vt 0.7625 0.7523 0.0000
vt 0.7802 0.7260 0.0000
vt 0.8043 0.7521 0.0000
vt 0.7764 0.7655 0.0000
vt 0.7817 0.7853 0.0000
vt 0.8121 0.7853 0.0000
vt 0.8024 0.8204 0.0000
vt 0.7771 0.8022 0.0000
vt 0.7772 0.8443 0.0000
vt 0.7638 0.8158 0.0000
vt 0.7445 0.8210 0.0000
vt 0.7445 0.8524 0.0000
vt 0.7445 0.7853 0.0000
vt 0.6983 0.8583 0.0000
vt 0.6668 0.8234 0.0000
vt 0.6600 0.7853 0.0000
vt 0.6712 0.7425 0.0000
vt 0.7023 0.7097 0.0000
vt 0.7445 0.6972 0.0000
vt 0.7905 0.7101 0.0000
vt 0.8224 0.7474 0.0000
vt 0.8290 0.7853 0.0000
vt 0.8189 0.8287 0.0000
vt 0.7859 0.8603 0.0000
vt 0.7445 0.8696 0.0000
# 47 texture coords

g A8
usemtl Material__349
s 524288
f 1/1/1 2/2/2 3/3/3 4/4/4 
f 5/5/5 4/4/4 3/3/3 6/6/6 
f 7/7/7 2/2/2 1/1/1 8/8/8 
f 6/9/6 3/3/3 2/2/2 7/10/7 
f 9/11/9 10/12/10 11/13/11 12/14/12 
f 13/15/13 9/11/9 12/14/12 14/16/14 
f 15/17/15 13/15/13 14/16/14 16/18/16 
f 17/19/17 15/17/15 16/18/16 18/20/18 
f 18/20/18 19/21/19 20/22/20 17/19/17 
f 21/23/21 20/22/20 19/21/19 22/24/22 
f 21/23/21 22/24/22 23/25/23 24/26/24 
f 25/27/25 24/26/24 23/25/23 26/28/26 
f 25/27/25 26/28/26 27/29/27 28/30/28 
f 28/30/28 27/29/27 29/31/29 30/32/30 
f 31/33/31 30/32/30 29/31/29 32/34/32 
f 10/12/10 31/33/31 32/34/32 11/13/11 
f 10/12/10 9/11/9 33/35/33 
f 9/11/9 13/15/13 33/35/33 
f 13/15/13 15/17/15 33/35/33 
f 15/17/15 17/19/17 33/35/33 
f 17/19/17 20/22/20 33/35/33 
f 20/22/20 21/23/21 33/35/33 
f 21/23/21 24/26/24 33/35/33 
f 24/26/24 25/27/25 33/35/33 
f 25/27/25 28/30/28 33/35/33 
f 28/30/28 30/32/30 33/35/33 
f 30/32/30 31/33/31 33/35/33 
f 31/33/31 10/12/10 33/35/33 
f 11/13/11 34/36/34 35/37/35 12/14/12 
f 35/37/35 36/38/36 14/16/14 12/14/12 
f 14/16/14 36/38/36 37/39/37 16/18/16 
f 16/18/16 37/39/37 38/40/38 18/20/18 
f 39/41/39 19/21/19 18/20/18 38/40/38 
f 40/42/40 22/24/22 19/21/19 39/41/39 
f 23/25/23 22/24/22 40/42/40 41/43/41 
f 41/43/41 42/44/42 26/28/26 23/25/23 
f 26/28/26 42/44/42 43/45/43 27/29/27 
f 43/45/43 44/46/44 29/31/29 27/29/27 
f 29/31/29 44/46/44 45/47/45 32/34/32 
f 32/34/32 45/47/45 34/36/34 11/13/11 
f 4/4/4 7/10/7 8/8/8 1/1/1 
f 5/5/5 6/6/6 7/10/7 4/4/4 
# 30 polygons - 12 triangles

