# 3ds Max Wavefront OBJ Exporter v0.97b - (c)2007 guruware
# 创建的文件:03.11.2017 15:50:13

mtllib C14.mtl

#
# object C14
#

v  -0.0183 0.2158 -0.0016
v  -0.0211 0.2155 0.0070
v  0.0002 0.2166 0.0082
v  -0.0196 0.2153 0.0156
v  -0.0144 0.2153 0.0229
v  -0.0062 0.2152 0.0271
v  0.0068 0.2158 -0.0111
v  -0.0027 0.2161 -0.0116
v  -0.0118 0.2159 -0.0080
v  -0.0166 0.2116 -0.0147
v  -0.0195 0.2045 -0.0194
v  -0.0306 0.2042 -0.0084
v  -0.0258 0.2113 -0.0056
v  -0.0299 0.2110 0.0064
v  -0.0352 0.2038 0.0059
v  -0.0277 0.2108 0.0186
v  -0.0330 0.2037 0.0204
v  -0.0203 0.2106 0.0288
v  -0.0240 0.2035 0.0323
v  -0.0087 0.2107 0.0348
v  -0.0103 0.2035 0.0395
v  -0.0038 0.2118 -0.0194
v  0.0096 0.2116 -0.0187
v  -0.0045 0.2049 -0.0249
v  0.0112 0.2045 -0.0237
v  -0.0047 0.1448 0.0056
v  -0.0042 0.1449 0.0082
v  -0.0166 0.1456 0.0128
v  -0.0179 0.1457 0.0049
v  -0.0154 0.1459 -0.0028
v  -0.0037 0.1450 0.0032
v  -0.0093 0.1460 -0.0087
v  -0.0020 0.1450 0.0013
v  -0.0013 0.1462 -0.0117
v  0.0007 0.1450 0.0004
v  0.0071 0.1460 -0.0105
v  0.0031 0.1449 0.0013
v  -0.0119 0.1454 0.0193
v  -0.0027 0.1448 0.0102
v  -0.0006 0.1447 0.0122
v  -0.0046 0.1455 0.0238
v  0.0218 0.2154 0.0093
v  0.0187 0.2154 0.0178
v  0.0123 0.2154 0.0243
v  0.0033 0.2152 0.0276
v  0.0150 0.2155 -0.0066
v  0.0203 0.2155 0.0007
v  0.0363 0.2040 0.0102
v  0.0340 0.2041 -0.0044
v  0.0285 0.2111 -0.0024
v  0.0303 0.2111 0.0100
v  0.0265 0.2110 0.0219
v  0.0313 0.2040 0.0243
v  0.0172 0.2109 0.0309
v  0.0205 0.2038 0.0353
v  0.0048 0.2108 0.0357
v  0.0055 0.2037 0.0406
v  0.0209 0.2112 -0.0126
v  0.0248 0.2042 -0.0166
v  0.0119 0.1456 0.0221
v  0.0045 0.1447 0.0120
v  0.0064 0.1447 0.0103
v  0.0179 0.1456 0.0162
v  0.0072 0.1447 0.0078
v  0.0206 0.1457 0.0088
v  0.0068 0.1448 0.0053
v  0.0192 0.1457 0.0007
v  0.0052 0.1448 0.0031
v  0.0143 0.1458 -0.0059
v  0.0019 0.1446 0.0130
v  0.0039 0.1455 0.0252
v  -0.0010 0.1790 -0.0065
v  -0.0030 0.0334 -0.0097
v  -0.0090 0.0332 -0.0076
v  -0.0068 0.1788 -0.0045
v  -0.0109 0.1785 -0.0003
v  -0.0131 0.0329 -0.0036
v  -0.0150 0.0327 0.0017
v  -0.0129 0.1784 0.0050
v  -0.0142 0.0326 0.0072
v  -0.0121 0.1783 0.0104
v  -0.0109 0.0326 0.0118
v  -0.0087 0.1782 0.0150
v  -0.0033 0.1784 0.0177
v  -0.0054 0.0327 0.0144
v  0.0027 0.1785 0.0181
v  0.0006 0.0328 0.0150
v  0.0064 0.0331 0.0128
v  0.0086 0.1787 0.0161
v  0.0108 0.0333 0.0089
v  0.0130 0.1789 0.0120
v  0.0147 0.1791 0.0067
v  0.0125 0.0335 0.0036
v  0.0138 0.1794 0.0012
v  0.0117 0.0338 -0.0020
v  0.0105 0.1793 -0.0033
v  0.0084 0.0337 -0.0065
v  0.0029 0.0336 -0.0092
v  0.0051 0.1793 -0.0061
v  -0.0225 0.0846 0.0236
v  0.0233 0.0839 0.0254
v  0.0231 0.0880 0.0024
v  -0.0227 0.0887 0.0005
v  -0.0223 0.0661 0.0623
v  0.0235 0.0655 0.0643
v  0.0234 0.0784 0.0448
v  -0.0224 0.0791 0.0429
v  -0.0222 0.0501 0.0780
v  0.0236 0.0494 0.0800
v  0.0234 0.0333 0.0906
v  -0.0224 0.0341 0.0886
v  -0.0224 0.0151 0.0947
v  0.0233 0.0139 0.0966
v  -0.0243 0.0402 -0.0954
v  0.0215 0.0395 -0.0936
v  0.0210 0.0200 -0.1017
v  -0.0248 0.0211 -0.1036
v  -0.0236 0.0704 -0.0639
v  0.0221 0.0697 -0.0619
v  0.0216 0.0546 -0.0809
v  -0.0242 0.0553 -0.0828
v  -0.0229 0.0862 -0.0225
v  0.0229 0.0854 -0.0205
v  0.0225 0.0801 -0.0412
v  -0.0233 0.0809 -0.0432
v  -0.0239 -0.0009 -0.0045
v  -0.0228 -0.0039 0.0959
v  0.0203 -0.0025 -0.0042
v  0.0207 0.0005 -0.1059
v  0.0229 -0.0054 0.0976
v  -0.0250 0.0021 -0.1078
# 131 vertices

vn -0.2658 0.9528 -0.1454
vn -0.3125 0.9498 -0.0129
vn 0.0015 0.9999 0.0156
vn -0.2980 0.9480 0.1130
vn -0.2314 0.9460 0.2279
vn -0.1096 0.9479 0.2996
vn 0.1245 0.9561 -0.2657
vn -0.0300 0.9582 -0.2846
vn -0.1700 0.9554 -0.2408
vn -0.3646 0.7448 -0.5574
vn -0.5161 0.1953 -0.8319
vn -0.8320 0.1790 -0.5216
vn -0.5817 0.7333 -0.3495
vn -0.6873 0.7232 -0.0647
vn -0.9802 0.1621 -0.1089
vn -0.6533 0.7214 0.2323
vn -0.9363 0.1543 0.3192
vn -0.4999 0.7146 0.4913
vn -0.7149 0.1482 0.6862
vn -0.2448 0.7205 0.6498
vn -0.3617 0.1497 0.9217
vn -0.0691 0.7522 -0.6550
vn 0.2467 0.7467 -0.6188
vn -0.0893 0.2100 -0.9733
vn 0.3592 0.1964 -0.9139
vn -0.0652 -0.9975 -0.0260
vn -0.0667 -0.9977 0.0077
vn -0.6409 -0.7408 0.2035
vn -0.6719 -0.7346 -0.0913
vn -0.5744 -0.7220 -0.3835
vn -0.0558 -0.9965 -0.0615
vn -0.3510 -0.7229 -0.5937
vn -0.0323 -0.9964 -0.0781
vn -0.0574 -0.6995 -0.7121
vn -0.0073 -0.9955 -0.0949
vn 0.2536 -0.7154 -0.6522
vn 0.0196 -0.9959 -0.0880
vn -0.4876 -0.7517 0.4461
vn -0.0530 -0.9983 0.0258
vn -0.0357 -0.9977 0.0572
vn -0.2591 -0.7406 0.6211
vn 0.3045 0.9515 0.0415
vn 0.2544 0.9524 0.1668
vn 0.1548 0.9519 0.2638
vn 0.0250 0.9506 0.3095
vn 0.2288 0.9538 -0.1955
vn 0.2869 0.9538 -0.0897
vn 0.9737 0.1890 0.1230
vn 0.9306 0.1931 -0.3147
vn 0.6354 0.7441 -0.2089
vn 0.6628 0.7433 0.0876
vn 0.5651 0.7381 0.3663
vn 0.8241 0.1861 0.5315
vn 0.3513 0.7381 0.5745
vn 0.5153 0.1760 0.8366
vn 0.0633 0.7306 0.6796
vn 0.0831 0.1686 0.9819
vn 0.4902 0.7427 -0.4582
vn 0.7114 0.1893 -0.6797
vn 0.3659 -0.7302 0.5755
vn 0.0481 -0.9969 0.0615
vn 0.0665 -0.9971 0.0378
vn 0.5776 -0.7275 0.3678
vn 0.0793 -0.9968 0.0012
vn 0.6889 -0.7197 0.0826
vn 0.0722 -0.9969 -0.0331
vn 0.6517 -0.7241 -0.2281
vn 0.0512 -0.9966 -0.0644
vn 0.4921 -0.7296 -0.4769
vn 0.0040 -0.9976 0.0688
vn 0.0568 -0.7225 0.6888
vn -0.0796 0.0234 -0.9963
vn -0.0926 0.0235 -0.9951
vn -0.5247 0.0257 -0.8488
vn -0.5141 0.0257 -0.8553
vn -0.8343 0.0230 -0.5474
vn -0.8386 0.0229 -0.5408
vn -0.9894 0.0156 -0.1400
vn -0.9892 0.0156 -0.1413
vn -0.9530 0.0049 0.3067
vn -0.9522 0.0048 0.3091
vn -0.7133 -0.0072 0.7038
vn -0.7060 -0.0075 0.7110
vn -0.3308 -0.0175 0.9450
vn -0.3414 -0.0173 0.9412
vn 0.0949 -0.0239 0.9949
vn 0.0821 -0.0238 0.9961
vn 0.5006 -0.0260 0.8633
vn 0.5098 -0.0260 0.8579
vn 0.8333 -0.0230 0.5489
vn 0.8371 -0.0229 0.5431
vn 0.9929 -0.0152 0.1132
vn 0.9922 -0.0153 0.1190
vn 0.9509 -0.0048 -0.3130
vn 0.9502 -0.0048 -0.3154
vn 0.7199 0.0070 -0.6969
vn 0.7124 0.0072 -0.7047
vn 0.3380 0.0172 -0.9424
vn 0.3496 0.0169 -0.9382
vn -0.6960 0.7058 0.1343
vn 0.7005 0.6883 0.1857
vn 0.6896 0.7220 0.0525
vn -0.6663 0.7456 -0.0040
vn -0.7098 0.5575 0.4334
vn 0.6630 0.5595 0.4946
vn 0.6649 0.6648 0.3377
vn -0.6852 0.6738 0.2793
vn -0.7169 0.4579 0.5287
vn 0.6595 0.4528 0.5973
vn 0.6362 0.3139 0.7022
vn -0.7186 0.3180 0.6214
vn -0.7239 0.1374 0.6790
vn 0.6387 0.1237 0.7568
vn -0.6235 0.4002 -0.6691
vn 0.7283 0.3660 -0.5823
vn 0.7405 0.2026 -0.6438
vn -0.6350 0.2339 -0.7337
vn -0.6467 0.6330 -0.4230
vn 0.7253 0.5899 -0.3578
vn 0.7285 0.5038 -0.4672
vn -0.6439 0.5371 -0.5422
vn -0.6697 0.7253 -0.1566
vn 0.7178 0.6891 -0.1015
vn 0.7155 0.6620 -0.2260
vn -0.6547 0.6991 -0.2848
vn -0.9992 0.0114 -0.0335
vn -0.7295 0.0524 0.6849
vn 0.9990 -0.0225 0.0335
vn 0.7245 0.1472 -0.6763
vn 0.6478 0.0282 0.7586
vn -0.5965 0.1713 -0.7817
# 131 vertex normals

vt 0.2414 0.9073 0.0000
vt 0.2505 0.9072 0.0000
vt 0.2461 0.9419 0.0000
vt 0.2591 0.9111 0.0000
vt 0.2666 0.9189 0.0000
vt 0.2718 0.9313 0.0000
vt 0.2201 0.9323 0.0000
vt 0.2253 0.9196 0.0000
vt 0.2329 0.9116 0.0000
vt 0.2291 0.8980 0.0000
vt 0.2275 0.8876 0.0000
vt 0.2398 0.8851 0.0000
vt 0.2403 0.8944 0.0000
vt 0.2516 0.8939 0.0000
vt 0.2520 0.8848 0.0000
vt 0.2628 0.8972 0.0000
vt 0.2644 0.8867 0.0000
vt 0.2735 0.9042 0.0000
vt 0.2766 0.8904 0.0000
vt 0.2837 0.9162 0.0000
vt 0.2902 0.8943 0.0000
vt 0.2183 0.9053 0.0000
vt 0.2083 0.9177 0.0000
vt 0.2150 0.8916 0.0000
vt 0.2015 0.8962 0.0000
vt 0.2493 0.7757 0.0000
vt 0.2577 0.7757 0.0000
vt 0.2599 0.8016 0.0000
vt 0.2500 0.8016 0.0000
vt 0.2402 0.8016 0.0000
vt 0.2403 0.7757 0.0000
vt 0.2302 0.8016 0.0000
vt 0.2320 0.7757 0.0000
vt 0.2200 0.8020 0.0000
vt 0.2252 0.7757 0.0000
vt 0.2097 0.8041 0.0000
vt 0.2208 0.7757 0.0000
vt 0.2701 0.8020 0.0000
vt 0.2646 0.7757 0.0000
vt 0.2689 0.7757 0.0000
vt 0.2803 0.8041 0.0000
vt 0.6244 0.9897 0.0000
vt 0.6244 0.8301 0.0000
vt 0.6302 0.8301 0.0000
vt 0.6302 0.9897 0.0000
vt 0.6358 0.9897 0.0000
vt 0.6358 0.8301 0.0000
vt 0.6415 0.8301 0.0000
vt 0.6415 0.9897 0.0000
vt 0.6470 0.8301 0.0000
vt 0.6472 0.9897 0.0000
vt 0.6527 0.8301 0.0000
vt 0.6527 0.9897 0.0000
vt 0.6585 0.9897 0.0000
vt 0.6585 0.8301 0.0000
vt 0.6641 0.9897 0.0000
vt 0.6641 0.8301 0.0000
vt 0.5905 0.8301 0.0000
vt 0.5905 0.9897 0.0000
vt 0.5847 0.9897 0.0000
vt 0.5847 0.8301 0.0000
vt 0.5962 0.8301 0.0000
vt 0.5962 0.9897 0.0000
vt 0.6018 0.9897 0.0000
vt 0.6018 0.8301 0.0000
vt 0.6074 0.9897 0.0000
vt 0.6076 0.8301 0.0000
vt 0.6131 0.9897 0.0000
vt 0.6131 0.8301 0.0000
vt 0.6188 0.8301 0.0000
vt 0.6188 0.9897 0.0000
vt 0.1310 0.6856 0.0000
vt 0.1866 0.6856 0.0000
vt 0.1866 0.6926 0.0000
vt 0.1310 0.6926 0.0000
vt 0.1310 0.6722 0.0000
vt 0.1866 0.6722 0.0000
vt 0.1866 0.6789 0.0000
vt 0.1310 0.6789 0.0000
vt 0.1310 0.6654 0.0000
vt 0.1866 0.6654 0.0000
vt 0.1866 0.6586 0.0000
vt 0.1310 0.6586 0.0000
vt 0.1310 0.6519 0.0000
vt 0.1866 0.6519 0.0000
vt 0.1310 0.7267 0.0000
vt 0.1866 0.7267 0.0000
vt 0.1866 0.7334 0.0000
vt 0.1310 0.7334 0.0000
vt 0.1310 0.7129 0.0000
vt 0.1866 0.7129 0.0000
vt 0.1866 0.7198 0.0000
vt 0.1310 0.7198 0.0000
vt 0.1310 0.6995 0.0000
vt 0.1866 0.6995 0.0000
vt 0.1866 0.7062 0.0000
vt 0.1310 0.7062 0.0000
vt 0.1194 0.9351 0.0000
vt 0.1196 0.9171 0.0000
vt 0.1964 0.9162 0.0000
vt 0.1197 0.8990 0.0000
vt 0.1274 0.8833 0.0000
vt 0.1351 0.8676 0.0000
vt 0.1490 0.8562 0.0000
vt 0.1628 0.8447 0.0000
vt 0.1797 0.8411 0.0000
vt 0.1959 0.9971 0.0000
vt 0.1791 0.9927 0.0000
vt 0.1623 0.9884 0.0000
vt 0.1484 0.9775 0.0000
vt 0.1344 0.9666 0.0000
vt 0.1269 0.9509 0.0000
vt 0.1195 0.9171 0.0000
vt 0.1965 0.8374 0.0000
vt 0.1797 0.8410 0.0000
vt 0.1489 0.8562 0.0000
vt 0.1310 0.6452 0.0000
vt 0.1866 0.6452 0.0000
vt 0.1866 0.7400 0.0000
vt 0.1310 0.7400 0.0000
# 120 texture coords

g C14
usemtl Material__1011
s 32
f 1/1/1 2/2/2 3/3/3 
f 2/2/2 4/4/4 3/3/3 
f 4/4/4 5/5/5 3/3/3 
f 5/5/5 6/6/6 3/3/3 
f 7/7/7 8/8/8 3/3/3 
f 8/8/8 9/9/9 3/3/3 
f 9/9/9 1/1/1 3/3/3 
f 10/10/10 11/11/11 12/12/12 13/13/13 
f 13/13/13 1/1/1 9/9/9 10/10/10 
f 14/14/14 2/2/2 1/1/1 13/13/13 
f 15/15/15 14/14/14 13/13/13 12/12/12 
f 4/4/4 2/2/2 14/14/14 16/16/16 
f 16/16/16 14/14/14 15/15/15 17/17/17 
f 18/18/18 5/5/5 4/4/4 16/16/16 
f 18/18/18 16/16/16 17/17/17 19/19/19 
f 6/6/6 5/5/5 18/18/18 20/20/20 
f 21/21/21 20/20/20 18/18/18 19/19/19 
f 22/22/22 8/8/8 7/7/7 23/23/23 
f 24/24/24 22/22/22 23/23/23 25/25/25 
f 9/9/9 8/8/8 22/22/22 10/10/10 
f 11/11/11 10/10/10 22/22/22 24/24/24 
f 26/26/26 27/27/27 28/28/28 29/29/29 
f 30/30/30 31/31/31 26/26/26 29/29/29 
f 32/32/32 33/33/33 31/31/31 30/30/30 
f 34/34/34 35/35/35 33/33/33 32/32/32 
f 36/36/36 37/37/37 35/35/35 34/34/34 
f 38/38/38 39/39/39 40/40/40 41/41/41 
f 27/27/27 39/39/39 38/38/38 28/28/28 
f 28/28/28 17/17/17 15/15/15 29/29/29 
f 29/29/29 15/15/15 12/12/12 30/30/30 
f 11/11/11 32/32/32 30/30/30 12/12/12 
f 11/11/11 24/24/24 34/34/34 32/32/32 
f 34/34/34 24/24/24 25/25/25 36/36/36 
f 41/41/41 21/21/21 19/19/19 38/38/38 
f 17/17/17 28/28/28 38/38/38 19/19/19 
f 42/1/42 3/3/3 43/2/43 
f 43/2/43 3/3/3 44/4/44 
f 44/4/44 3/3/3 45/5/45 
f 45/5/45 3/3/3 6/6/6 
f 7/7/7 3/3/3 46/8/46 
f 46/8/46 3/3/3 47/9/47 
f 47/9/47 3/3/3 42/1/42 
f 48/12/48 49/11/49 50/10/50 51/13/51 
f 50/10/50 47/9/47 42/1/42 51/13/51 
f 42/1/42 43/2/43 52/14/52 51/13/51 
f 53/15/53 48/12/48 51/13/51 52/14/52 
f 52/14/52 43/2/43 44/4/44 54/16/54 
f 54/16/54 55/17/55 53/15/53 52/14/52 
f 54/16/54 44/4/44 45/5/45 56/18/56 
f 56/18/56 57/19/57 55/17/55 54/16/54 
f 56/18/56 45/5/45 6/6/6 20/20/20 
f 57/19/57 56/18/56 20/20/20 21/21/21 
f 23/23/23 7/7/7 46/8/46 58/22/58 
f 58/22/58 59/24/59 25/25/25 23/23/23 
f 58/22/58 46/8/46 47/9/47 50/10/50 
f 58/22/58 50/10/50 49/11/49 59/24/59 
f 60/28/60 61/27/61 62/26/62 63/29/63 
f 63/29/63 62/26/62 64/31/64 65/30/65 
f 64/31/64 66/33/66 67/32/67 65/30/65 
f 67/32/67 66/33/66 68/35/68 69/34/69 
f 69/34/69 68/35/68 37/37/37 36/36/36 
f 41/41/41 40/40/40 70/39/70 71/38/71 
f 71/38/71 70/39/70 61/27/61 60/28/60 
f 53/15/53 55/17/55 60/28/60 63/29/63 
f 63/29/63 65/30/65 48/12/48 53/15/53 
f 67/32/67 49/11/49 48/12/48 65/30/65 
f 49/11/49 67/32/67 69/34/69 59/24/59 
f 36/36/36 25/25/25 59/24/59 69/34/69 
f 71/38/71 57/19/57 21/21/21 41/41/41 
f 55/17/55 57/19/57 71/38/71 60/28/60 
f 72/42/72 73/43/73 74/44/74 75/45/75 
f 76/46/76 75/45/75 74/44/74 77/47/77 
f 78/48/78 79/49/79 76/46/76 77/47/77 
f 80/50/80 81/51/81 79/49/79 78/48/78 
f 80/50/80 82/52/82 83/53/83 81/51/81 
f 84/54/84 83/53/83 82/52/82 85/55/85 
f 86/56/86 84/54/84 85/55/85 87/57/87 
f 88/58/88 89/59/89 86/60/86 87/61/87 
f 90/62/90 91/63/91 89/59/89 88/58/88 
f 92/64/92 91/63/91 90/62/90 93/65/93 
f 94/66/94 92/64/92 93/65/93 95/67/95 
f 96/68/96 94/66/94 95/67/95 97/69/97 
f 96/68/96 97/69/97 98/70/98 99/71/99 
f 72/42/72 99/71/99 98/70/98 73/43/73 
f 100/72/100 101/73/101 102/74/102 103/75/103 
f 104/76/104 105/77/105 106/78/106 107/79/107 
f 105/77/105 104/76/104 108/80/108 109/81/109 
f 110/82/110 111/83/111 112/84/112 113/85/113 
f 114/86/114 115/87/115 116/88/116 117/89/117 
f 118/90/118 119/91/119 120/92/120 121/93/121 
f 122/94/122 123/95/123 124/96/124 125/97/125 
f 100/98/100 103/99/103 126/100/126 
f 122/101/122 125/102/125 126/100/126 
f 118/103/118 121/104/121 126/100/126 
f 114/105/114 117/106/117 126/100/126 
f 127/107/127 112/108/112 126/100/126 
f 111/109/111 108/110/108 126/100/126 
f 104/111/104 107/112/107 126/100/126 
f 123/101/123 102/113/102 128/100/128 
f 101/98/101 106/112/106 128/100/128 
f 105/111/105 109/110/109 128/100/128 
f 110/109/110 113/108/113 128/100/128 
f 129/114/129 116/115/116 128/100/128 
f 115/105/115 120/116/120 128/100/128 
f 119/103/119 124/102/124 128/100/128 
f 123/95/123 122/94/122 103/75/103 102/74/102 
f 101/73/101 100/72/100 107/79/107 106/78/106 
f 111/83/111 110/82/110 109/81/109 108/80/108 
f 127/117/127 130/118/130 113/85/113 112/84/112 
f 129/119/129 131/120/131 117/89/117 116/88/116 
f 115/87/115 114/86/114 121/93/121 120/92/120 
f 119/91/119 118/90/118 125/97/125 124/96/124 
f 102/113/102 101/98/101 128/100/128 
f 106/112/106 105/111/105 128/100/128 
f 109/110/109 110/109/110 128/100/128 
f 113/108/113 130/107/130 128/100/128 
f 116/115/116 115/105/115 128/100/128 
f 120/116/120 119/103/119 128/100/128 
f 124/102/124 123/101/123 128/100/128 
f 103/99/103 122/101/122 126/100/126 
f 125/102/125 118/103/118 126/100/126 
f 121/104/121 114/105/114 126/100/126 
f 117/106/117 131/114/131 126/100/126 
f 112/108/112 111/109/111 126/100/126 
f 108/110/108 104/111/104 126/100/126 
f 107/112/107 100/98/100 126/100/126 
# 84 polygons - 42 triangles

