# 3ds Max Wavefront OBJ Exporter v0.97b - (c)2007 guruware
# 创建的文件:07.11.2017 09:48:54

mtllib C16.mtl

#
# object C16
#

v  0.0107 0.0166 0.0408
v  0.0038 0.0168 -0.0110
v  -0.0075 0.0171 -0.0095
v  -0.0008 0.0168 0.0421
v  0.0100 -0.0015 0.0408
v  0.0076 -0.0014 0.0229
v  -0.0084 -0.0008 -0.0164
v  -0.0037 -0.0011 0.0244
v  -0.0013 -0.0010 0.0421
v  0.0029 -0.0012 -0.0177
v  0.0068 -0.0013 0.0157
v  0.0137 -0.0015 0.0104
v  0.0006 0.0004 0.0001
v  0.0172 -0.0015 0.0025
v  0.0161 -0.0015 -0.0061
v  0.0108 -0.0013 -0.0130
v  0.0029 -0.0010 -0.0163
v  -0.0057 -0.0008 -0.0153
v  -0.0125 -0.0006 -0.0101
v  -0.0159 -0.0005 -0.0022
v  -0.0149 -0.0005 0.0064
v  -0.0097 -0.0007 0.0133
v  -0.0018 -0.0010 0.0166
v  0.0107 -0.0318 0.0260
v  0.0224 -0.0321 0.0172
v  0.0216 -0.0069 0.0175
v  0.0100 -0.0066 0.0262
v  0.0281 -0.0324 0.0040
v  0.0273 -0.0070 0.0043
v  0.0255 -0.0069 -0.0100
v  0.0173 -0.0042 -0.0067
v  0.0186 -0.0044 0.0030
v  0.0115 -0.0041 -0.0147
v  0.0168 -0.0067 -0.0216
v  0.0035 -0.0063 -0.0273
v  0.0025 -0.0038 -0.0184
v  -0.0108 -0.0058 -0.0255
v  -0.0072 -0.0036 -0.0172
v  -0.0222 -0.0055 -0.0169
v  -0.0150 -0.0033 -0.0114
v  -0.0219 -0.0308 -0.0175
v  -0.0277 -0.0306 -0.0040
v  -0.0279 -0.0053 -0.0036
v  -0.0177 -0.0033 0.0074
v  -0.0188 -0.0033 -0.0023
v  -0.0262 -0.0054 0.0108
v  -0.0175 -0.0057 0.0223
v  -0.0118 -0.0035 0.0152
v  -0.0043 -0.0061 0.0280
v  -0.0028 -0.0037 0.0190
v  -0.0038 -0.0315 0.0278
v  0.0148 -0.0043 0.0120
v  0.0069 -0.0040 0.0179
v  0.0263 -0.0323 -0.0105
v  0.0174 -0.0321 -0.0222
v  0.0041 -0.0317 -0.0280
v  -0.0103 -0.0311 -0.0262
v  -0.0259 -0.0307 0.0105
v  -0.0171 -0.0311 0.0220
# 59 vertices

vn 0.6623 0.5557 0.5025
vn 0.5492 0.6509 -0.5241
vn -0.6395 0.6711 -0.3751
vn -0.4847 0.5904 0.6454
vn 0.6246 -0.5990 0.5011
vn 0.8712 -0.4775 -0.1139
vn -0.6809 0.2894 -0.6727
vn -0.9000 -0.4198 0.1171
vn -0.5194 -0.5601 0.6454
vn 0.5325 0.2777 -0.7996
vn 0.2436 0.8387 0.4872
vn 0.4763 0.8117 0.3382
vn 0.0317 0.9995 0.0018
vn 0.6104 0.7883 0.0771
vn 0.5753 0.7874 -0.2212
vn 0.3905 0.8080 -0.4412
vn 0.1160 0.8375 -0.5340
vn -0.1545 0.8616 -0.4835
vn -0.3468 0.8859 -0.3082
vn -0.4367 0.8967 -0.0724
vn -0.4067 0.8967 0.1746
vn -0.2552 0.8897 0.3785
vn -0.0270 0.8704 0.4917
vn 0.3816 0.0007 0.9243
vn 0.7911 0.0158 0.6114
vn 0.6529 0.5613 0.5086
vn 0.3190 0.5566 0.7671
vn 0.9904 0.0288 0.1354
vn 0.8190 0.5617 0.1167
vn 0.7658 0.5666 -0.3043
vn 0.5593 0.8000 -0.2171
vn 0.5851 0.8065 0.0847
vn 0.3603 0.8222 -0.4407
vn 0.5157 0.5678 -0.6416
vn 0.1274 0.5728 -0.8098
vn 0.0885 0.8461 -0.5256
vn -0.2970 0.5783 -0.7598
vn -0.1694 0.8721 -0.4591
vn -0.6387 0.5790 -0.5067
vn -0.3531 0.8899 -0.2888
vn -0.7829 0.0049 -0.6221
vn -0.9894 -0.0077 -0.1449
vn -0.8097 0.5755 -0.1153
vn -0.4003 0.9001 0.1719
vn -0.4340 0.8987 -0.0630
vn -0.7561 0.5745 0.3135
vn -0.5006 0.5656 0.6554
vn -0.2650 0.8918 0.3667
vn -0.1053 0.5619 0.8204
vn -0.0496 0.8744 0.4827
vn -0.1345 -0.0114 0.9909
vn 0.4470 0.8256 0.3444
vn 0.2082 0.8517 0.4808
vn 0.9262 0.0352 -0.3755
vn 0.6207 0.0349 -0.7833
vn 0.1517 0.0290 -0.9880
vn -0.3657 0.0179 -0.9306
vn -0.9259 -0.0169 0.3775
vn -0.6120 -0.0181 0.7907
# 59 vertex normals

vt 0.0754 0.3034 0.0000
vt 0.0754 0.3953 0.0000
vt 0.0984 0.3953 0.0000
vt 0.0984 0.3035 0.0000
vt 0.0720 0.2107 0.0000
vt 0.0029 0.2107 0.0000
vt 0.0029 0.2984 0.0000
vt 0.0720 0.3763 0.0000
vt 0.0029 0.4499 0.0000
vt 0.0984 0.2583 0.0000
vt 0.0754 0.2583 0.0000
vt 0.0984 0.2106 0.0000
vt 0.0754 0.2106 0.0000
vt 0.0984 0.4558 0.0000
vt 0.0754 0.4558 0.0000
vt 0.0492 0.4526 0.0000
vt 0.0518 0.4572 0.0000
vt 0.0419 0.4598 0.0000
vt 0.0519 0.4625 0.0000
vt 0.0492 0.4671 0.0000
vt 0.0446 0.4697 0.0000
vt 0.0394 0.4698 0.0000
vt 0.0347 0.4671 0.0000
vt 0.0321 0.4626 0.0000
vt 0.0320 0.4573 0.0000
vt 0.0346 0.4526 0.0000
vt 0.0393 0.4499 0.0000
vt 0.0446 0.4500 0.0000
vt 0.0645 0.4367 0.0000
vt 0.0730 0.4512 0.0000
vt 0.0577 0.4551 0.0000
vt 0.0532 0.4476 0.0000
vt 0.0732 0.4679 0.0000
vt 0.0579 0.4638 0.0000
vt 0.0535 0.4714 0.0000
vt 0.0500 0.4679 0.0000
vt 0.0531 0.4626 0.0000
vt 0.0447 0.4710 0.0000
vt 0.0458 0.4758 0.0000
vt 0.0371 0.4757 0.0000
vt 0.0386 0.4710 0.0000
vt 0.0297 0.4713 0.0000
vt 0.0334 0.4679 0.0000
vt 0.0256 0.4638 0.0000
vt 0.0304 0.4627 0.0000
vt 0.0104 0.4683 0.0000
vt 0.0104 0.4514 0.0000
vt 0.0256 0.4553 0.0000
vt 0.0334 0.4515 0.0000
vt 0.0304 0.4567 0.0000
vt 0.0298 0.4480 0.0000
vt 0.0371 0.4436 0.0000
vt 0.0386 0.4484 0.0000
vt 0.0456 0.4435 0.0000
vt 0.0446 0.4484 0.0000
vt 0.0499 0.4283 0.0000
vt 0.0530 0.4565 0.0000
vt 0.0499 0.4512 0.0000
vt 0.0648 0.4825 0.0000
vt 0.0502 0.4910 0.0000
vt 0.0334 0.4911 0.0000
vt 0.0189 0.4827 0.0000
vt 0.0188 0.4369 0.0000
vt 0.0331 0.4284 0.0000
# 64 texture coords

g C16
usemtl Material__1011
s 32
f 1/1/1 2/2/2 3/3/3 4/4/4 
f 1/5/1 5/6/5 6/7/6 2/8/2 
f 7/9/7 8/7/8 3/8/3 
f 4/4/4 9/10/9 5/11/5 1/1/1 
f 6/7/6 10/9/10 2/8/2 
f 4/5/4 3/8/3 8/7/8 9/6/9 
f 9/10/9 8/12/8 6/13/6 5/11/5 
f 7/14/7 3/3/3 2/2/2 10/15/10 
f 11/16/11 12/17/12 13/18/13 
f 12/17/12 14/19/14 13/18/13 
f 14/19/14 15/20/15 13/18/13 
f 15/20/15 16/21/16 13/18/13 
f 16/21/16 17/22/17 13/18/13 
f 17/22/17 18/23/18 13/18/13 
f 18/23/18 19/24/19 13/18/13 
f 19/24/19 20/25/20 13/18/13 
f 20/25/20 21/26/21 13/18/13 
f 21/26/21 22/27/22 13/18/13 
f 22/27/22 23/28/23 13/18/13 
f 23/28/23 11/16/11 13/18/13 
f 24/29/24 25/30/25 26/31/26 27/32/27 
f 25/30/25 28/33/28 29/34/29 26/31/26 
f 30/35/30 31/36/31 32/37/32 29/34/29 
f 33/38/33 31/36/31 30/35/30 34/39/34 
f 35/40/35 36/41/36 33/38/33 34/39/34 
f 37/42/37 38/43/38 36/41/36 35/40/35 
f 39/44/39 40/45/40 38/43/38 37/42/37 
f 39/44/39 41/46/41 42/47/42 43/48/43 
f 44/49/44 45/50/45 43/48/43 46/51/46 
f 47/52/47 48/53/48 44/49/44 46/51/46 
f 49/54/49 50/55/50 48/53/48 47/52/47 
f 51/56/51 24/29/24 27/32/27 49/54/49 
f 26/31/26 52/57/52 53/58/53 27/32/27 
f 32/37/32 52/57/52 26/31/26 29/34/29 
f 54/59/54 30/35/30 29/34/29 28/33/28 
f 30/35/30 54/59/54 55/60/55 34/39/34 
f 34/39/34 55/60/55 56/61/56 35/40/35 
f 35/40/35 56/61/56 57/62/57 37/42/37 
f 37/42/37 57/62/57 41/46/41 39/44/39 
f 43/48/43 45/50/45 40/45/40 39/44/39 
f 43/48/43 42/47/42 58/63/58 46/51/46 
f 58/63/58 59/64/59 47/52/47 46/51/46 
f 59/64/59 51/56/51 49/54/49 47/52/47 
f 27/32/27 53/58/53 50/55/50 49/54/49 
f 12/17/12 11/16/11 53/58/53 52/57/52 
f 14/19/14 12/17/12 52/57/52 32/37/32 
f 31/36/31 15/20/15 14/19/14 32/37/32 
f 31/36/31 33/38/33 16/21/16 15/20/15 
f 36/41/36 17/22/17 16/21/16 33/38/33 
f 38/43/38 18/23/18 17/22/17 36/41/36 
f 40/45/40 19/24/19 18/23/18 38/43/38 
f 20/25/20 19/24/19 40/45/40 45/50/45 
f 45/50/45 44/49/44 21/26/21 20/25/20 
f 22/27/22 21/26/21 44/49/44 48/53/48 
f 48/53/48 50/55/50 23/28/23 22/27/22 
f 53/58/53 11/16/11 23/28/23 50/55/50 
# 42 polygons - 14 triangles

