# 3ds Max Wavefront OBJ Exporter v0.97b - (c)2007 guruware
# 创建的文件:03.11.2017 15:55:31

mtllib C24.mtl

#
# object C24
#

v  -0.0153 -0.0424 0.0051
v  -0.0171 0.0098 0.0052
v  -0.0174 0.0099 -0.0062
v  -0.0155 -0.0422 -0.0064
v  0.0027 -0.0417 0.0045
v  0.0021 -0.0237 0.0045
v  0.0003 0.0174 -0.0061
v  0.0018 -0.0236 -0.0070
v  0.0023 -0.0415 -0.0069
v  0.0007 0.0172 0.0053
v  0.0018 -0.0164 0.0047
v  0.0018 -0.0121 0.0122
v  -0.0004 -0.0002 0.0006
v  0.0016 -0.0048 0.0167
v  0.0013 0.0039 0.0167
v  0.0010 0.0115 0.0125
v  0.0005 0.0158 0.0051
v  0.0003 0.0160 -0.0036
v  0.0003 0.0117 -0.0110
v  0.0004 0.0043 -0.0155
v  0.0007 -0.0043 -0.0157
v  0.0011 -0.0118 -0.0114
v  0.0015 -0.0162 -0.0040
v  0.0326 -0.0262 0.0072
v  0.0327 -0.0191 0.0200
v  0.0074 -0.0201 0.0191
v  0.0074 -0.0271 0.0065
v  0.0326 -0.0067 0.0274
v  0.0072 -0.0077 0.0265
v  0.0067 0.0067 0.0266
v  0.0041 0.0045 0.0181
v  0.0045 -0.0053 0.0181
v  0.0037 0.0131 0.0133
v  0.0061 0.0194 0.0195
v  0.0055 0.0267 0.0072
v  0.0032 0.0180 0.0050
v  0.0050 0.0269 -0.0073
v  0.0031 0.0181 -0.0049
v  0.0049 0.0198 -0.0197
v  0.0029 0.0134 -0.0133
v  0.0302 0.0212 -0.0193
v  0.0304 0.0086 -0.0268
v  0.0052 0.0075 -0.0272
v  0.0035 -0.0049 -0.0185
v  0.0032 0.0049 -0.0183
v  0.0056 -0.0070 -0.0274
v  0.0063 -0.0196 -0.0203
v  0.0039 -0.0134 -0.0137
v  0.0069 -0.0269 -0.0080
v  0.0042 -0.0183 -0.0054
v  0.0323 -0.0261 -0.0074
v  0.0047 -0.0137 0.0130
v  0.0046 -0.0185 0.0044
v  0.0320 0.0079 0.0275
v  0.0314 0.0207 0.0203
v  0.0308 0.0281 0.0079
v  0.0302 0.0283 -0.0067
v  0.0309 -0.0060 -0.0270
v  0.0317 -0.0186 -0.0198
# 59 vertices

vn -0.5387 -0.6034 0.5880
vn -0.6655 0.4257 0.6131
vn -0.6836 0.4366 -0.5848
vn -0.5714 -0.5925 -0.5679
vn 0.6153 -0.5617 0.5530
vn 0.4756 0.0108 0.8796
vn -0.3113 0.7487 -0.5853
vn 0.4213 0.0174 -0.9068
vn 0.5785 -0.5526 -0.6000
vn -0.3008 0.7122 0.6342
vn -0.8228 -0.5408 0.1745
vn -0.7999 -0.4236 0.4251
vn -0.9989 -0.0366 0.0292
vn -0.7843 -0.1822 0.5930
vn -0.7926 0.1180 0.5982
vn -0.8203 0.3601 0.4444
vn -0.8532 0.4878 0.1848
vn -0.8763 0.4732 -0.0901
vn -0.8956 0.3246 -0.3042
vn -0.8994 0.1028 -0.4248
vn -0.8918 -0.1459 -0.4282
vn -0.8783 -0.3679 -0.3054
vn -0.8550 -0.5100 -0.0943
vn 0.0283 -0.9667 0.2544
vn 0.0046 -0.7121 0.7021
vn -0.5441 -0.6083 0.5778
vn -0.5322 -0.8196 0.2123
vn -0.0226 -0.2676 0.9633
vn -0.5562 -0.2424 0.7949
vn -0.5740 0.1815 0.7985
vn -0.8051 0.1157 0.5817
vn -0.8023 -0.1869 0.5669
vn -0.8345 0.3631 0.4145
vn -0.5860 0.5491 0.5959
vn -0.5970 0.7675 0.2336
vn -0.8616 0.4829 0.1564
vn -0.6019 0.7747 -0.1938
vn -0.8860 0.4508 -0.1081
vn -0.5956 0.5697 -0.5663
vn -0.8990 0.3061 -0.3131
vn -0.0256 0.7209 -0.6926
vn 0.0012 0.2762 -0.9611
vn -0.5804 0.2050 -0.7881
vn -0.8953 -0.1442 -0.4215
vn -0.9012 0.0930 -0.4234
vn -0.5663 -0.2268 -0.7924
vn -0.5463 -0.5995 -0.5850
vn -0.8807 -0.3550 -0.3135
vn -0.5368 -0.8157 -0.2154
vn -0.8593 -0.4982 -0.1155
vn 0.0414 -0.9631 -0.2659
vn -0.8137 -0.4262 0.3952
vn -0.8362 -0.5302 0.1403
vn -0.0446 0.2468 0.9680
vn -0.0575 0.6917 0.7199
vn -0.0588 0.9574 0.2826
vn -0.0471 0.9702 -0.2378
vn 0.0264 -0.2494 -0.9680
vn 0.0410 -0.7007 -0.7123
# 59 vertex normals

vt 0.0754 0.3034 0.0000
vt 0.0754 0.3953 0.0000
vt 0.0984 0.3953 0.0000
vt 0.0984 0.3035 0.0000
vt 0.0720 0.2107 0.0000
vt 0.0029 0.2107 0.0000
vt 0.0029 0.2984 0.0000
vt 0.0720 0.3763 0.0000
vt 0.0029 0.4499 0.0000
vt 0.0984 0.2583 0.0000
vt 0.0754 0.2583 0.0000
vt 0.0984 0.2106 0.0000
vt 0.0754 0.2106 0.0000
vt 0.0984 0.4558 0.0000
vt 0.0754 0.4558 0.0000
vt 0.0492 0.4526 0.0000
vt 0.0518 0.4572 0.0000
vt 0.0419 0.4598 0.0000
vt 0.0519 0.4625 0.0000
vt 0.0492 0.4671 0.0000
vt 0.0446 0.4697 0.0000
vt 0.0394 0.4698 0.0000
vt 0.0347 0.4671 0.0000
vt 0.0321 0.4626 0.0000
vt 0.0320 0.4573 0.0000
vt 0.0346 0.4526 0.0000
vt 0.0393 0.4499 0.0000
vt 0.0446 0.4500 0.0000
vt 0.0645 0.4367 0.0000
vt 0.0730 0.4512 0.0000
vt 0.0577 0.4551 0.0000
vt 0.0532 0.4476 0.0000
vt 0.0732 0.4679 0.0000
vt 0.0579 0.4638 0.0000
vt 0.0535 0.4714 0.0000
vt 0.0500 0.4679 0.0000
vt 0.0531 0.4626 0.0000
vt 0.0447 0.4710 0.0000
vt 0.0458 0.4758 0.0000
vt 0.0371 0.4757 0.0000
vt 0.0386 0.4710 0.0000
vt 0.0297 0.4713 0.0000
vt 0.0334 0.4679 0.0000
vt 0.0256 0.4638 0.0000
vt 0.0304 0.4627 0.0000
vt 0.0104 0.4683 0.0000
vt 0.0104 0.4514 0.0000
vt 0.0256 0.4553 0.0000
vt 0.0334 0.4515 0.0000
vt 0.0304 0.4567 0.0000
vt 0.0298 0.4480 0.0000
vt 0.0371 0.4436 0.0000
vt 0.0386 0.4484 0.0000
vt 0.0456 0.4435 0.0000
vt 0.0446 0.4484 0.0000
vt 0.0499 0.4283 0.0000
vt 0.0530 0.4565 0.0000
vt 0.0499 0.4512 0.0000
vt 0.0648 0.4825 0.0000
vt 0.0502 0.4910 0.0000
vt 0.0334 0.4911 0.0000
vt 0.0189 0.4827 0.0000
vt 0.0188 0.4369 0.0000
vt 0.0331 0.4284 0.0000
# 64 texture coords

g C24
usemtl Material__1011
s 32
f 1/1/1 2/2/2 3/3/3 4/4/4 
f 1/5/1 5/6/5 6/7/6 2/8/2 
f 7/9/7 8/7/8 3/8/3 
f 4/4/4 9/10/9 5/11/5 1/1/1 
f 6/7/6 10/9/10 2/8/2 
f 4/5/4 3/8/3 8/7/8 9/6/9 
f 9/10/9 8/12/8 6/13/6 5/11/5 
f 7/14/7 3/3/3 2/2/2 10/15/10 
f 11/16/11 12/17/12 13/18/13 
f 12/17/12 14/19/14 13/18/13 
f 14/19/14 15/20/15 13/18/13 
f 15/20/15 16/21/16 13/18/13 
f 16/21/16 17/22/17 13/18/13 
f 17/22/17 18/23/18 13/18/13 
f 18/23/18 19/24/19 13/18/13 
f 19/24/19 20/25/20 13/18/13 
f 20/25/20 21/26/21 13/18/13 
f 21/26/21 22/27/22 13/18/13 
f 22/27/22 23/28/23 13/18/13 
f 23/28/23 11/16/11 13/18/13 
f 24/29/24 25/30/25 26/31/26 27/32/27 
f 25/30/25 28/33/28 29/34/29 26/31/26 
f 30/35/30 31/36/31 32/37/32 29/34/29 
f 33/38/33 31/36/31 30/35/30 34/39/34 
f 35/40/35 36/41/36 33/38/33 34/39/34 
f 37/42/37 38/43/38 36/41/36 35/40/35 
f 39/44/39 40/45/40 38/43/38 37/42/37 
f 39/44/39 41/46/41 42/47/42 43/48/43 
f 44/49/44 45/50/45 43/48/43 46/51/46 
f 47/52/47 48/53/48 44/49/44 46/51/46 
f 49/54/49 50/55/50 48/53/48 47/52/47 
f 51/56/51 24/29/24 27/32/27 49/54/49 
f 26/31/26 52/57/52 53/58/53 27/32/27 
f 32/37/32 52/57/52 26/31/26 29/34/29 
f 54/59/54 30/35/30 29/34/29 28/33/28 
f 30/35/30 54/59/54 55/60/55 34/39/34 
f 34/39/34 55/60/55 56/61/56 35/40/35 
f 35/40/35 56/61/56 57/62/57 37/42/37 
f 37/42/37 57/62/57 41/46/41 39/44/39 
f 43/48/43 45/50/45 40/45/40 39/44/39 
f 43/48/43 42/47/42 58/63/58 46/51/46 
f 58/63/58 59/64/59 47/52/47 46/51/46 
f 59/64/59 51/56/51 49/54/49 47/52/47 
f 27/32/27 53/58/53 50/55/50 49/54/49 
f 12/17/12 11/16/11 53/58/53 52/57/52 
f 14/19/14 12/17/12 52/57/52 32/37/32 
f 31/36/31 15/20/15 14/19/14 32/37/32 
f 31/36/31 33/38/33 16/21/16 15/20/15 
f 36/41/36 17/22/17 16/21/16 33/38/33 
f 38/43/38 18/23/18 17/22/17 36/41/36 
f 40/45/40 19/24/19 18/23/18 38/43/38 
f 20/25/20 19/24/19 40/45/40 45/50/45 
f 45/50/45 44/49/44 21/26/21 20/25/20 
f 22/27/22 21/26/21 44/49/44 48/53/48 
f 48/53/48 50/55/50 23/28/23 22/27/22 
f 53/58/53 11/16/11 23/28/23 50/55/50 
# 42 polygons - 14 triangles

