# 3ds Max Wavefront OBJ Exporter v0.97b - (c)2007 guruware
# 创建的文件:06.11.2017 09:28:31

mtllib C6.mtl

#
# object C6
#

v  -0.0367 0.0185 0.0118
v  -0.0369 0.0185 -0.0110
v  -0.0401 0.0006 -0.0110
v  -0.0398 -0.0001 0.0117
v  0.0058 0.0369 0.0116
v  0.0181 0.0342 0.0114
v  0.0177 0.0342 -0.0112
v  0.0057 0.0369 -0.0114
v  0.0282 0.0284 0.0114
v  0.0280 0.0284 -0.0112
v  -0.0212 0.0187 -0.0133
v  -0.0204 0.0008 -0.0131
v  -0.0261 0.0008 -0.0132
v  -0.0276 0.0185 -0.0131
v  -0.0201 -0.0000 0.0141
v  -0.0210 0.0187 0.0141
v  -0.0303 0.0185 0.0141
v  -0.0318 -0.0001 0.0141
v  -0.0187 0.0321 -0.0133
v  -0.0068 0.0350 -0.0134
v  -0.0075 0.0189 -0.0135
v  -0.0067 0.0002 0.0140
v  -0.0071 0.0189 0.0139
v  0.0070 0.0191 -0.0136
v  0.0072 0.0011 -0.0136
v  -0.0070 0.0010 -0.0135
v  0.0073 0.0191 0.0137
v  0.0060 0.0350 0.0137
v  -0.0066 0.0350 0.0139
v  0.0207 0.0191 -0.0134
v  0.0205 0.0011 -0.0134
v  0.0210 0.0191 0.0135
v  0.0075 0.0003 0.0137
v  0.0208 0.0003 0.0135
v  0.0229 0.0259 -0.0135
v  0.0266 0.0188 -0.0136
v  0.0177 0.0321 -0.0134
v  0.0306 0.0189 0.0133
v  0.0247 0.0273 0.0136
v  0.0179 0.0321 0.0136
v  -0.0247 0.0271 -0.0134
v  -0.0284 0.0282 -0.0111
v  -0.0189 0.0341 -0.0112
v  -0.0186 0.0321 0.0141
v  -0.0188 0.0341 0.0115
v  -0.0281 0.0282 0.0116
v  -0.0244 0.0271 0.0140
v  -0.0069 0.0369 -0.0113
v  -0.0067 0.0369 0.0116
v  0.0058 0.0350 -0.0135
v  0.0051 0.0903 -0.0101
v  -0.0058 0.0903 -0.0100
v  -0.0056 0.0903 0.0110
v  0.0052 0.0903 0.0110
v  -0.0067 0.0880 0.0120
v  -0.0069 0.0880 -0.0109
v  0.0058 0.0880 0.0121
v  0.0056 0.0880 -0.0109
v  0.0366 0.0191 -0.0114
v  0.0368 0.0191 0.0113
v  0.0262 0.0012 -0.0135
v  0.0322 0.0004 0.0132
v  0.0398 0.0012 -0.0116
v  0.0401 0.0006 0.0110
# 64 vertices

vn -0.9355 0.3530 -0.0119
vn -0.2874 0.3342 -0.8976
vn -0.3194 0.1238 -0.9395
vn -0.9916 0.1295 -0.0061
vn -0.0478 0.6697 0.7411
vn 0.0633 0.8678 0.4929
vn 0.5023 0.8540 -0.1352
vn 0.6808 0.6645 -0.3082
vn 0.1974 0.6741 0.7118
vn 0.7510 0.6502 -0.1148
vn 0.5676 -0.0042 -0.8233
vn 0.5648 -0.0040 -0.8252
vn 0.4992 0.0032 -0.8665
vn 0.4541 0.0510 -0.8895
vn -0.5711 0.0013 0.8209
vn -0.5744 0.0037 0.8185
vn -0.7313 0.1197 0.6715
vn -0.7043 0.0198 0.7096
vn 0.3688 0.3797 -0.8484
vn 0.4706 0.4259 -0.7727
vn 0.5662 0.0003 -0.8243
vn -0.5632 0.0016 0.8263
vn -0.5630 0.0006 0.8265
vn 0.5776 0.0018 -0.8163
vn 0.5778 -0.0018 -0.8162
vn 0.5650 -0.0039 -0.8251
vn -0.5630 0.0004 0.8265
vn -0.4654 0.4301 0.7736
vn -0.5505 0.4491 0.7037
vn 0.5716 0.0007 -0.8205
vn 0.5715 -0.0020 -0.8206
vn -0.5646 -0.0048 0.8254
vn -0.5626 0.0016 0.8267
vn -0.5599 0.0000 0.8286
vn 0.6853 0.1784 -0.7061
vn 0.6653 0.0679 -0.7435
vn 0.6707 0.3441 -0.6571
vn -0.3979 0.0972 0.9122
vn -0.3721 0.2597 0.8911
vn -0.3825 0.3779 0.8431
vn 0.3727 0.2330 -0.8982
vn -0.1909 0.6379 -0.7461
vn -0.0800 0.8588 -0.5060
vn -0.6687 0.4097 0.6205
vn -0.4918 0.8679 0.0697
vn -0.7438 0.6679 0.0257
vn -0.7316 0.2811 0.6211
vn 0.0467 0.6643 -0.7460
vn -0.6783 0.6767 0.2863
vn 0.5642 0.4262 -0.7071
vn 0.6849 0.7250 -0.0724
vn -0.0850 0.7759 -0.6252
vn -0.6044 0.7886 0.1128
vn 0.1706 0.7365 0.6545
vn -0.9523 0.2540 0.1690
vn -0.1822 0.2470 -0.9517
vn 0.1538 0.2020 0.9672
vn 0.9619 0.1931 -0.1935
vn 0.9344 0.3526 -0.0518
vn 0.3211 0.3572 0.8771
vn 0.6343 0.0092 -0.7730
vn -0.4364 0.0131 0.8997
vn 0.9898 0.1358 -0.0420
vn 0.3384 0.1321 0.9317
# 64 vertex normals

vt 0.0025 0.9728 0.0000
vt 0.0232 0.9728 0.0000
vt 0.0232 0.9977 0.0000
vt 0.0025 0.9977 0.0000
vt 0.0025 0.8215 0.0000
vt 0.0025 0.8071 0.0000
vt 0.0232 0.8072 0.0000
vt 0.0232 0.8215 0.0000
vt 0.0025 0.7930 0.0000
vt 0.0232 0.7931 0.0000
vt 0.0620 0.7946 0.0000
vt 0.0637 0.7558 0.0000
vt 0.0530 0.7558 0.0000
vt 0.0501 0.7946 0.0000
vt 0.0439 0.7946 0.0000
vt 0.0414 0.7558 0.0000
vt 0.0668 0.8229 0.0000
vt 0.0898 0.8291 0.0000
vt 0.0886 0.7946 0.0000
vt 0.0896 0.7558 0.0000
vt 0.0887 0.7946 0.0000
vt 0.1164 0.7946 0.0000
vt 0.1167 0.7558 0.0000
vt 0.1141 0.8291 0.0000
vt 0.1429 0.7946 0.0000
vt 0.1425 0.7558 0.0000
vt 0.1426 0.7946 0.0000
vt 0.1422 0.7558 0.0000
vt 0.1471 0.8098 0.0000
vt 0.1543 0.7946 0.0000
vt 0.1371 0.8230 0.0000
vt 0.1614 0.7946 0.0000
vt 0.1498 0.8126 0.0000
vt 0.1369 0.8230 0.0000
vt 0.0554 0.8123 0.0000
vt 0.0484 0.8144 0.0000
vt 0.0664 0.8270 0.0000
vt 0.0897 0.8332 0.0000
vt 0.1138 0.8332 0.0000
vt 0.1372 0.8274 0.0000
vt 0.1371 0.8274 0.0000
vt 0.1567 0.8149 0.0000
vt 0.0221 0.8687 0.0000
vt 0.0221 0.8812 0.0000
vt 0.0032 0.8812 0.0000
vt 0.0031 0.8687 0.0000
vt 0.0232 0.9286 0.0000
vt 0.0232 0.9431 0.0000
vt 0.0025 0.9431 0.0000
vt 0.0025 0.9287 0.0000
vt 0.0025 0.8846 0.0000
vt 0.0232 0.8846 0.0000
vt 0.0897 0.9034 0.0000
vt 0.1138 0.9034 0.0000
vt 0.0232 0.8656 0.0000
vt 0.0025 0.8656 0.0000
vt 0.0232 0.7772 0.0000
vt 0.0025 0.7772 0.0000
vt 0.1731 0.7946 0.0000
vt 0.0025 0.9565 0.0000
vt 0.0232 0.9565 0.0000
vt 0.0320 0.7946 0.0000
vt 0.0260 0.7558 0.0000
vt 0.1123 0.9082 0.0000
vt 0.0918 0.9082 0.0000
vt 0.1536 0.7558 0.0000
vt 0.1643 0.7558 0.0000
vt 0.0232 0.7556 0.0000
vt 0.0025 0.7556 0.0000
vt 0.1794 0.7558 0.0000
# 70 texture coords

g C6
usemtl Material__1011
s 32
f 1/1/1 2/2/2 3/3/3 4/4/4 
f 5/5/5 6/6/6 7/7/7 8/8/8 
f 6/6/6 9/9/9 10/10/10 7/7/7 
f 11/11/11 12/12/12 13/13/13 14/14/14 
f 15/12/15 16/11/16 17/15/17 18/16/18 
f 19/17/19 20/18/20 21/19/21 11/11/11 
f 15/12/15 22/20/22 23/21/23 16/11/16 
f 24/22/24 25/23/25 26/20/26 21/19/21 
f 23/21/23 27/22/27 28/24/28 29/18/29 
f 24/22/24 30/25/30 31/26/31 25/23/25 
f 32/27/32 27/22/27 33/23/33 34/28/34 
f 35/29/35 36/30/36 30/25/30 37/31/37 
f 38/32/38 39/33/39 40/34/40 32/27/32 
f 41/35/41 42/36/42 43/37/43 19/17/19 
f 44/17/44 45/37/45 46/36/46 47/35/47 
f 19/17/19 43/37/43 48/38/48 20/18/20 
f 49/38/49 45/37/45 44/17/44 29/18/29 
f 50/24/50 20/18/20 48/38/48 8/39/8 
f 28/24/28 5/39/5 49/38/49 29/18/29 
f 7/40/7 37/31/37 50/24/50 8/39/8 
f 28/24/28 40/34/40 6/41/6 5/39/5 
f 10/42/10 35/29/35 37/31/37 7/40/7 
f 6/41/6 40/34/40 39/33/39 9/42/9 
f 51/43/51 52/44/52 53/45/53 54/46/54 
f 48/47/48 43/48/43 45/49/45 49/50/49 
f 49/50/49 55/51/55 56/52/56 48/47/48 
f 55/53/55 49/38/49 5/39/5 57/54/57 
f 5/5/5 8/8/8 58/55/58 57/56/57 
f 56/53/56 58/54/58 8/39/8 48/38/48 
f 59/57/59 10/10/10 9/9/9 60/58/60 
f 35/29/35 10/42/10 59/59/59 36/30/36 
f 60/59/60 9/42/9 39/33/39 38/32/38 
f 46/60/46 45/49/45 43/48/43 42/61/42 
f 2/62/2 14/14/14 13/13/13 3/63/3 
f 17/15/17 47/35/47 46/36/46 1/62/1 
f 55/51/55 53/45/53 52/44/52 56/52/56 
f 55/53/55 57/54/57 54/64/54 53/65/53 
f 58/55/58 51/43/51 54/46/54 57/56/57 
f 51/64/51 58/54/58 56/53/56 52/65/52 
f 42/61/42 2/2/2 1/1/1 46/60/46 
f 41/35/41 19/17/19 11/11/11 14/14/14 
f 44/17/44 47/35/47 17/15/17 16/11/16 
f 12/12/12 11/11/11 21/19/21 26/20/26 
f 23/21/23 29/18/29 44/17/44 16/11/16 
f 50/24/50 24/22/24 21/19/21 20/18/20 
f 27/22/27 23/21/23 22/20/22 33/23/33 
f 37/31/37 30/25/30 24/22/24 50/24/50 
f 27/22/27 32/27/32 40/34/40 28/24/28 
f 30/25/30 36/30/36 61/66/61 31/26/31 
f 34/28/34 62/67/62 38/32/38 32/27/32 
f 63/68/63 59/57/59 60/58/60 64/69/64 
f 61/66/61 36/30/36 59/59/59 63/70/63 
f 62/67/62 64/70/64 60/59/60 38/32/38 
f 2/62/2 42/36/42 41/35/41 14/14/14 
f 1/62/1 4/63/4 18/16/18 17/15/17 
# 55 polygons

