# 3ds Max Wavefront OBJ Exporter v0.97b - (c)2007 guruware
# 创建的文件:30.10.2017 15:33:51

mtllib F1.mtl

#
# object F1
#

v  -0.0063 -0.0113 0.0003
v  -0.0002 -0.0109 0.0015
v  -0.0040 0.0003 0.0013
v  0.0048 -0.0075 0.0027
v  0.0074 -0.0019 0.0033
v  0.0070 0.0042 0.0032
v  0.0036 0.0093 0.0024
v  -0.0017 0.0119 0.0011
v  -0.0077 0.0116 -0.0001
v  -0.0126 0.0082 -0.0013
v  -0.0154 0.0027 -0.0018
v  -0.0149 -0.0034 -0.0017
v  -0.0117 -0.0085 -0.0009
v  -0.0030 -0.0173 -0.0144
v  0.0059 -0.0166 -0.0124
v  0.0016 -0.0162 0.0028
v  -0.0073 -0.0169 0.0008
v  0.0133 -0.0117 -0.0110
v  0.0090 -0.0112 0.0044
v  0.0128 -0.0031 0.0052
v  0.0123 0.0060 0.0050
v  0.0073 0.0135 0.0040
v  -0.0006 0.0175 0.0022
v  -0.0093 0.0168 0.0002
v  -0.0051 0.0167 -0.0151
v  -0.0126 0.0116 -0.0167
v  -0.0167 0.0119 -0.0013
v  -0.0207 0.0037 -0.0022
v  -0.0201 -0.0053 -0.0021
v  -0.0152 -0.0128 -0.0010
v  -0.0111 -0.0133 -0.0163
v  0.0353 -0.0056 -0.0078
v  0.0409 -0.0017 -0.0069
v  0.0352 -0.0017 0.0083
v  0.0297 -0.0056 0.0074
v  0.0400 0.0026 -0.0072
v  0.0343 0.0025 0.0080
v  0.0331 0.0061 -0.0086
v  0.0275 0.0060 0.0066
v  0.0117 0.0133 -0.0113
v  0.0038 0.0174 -0.0131
v  -0.0325 0.0006 -0.0198
v  -0.0377 0.0006 -0.0047
v  -0.0337 0.0039 -0.0040
v  -0.0284 0.0040 -0.0191
v  -0.0369 -0.0032 -0.0045
v  -0.0316 -0.0031 -0.0197
v  -0.0262 -0.0063 -0.0184
v  -0.0316 -0.0063 -0.0032
v  0.0098 -0.0030 0.0167
v  0.0322 -0.0017 0.0198
v  0.0313 0.0025 0.0195
v  0.0093 0.0061 0.0165
v  -0.0237 0.0037 0.0093
v  -0.0409 0.0005 0.0068
v  -0.0400 -0.0032 0.0070
v  -0.0231 -0.0053 0.0094
# 57 vertices

vn -0.2021 0.0556 0.9778
vn -0.2318 0.0550 0.9712
vn -0.2170 0.0049 0.9762
vn -0.2556 0.0351 0.9661
vn -0.2620 0.0113 0.9650
vn -0.2602 -0.0115 0.9655
vn -0.2532 -0.0364 0.9667
vn -0.2282 -0.0505 0.9723
vn -0.1967 -0.0536 0.9790
vn -0.1704 -0.0344 0.9848
vn -0.1554 -0.0069 0.9878
vn -0.1670 0.0210 0.9857
vn -0.1809 0.0441 0.9825
vn -0.1820 -0.9831 -0.0216
vn 0.3119 -0.9431 0.1148
vn 0.0607 -0.6642 0.7451
vn -0.2927 -0.7000 0.6514
vn 0.3846 -0.9134 0.1333
vn 0.0655 -0.5635 0.8235
vn -0.4878 -0.3455 0.8017
vn -0.4429 0.3254 0.8355
vn 0.0716 0.6036 0.7941
vn -0.0251 0.7071 0.7067
vn -0.3829 0.6853 0.6195
vn -0.3024 0.9487 -0.0919
vn -0.4735 0.8691 -0.1433
vn -0.4438 0.5984 0.6670
vn 0.1413 0.2602 0.9552
vn 0.1566 -0.1768 0.9717
vn -0.4061 -0.6117 0.6790
vn -0.4075 -0.9079 -0.0982
vn 0.4193 -0.8940 0.1582
vn 0.8840 -0.3298 0.3314
vn 0.8037 -0.4553 0.3832
vn 0.1879 -0.6660 0.7219
vn 0.7546 0.5916 0.2840
vn 0.6927 0.6629 0.2842
vn 0.3795 0.9152 0.1358
vn 0.1811 0.6835 0.7071
vn 0.3722 0.9218 0.1083
vn 0.1958 0.9795 0.0472
vn -0.8903 0.3332 -0.3104
vn -0.8842 0.4368 -0.1658
vn -0.5066 0.6290 0.5897
vn -0.4996 0.8498 -0.1678
vn -0.7202 -0.6772 -0.1507
vn -0.7471 -0.6110 -0.2617
vn -0.4229 -0.8964 -0.1328
vn -0.4275 -0.6168 0.6609
vn -0.6479 -0.5988 0.4708
vn 0.5230 -0.5006 0.6899
vn 0.4308 0.5900 0.6829
vn -0.6587 0.6073 0.4441
vn 0.3762 0.6550 0.6553
vn -0.7928 0.4379 0.4239
vn -0.6405 -0.5945 0.4861
vn 0.4363 -0.6065 0.6647
# 57 vertex normals

vt 0.7430 0.4244 0.0000
vt 0.7493 0.4244 0.0000
vt 0.7461 0.4362 0.0000
vt 0.7548 0.4276 0.0000
vt 0.7583 0.4332 0.0000
vt 0.7583 0.4399 0.0000
vt 0.7545 0.4451 0.0000
vt 0.7489 0.4481 0.0000
vt 0.7427 0.4480 0.0000
vt 0.7373 0.4447 0.0000
vt 0.7335 0.4393 0.0000
vt 0.7336 0.4327 0.0000
vt 0.7375 0.4275 0.0000
vt 0.7635 0.3667 0.0000
vt 0.7718 0.3653 0.0000
vt 0.7734 0.3798 0.0000
vt 0.7652 0.3811 0.0000
vt 0.7800 0.3640 0.0000
vt 0.7816 0.3785 0.0000
vt 0.7644 0.4301 0.0000
vt 0.7586 0.4232 0.0000
vt 0.7644 0.4431 0.0000
vt 0.7582 0.4494 0.0000
vt 0.7505 0.4538 0.0000
vt 0.7415 0.4536 0.0000
vt 0.8542 0.3789 0.0000
vt 0.8550 0.3643 0.0000
vt 0.8634 0.3652 0.0000
vt 0.8625 0.3796 0.0000
vt 0.7340 0.4488 0.0000
vt 0.7277 0.4423 0.0000
vt 0.7279 0.4294 0.0000
vt 0.7344 0.4232 0.0000
vt 0.7552 0.3682 0.0000
vt 0.7570 0.3826 0.0000
vt 0.7510 0.4187 0.0000
vt 0.7420 0.4187 0.0000
vt 0.8005 0.3590 0.0000
vt 0.8067 0.3578 0.0000
vt 0.8071 0.3727 0.0000
vt 0.8010 0.3739 0.0000
vt 0.8107 0.3577 0.0000
vt 0.8111 0.3726 0.0000
vt 0.8179 0.3586 0.0000
vt 0.8182 0.3735 0.0000
vt 0.8377 0.3771 0.0000
vt 0.8384 0.3625 0.0000
vt 0.8467 0.3635 0.0000
vt 0.8460 0.3780 0.0000
vt 0.8844 0.3682 0.0000
vt 0.8845 0.3830 0.0000
vt 0.8796 0.3824 0.0000
vt 0.8795 0.3677 0.0000
vt 0.8880 0.3829 0.0000
vt 0.8879 0.3681 0.0000
vt 0.7345 0.3729 0.0000
vt 0.7403 0.3719 0.0000
vt 0.7413 0.3867 0.0000
vt 0.7355 0.3877 0.0000
vt 0.7891 0.4504 0.0000
vt 0.7801 0.4504 0.0000
vt 0.7708 0.4346 0.0000
vt 0.7920 0.4324 0.0000
vt 0.7915 0.4376 0.0000
vt 0.7701 0.4393 0.0000
vt 0.7804 0.4195 0.0000
vt 0.7880 0.4201 0.0000
vt 0.7096 0.4220 0.0000
vt 0.7167 0.4221 0.0000
vt 0.7198 0.4382 0.0000
vt 0.7032 0.4382 0.0000
vt 0.7038 0.4336 0.0000
vt 0.7200 0.4332 0.0000
vt 0.7150 0.4502 0.0000
vt 0.7091 0.4498 0.0000
vt 0.8040 0.4327 0.0000
vt 0.8040 0.4372 0.0000
vt 0.6913 0.4379 0.0000
vt 0.6913 0.4340 0.0000
# 79 texture coords

g F1
usemtl Material__1011
s 32
f 1/1/1 2/2/2 3/3/3 
f 2/2/2 4/4/4 3/3/3 
f 4/4/4 5/5/5 3/3/3 
f 5/5/5 6/6/6 3/3/3 
f 6/6/6 7/7/7 3/3/3 
f 7/7/7 8/8/8 3/3/3 
f 8/8/8 9/9/9 3/3/3 
f 9/9/9 10/10/10 3/3/3 
f 10/10/10 11/11/11 3/3/3 
f 11/11/11 12/12/12 3/3/3 
f 12/12/12 13/13/13 3/3/3 
f 13/13/13 1/1/1 3/3/3 
f 14/14/14 15/15/15 16/16/16 17/17/17 
f 15/15/15 18/18/18 19/19/19 16/16/16 
f 20/20/20 5/5/5 4/4/4 19/21/19 
f 6/6/6 5/5/5 20/20/20 21/22/21 
f 6/6/6 21/22/21 22/23/22 7/7/7 
f 23/24/23 8/8/8 7/7/7 22/23/22 
f 23/24/23 24/25/24 9/9/9 8/8/8 
f 24/26/24 25/27/25 26/28/26 27/29/27 
f 11/11/11 10/10/10 27/30/27 28/31/28 
f 11/11/11 28/31/28 29/32/29 12/12/12 
f 12/12/12 29/32/29 30/33/30 13/13/13 
f 31/34/31 14/14/14 17/17/17 30/35/30 
f 16/36/16 2/2/2 1/1/1 17/37/17 
f 4/4/4 2/2/2 16/36/16 19/21/19 
f 32/38/32 33/39/33 34/40/34 35/41/35 
f 36/42/36 37/43/37 34/40/34 33/39/33 
f 37/43/37 36/42/36 38/44/38 39/45/39 
f 22/46/22 40/47/40 41/48/41 23/49/23 
f 23/49/23 41/48/41 25/27/25 24/26/24 
f 24/25/24 27/30/27 10/10/10 9/9/9 
f 42/50/42 43/51/43 44/52/44 45/53/45 
f 46/54/46 43/51/43 42/50/42 47/55/47 
f 47/56/47 48/57/48 49/58/49 46/59/46 
f 30/33/30 17/37/17 1/1/1 13/13/13 
f 35/41/35 19/19/19 18/18/18 32/38/32 
f 39/45/39 38/44/38 40/47/40 22/46/22 
f 21/22/21 37/60/37 39/61/39 22/23/22 
f 50/62/50 51/63/51 52/64/52 53/65/53 
f 19/21/19 35/66/35 34/67/34 20/20/20 
f 45/53/45 44/52/44 27/29/27 26/28/26 
f 48/57/48 31/34/31 30/35/30 49/58/49 
f 46/68/46 49/69/49 30/33/30 29/32/29 
f 54/70/54 55/71/55 56/72/56 57/73/57 
f 27/30/27 44/74/44 43/75/43 28/31/28 
f 53/65/53 21/22/21 20/20/20 50/62/50 
f 51/63/51 50/62/50 20/20/20 34/67/34 
f 34/76/34 37/77/37 52/64/52 51/63/51 
f 52/64/52 37/60/37 21/22/21 53/65/53 
f 57/73/57 29/32/29 28/31/28 54/70/54 
f 54/70/54 28/31/28 43/75/43 55/71/55 
f 43/78/43 46/79/46 56/72/56 55/71/55 
f 57/73/57 56/72/56 46/68/46 29/32/29 
# 42 polygons - 12 triangles

