# 3ds Max Wavefront OBJ Exporter v0.97b - (c)2007 guruware
# 创建的文件:03.11.2017 15:15:55

mtllib G12.mtl

#
# object G12
#

v  0.0204 -0.0336 0.0042
v  0.0204 -0.0337 -0.0057
v  0.0229 0.0110 -0.0050
v  0.0229 0.0109 0.0048
v  0.0050 -0.0328 -0.0055
v  0.0058 -0.0174 -0.0052
v  0.0079 0.0177 0.0046
v  0.0058 -0.0175 0.0046
v  0.0051 -0.0328 0.0043
v  0.0077 0.0176 -0.0052
v  0.0061 -0.0158 -0.0045
v  0.0063 -0.0116 -0.0115
v  0.0085 -0.0008 -0.0004
v  0.0066 -0.0047 -0.0155
v  0.0071 0.0034 -0.0155
v  0.0076 0.0104 -0.0113
v  0.0078 0.0144 -0.0043
v  0.0079 0.0143 0.0038
v  0.0077 0.0103 0.0106
v  0.0073 0.0033 0.0147
v  0.0069 -0.0048 0.0147
v  0.0065 -0.0118 0.0106
v  0.0063 -0.0157 0.0036
v  -0.0180 -0.0224 -0.0076
v  -0.0177 -0.0161 -0.0183
v  0.0039 -0.0173 -0.0173
v  0.0036 -0.0236 -0.0066
v  0.0044 -0.0067 -0.0234
v  -0.0173 -0.0054 -0.0245
v  0.0051 0.0057 -0.0233
v  0.0058 0.0164 -0.0170
v  0.0062 0.0225 -0.0063
v  0.0063 0.0224 0.0061
v  0.0060 0.0162 0.0166
v  -0.0156 0.0178 0.0159
v  -0.0161 0.0069 0.0222
v  0.0055 0.0055 0.0229
v  0.0048 -0.0069 0.0228
v  0.0042 -0.0175 0.0165
v  0.0038 -0.0236 0.0058
v  -0.0179 -0.0225 0.0050
v  -0.0166 0.0071 -0.0244
v  -0.0159 0.0179 -0.0181
v  -0.0155 0.0241 -0.0073
v  -0.0153 0.0240 0.0052
v  -0.0167 -0.0056 0.0220
v  -0.0175 -0.0162 0.0158
# 47 vertices

vn 0.3741 -0.6112 0.6975
vn 0.6774 -0.6056 -0.4176
vn 0.8207 0.4213 -0.3860
vn 0.4921 0.4134 0.7661
vn -0.4353 -0.5414 -0.7193
vn -0.1998 0.0344 -0.9792
vn 0.1416 0.7340 0.6642
vn -0.6653 0.0098 0.7465
vn -0.7346 -0.5512 0.3956
vn 0.4821 0.7144 -0.5072
vn 0.9513 -0.2279 0.2077
vn 0.9746 -0.1788 0.1349
vn 0.9631 -0.0561 0.2632
vn 0.9908 -0.1026 0.0885
vn 0.9959 -0.0105 0.0904
vn 0.9872 0.0755 0.1402
vn 0.9685 0.1199 0.2181
vn 0.9449 0.1168 0.3057
vn 0.9205 0.0704 0.3843
vn 0.9044 -0.0079 0.4266
vn 0.9005 -0.0998 0.4232
vn 0.9077 -0.1801 0.3791
vn 0.9278 -0.2249 0.2976
vn 0.0362 -0.9616 -0.2722
vn 0.1903 -0.6987 -0.6896
vn 0.6890 -0.6025 -0.4028
vn 0.5681 -0.8205 -0.0636
vn 0.7632 -0.2399 -0.5999
vn 0.2946 -0.2523 -0.9217
vn 0.7883 0.1792 -0.5887
vn 0.7477 0.5434 -0.3817
vn 0.6567 0.7537 -0.0274
vn 0.5378 0.7537 0.3778
vn 0.4177 0.5469 0.7256
vn -0.1663 0.7107 0.6835
vn -0.2785 0.2599 0.9246
vn 0.3330 0.1788 0.9258
vn 0.3115 -0.2516 0.9163
vn 0.3530 -0.6157 0.7045
vn 0.4492 -0.8235 0.3464
vn -0.1272 -0.9661 0.2246
vn 0.3239 0.2595 -0.9098
vn 0.2726 0.7020 -0.6580
vn 0.1508 0.9615 -0.2298
vn -0.0104 0.9647 0.2632
vn -0.3105 -0.2666 0.9124
vn -0.2537 -0.7103 0.6566
# 47 vertex normals

vt 0.1981 0.3042 0.0000
vt 0.1752 0.3041 0.0000
vt 0.1752 0.3956 0.0000
vt 0.1981 0.3956 0.0000
vt 0.1718 0.2119 0.0000
vt 0.1031 0.2119 0.0000
vt 0.1031 0.2991 0.0000
vt 0.1718 0.3766 0.0000
vt 0.1031 0.4499 0.0000
vt 0.1981 0.2592 0.0000
vt 0.1752 0.2592 0.0000
vt 0.1981 0.2118 0.0000
vt 0.1752 0.2118 0.0000
vt 0.1752 0.4557 0.0000
vt 0.1981 0.4557 0.0000
vt 0.1482 0.4346 0.0000
vt 0.1349 0.4347 0.0000
vt 0.1417 0.4595 0.0000
vt 0.1233 0.4414 0.0000
vt 0.1167 0.4530 0.0000
vt 0.1167 0.4663 0.0000
vt 0.1235 0.4779 0.0000
vt 0.1351 0.4845 0.0000
vt 0.1484 0.4844 0.0000
vt 0.1600 0.4777 0.0000
vt 0.1666 0.4661 0.0000
vt 0.1666 0.4527 0.0000
vt 0.1598 0.4412 0.0000
vt 0.1499 0.4283 0.0000
vt 0.1332 0.4284 0.0000
vt 0.1340 0.4315 0.0000
vt 0.1490 0.4315 0.0000
vt 0.1210 0.4391 0.0000
vt 0.1187 0.4368 0.0000
vt 0.1136 0.4522 0.0000
vt 0.1136 0.4672 0.0000
vt 0.1212 0.4802 0.0000
vt 0.1343 0.4876 0.0000
vt 0.1493 0.4876 0.0000
vt 0.1501 0.4907 0.0000
vt 0.1646 0.4823 0.0000
vt 0.1623 0.4800 0.0000
vt 0.1697 0.4669 0.0000
vt 0.1697 0.4519 0.0000
vt 0.1621 0.4389 0.0000
vt 0.1644 0.4366 0.0000
vt 0.1105 0.4514 0.0000
vt 0.1105 0.4681 0.0000
vt 0.1189 0.4825 0.0000
vt 0.1334 0.4907 0.0000
vt 0.1728 0.4677 0.0000
vt 0.1728 0.4510 0.0000
# 52 texture coords

g G12
usemtl Material__1011
s 32
f 1/1/1 2/2/2 3/3/3 4/4/4 
f 2/5/2 5/6/5 6/7/6 3/8/3 
f 7/9/7 8/7/8 4/8/4 
f 9/10/9 5/11/5 2/2/2 1/1/1 
f 6/7/6 10/9/10 3/8/3 
f 8/7/8 9/6/9 1/5/1 4/8/4 
f 9/10/9 8/12/8 6/13/6 5/11/5 
f 3/3/3 10/14/10 7/15/7 4/4/4 
f 11/16/11 12/17/12 13/18/13 
f 12/17/12 14/19/14 13/18/13 
f 14/19/14 15/20/15 13/18/13 
f 15/20/15 16/21/16 13/18/13 
f 16/21/16 17/22/17 13/18/13 
f 17/22/17 18/23/18 13/18/13 
f 18/23/18 19/24/19 13/18/13 
f 19/24/19 20/25/20 13/18/13 
f 20/25/20 21/26/21 13/18/13 
f 21/26/21 22/27/22 13/18/13 
f 22/27/22 23/28/23 13/18/13 
f 23/28/23 11/16/11 13/18/13 
f 24/29/24 25/30/25 26/31/26 27/32/27 
f 28/33/28 26/31/26 25/30/25 29/34/29 
f 30/35/30 15/20/15 14/19/14 28/33/28 
f 31/36/31 16/21/16 15/20/15 30/35/30 
f 32/37/32 17/22/17 16/21/16 31/36/31 
f 33/38/33 18/23/18 17/22/17 32/37/32 
f 34/39/34 19/24/19 18/23/18 33/38/33 
f 34/39/34 35/40/35 36/41/36 37/42/37 
f 38/43/38 21/26/21 20/25/20 37/42/37 
f 22/27/22 21/26/21 38/43/38 39/44/39 
f 40/45/40 23/28/23 22/27/22 39/44/39 
f 41/46/41 24/29/24 27/32/27 40/45/40 
f 12/17/12 11/16/11 27/32/27 26/31/26 
f 28/33/28 14/19/14 12/17/12 26/31/26 
f 28/33/28 29/34/29 42/47/42 30/35/30 
f 30/35/30 42/47/42 43/48/43 31/36/31 
f 44/49/44 32/37/32 31/36/31 43/48/43 
f 32/37/32 44/49/44 45/50/45 33/38/33 
f 35/40/35 34/39/34 33/38/33 45/50/45 
f 37/42/37 20/25/20 19/24/19 34/39/34 
f 37/42/37 36/41/36 46/51/46 38/43/38 
f 46/51/46 47/52/47 39/44/39 38/43/38 
f 47/52/47 41/46/41 40/45/40 39/44/39 
f 27/32/27 11/16/11 23/28/23 40/45/40 
# 30 polygons - 14 triangles

