# 3ds Max Wavefront OBJ Exporter v0.97b - (c)2007 guruware
# 创建的文件:03.11.2017 15:21:32

mtllib G22.mtl

#
# object G22
#

v  0.0172 -0.0272 -0.0034
v  0.0174 0.0068 -0.0034
v  0.0176 0.0068 0.0039
v  0.0174 -0.0270 0.0041
v  0.0055 -0.0271 -0.0030
v  0.0055 -0.0154 -0.0029
v  0.0059 0.0114 0.0040
v  0.0058 -0.0154 0.0045
v  0.0058 -0.0270 0.0044
v  0.0057 0.0112 -0.0035
v  0.0057 -0.0107 -0.0030
v  0.0054 -0.0079 -0.0080
v  0.0067 -0.0001 -0.0004
v  0.0053 -0.0031 -0.0109
v  0.0054 0.0026 -0.0109
v  0.0056 0.0075 -0.0082
v  0.0057 0.0103 -0.0034
v  0.0059 0.0104 0.0023
v  0.0061 0.0077 0.0071
v  0.0062 0.0029 0.0100
v  0.0061 -0.0028 0.0101
v  0.0060 -0.0077 0.0074
v  0.0058 -0.0105 0.0026
v  -0.0142 -0.0177 -0.0046
v  -0.0145 -0.0131 -0.0129
v  0.0019 -0.0131 -0.0124
v  0.0022 -0.0178 -0.0043
v  -0.0148 -0.0050 -0.0176
v  0.0018 -0.0051 -0.0172
v  0.0019 0.0043 -0.0174
v  0.0036 0.0029 -0.0118
v  0.0035 -0.0035 -0.0118
v  0.0037 0.0085 -0.0086
v  0.0020 0.0125 -0.0127
v  0.0023 0.0173 -0.0046
v  0.0039 0.0117 -0.0032
v  0.0027 0.0174 0.0048
v  0.0041 0.0117 0.0032
v  0.0029 0.0128 0.0128
v  0.0043 0.0086 0.0087
v  -0.0136 0.0132 0.0126
v  -0.0134 0.0050 0.0176
v  0.0031 0.0048 0.0177
v  0.0044 -0.0032 0.0121
v  0.0044 0.0032 0.0120
v  0.0030 -0.0046 0.0178
v  0.0028 -0.0128 0.0132
v  0.0043 -0.0088 0.0089
v  0.0026 -0.0176 0.0052
v  0.0040 -0.0120 0.0034
v  -0.0140 -0.0176 0.0049
v  0.0036 -0.0089 -0.0085
v  0.0037 -0.0121 -0.0029
v  -0.0147 0.0045 -0.0178
v  -0.0145 0.0128 -0.0131
v  -0.0142 0.0177 -0.0050
v  -0.0138 0.0178 0.0044
v  -0.0134 -0.0045 0.0176
v  -0.0137 -0.0127 0.0130
# 59 vertices

vn 0.6701 -0.5884 -0.4524
vn 0.7704 0.4463 -0.4553
vn 0.5293 0.4569 0.7149
vn 0.4556 -0.5708 0.6831
vn -0.4635 -0.5793 -0.6705
vn -0.2748 -0.0012 -0.9615
vn 0.1565 0.7550 0.6368
vn -0.6040 0.0041 0.7970
vn -0.6762 -0.5714 0.4650
vn 0.4127 0.7210 -0.5566
vn 0.8525 -0.5227 0.0101
vn 0.8801 -0.4033 -0.2505
vn 0.9818 -0.0055 0.1898
vn 0.8988 -0.1604 -0.4080
vn 0.8998 0.1391 -0.4135
vn 0.8821 0.3936 -0.2589
vn 0.8530 0.5220 0.0010
vn 0.8205 0.5037 0.2703
vn 0.7972 0.3563 0.4873
vn 0.7898 0.1271 0.6001
vn 0.7945 -0.1178 0.5957
vn 0.8068 -0.3341 0.4873
vn 0.8278 -0.4822 0.2867
vn 0.0603 -0.9666 -0.2490
vn 0.1727 -0.7089 -0.6838
vn 0.6774 -0.5866 -0.4440
vn 0.5952 -0.7989 -0.0865
vn 0.2382 -0.2681 -0.9335
vn 0.7235 -0.2254 -0.6524
vn 0.7284 0.1987 -0.6557
vn 0.9100 0.1397 -0.3904
vn 0.9126 -0.1614 -0.3756
vn 0.8899 0.3967 -0.2252
vn 0.6877 0.5669 -0.4536
vn 0.6108 0.7852 -0.1020
vn 0.8608 0.5079 0.0324
vn 0.5214 0.7927 0.3158
vn 0.8246 0.4831 0.2943
vn 0.4419 0.5889 0.6767
vn 0.7982 0.3338 0.5014
vn -0.1470 0.7241 0.6739
vn -0.2199 0.2775 0.9352
vn 0.3880 0.2240 0.8940
vn 0.7932 -0.1126 0.5985
vn 0.7905 0.1178 0.6011
vn 0.3799 -0.2088 0.9011
vn 0.4247 -0.5804 0.6948
vn 0.8087 -0.3224 0.4919
vn 0.5080 -0.7944 0.3329
vn 0.8320 -0.4683 0.2973
vn -0.0666 -0.9638 0.2580
vn 0.8889 -0.4043 -0.2152
vn 0.8608 -0.5069 0.0455
vn 0.2438 0.2473 -0.9378
vn 0.1911 0.6939 -0.6943
vn 0.0912 0.9590 -0.2684
vn -0.0344 0.9707 0.2380
vn -0.2296 -0.2502 0.9406
vn -0.1727 -0.7000 0.6929
# 59 vertex normals

vt 0.0754 0.3034 0.0000
vt 0.0754 0.3953 0.0000
vt 0.0984 0.3953 0.0000
vt 0.0984 0.3035 0.0000
vt 0.0720 0.2107 0.0000
vt 0.0029 0.2107 0.0000
vt 0.0029 0.2984 0.0000
vt 0.0720 0.3763 0.0000
vt 0.0029 0.4499 0.0000
vt 0.0984 0.2583 0.0000
vt 0.0754 0.2583 0.0000
vt 0.0754 0.2106 0.0000
vt 0.0984 0.2106 0.0000
vt 0.0754 0.4558 0.0000
vt 0.0984 0.4558 0.0000
vt 0.0492 0.4526 0.0000
vt 0.0518 0.4572 0.0000
vt 0.0419 0.4598 0.0000
vt 0.0519 0.4625 0.0000
vt 0.0492 0.4671 0.0000
vt 0.0446 0.4697 0.0000
vt 0.0394 0.4698 0.0000
vt 0.0347 0.4671 0.0000
vt 0.0321 0.4626 0.0000
vt 0.0320 0.4573 0.0000
vt 0.0346 0.4526 0.0000
vt 0.0393 0.4499 0.0000
vt 0.0446 0.4500 0.0000
vt 0.0645 0.4367 0.0000
vt 0.0730 0.4512 0.0000
vt 0.0577 0.4551 0.0000
vt 0.0532 0.4476 0.0000
vt 0.0732 0.4679 0.0000
vt 0.0579 0.4638 0.0000
vt 0.0535 0.4714 0.0000
vt 0.0500 0.4679 0.0000
vt 0.0531 0.4626 0.0000
vt 0.0447 0.4710 0.0000
vt 0.0458 0.4758 0.0000
vt 0.0371 0.4757 0.0000
vt 0.0386 0.4710 0.0000
vt 0.0297 0.4713 0.0000
vt 0.0334 0.4679 0.0000
vt 0.0256 0.4638 0.0000
vt 0.0304 0.4627 0.0000
vt 0.0104 0.4683 0.0000
vt 0.0104 0.4514 0.0000
vt 0.0256 0.4553 0.0000
vt 0.0334 0.4515 0.0000
vt 0.0304 0.4567 0.0000
vt 0.0298 0.4480 0.0000
vt 0.0371 0.4436 0.0000
vt 0.0386 0.4484 0.0000
vt 0.0456 0.4435 0.0000
vt 0.0446 0.4484 0.0000
vt 0.0499 0.4283 0.0000
vt 0.0530 0.4565 0.0000
vt 0.0499 0.4512 0.0000
vt 0.0648 0.4825 0.0000
vt 0.0502 0.4910 0.0000
vt 0.0334 0.4911 0.0000
vt 0.0189 0.4827 0.0000
vt 0.0188 0.4369 0.0000
vt 0.0331 0.4284 0.0000
# 64 texture coords

g G22
usemtl Material__1011
s 32
f 1/1/1 2/2/2 3/3/3 4/4/4 
f 1/5/1 5/6/5 6/7/6 2/8/2 
f 7/9/7 8/7/8 3/8/3 
f 9/10/9 5/11/5 1/1/1 4/4/4 
f 6/7/6 10/9/10 2/8/2 
f 4/5/4 3/8/3 8/7/8 9/6/9 
f 6/12/6 5/11/5 9/10/9 8/13/8 
f 3/3/3 2/2/2 10/14/10 7/15/7 
f 11/16/11 12/17/12 13/18/13 
f 12/17/12 14/19/14 13/18/13 
f 14/19/14 15/20/15 13/18/13 
f 15/20/15 16/21/16 13/18/13 
f 16/21/16 17/22/17 13/18/13 
f 17/22/17 18/23/18 13/18/13 
f 18/23/18 19/24/19 13/18/13 
f 19/24/19 20/25/20 13/18/13 
f 20/25/20 21/26/21 13/18/13 
f 21/26/21 22/27/22 13/18/13 
f 22/27/22 23/28/23 13/18/13 
f 23/28/23 11/16/11 13/18/13 
f 24/29/24 25/30/25 26/31/26 27/32/27 
f 25/30/25 28/33/28 29/34/29 26/31/26 
f 30/35/30 31/36/31 32/37/32 29/34/29 
f 33/38/33 31/36/31 30/35/30 34/39/34 
f 33/38/33 34/39/34 35/40/35 36/41/36 
f 37/42/37 38/43/38 36/41/36 35/40/35 
f 37/42/37 39/44/39 40/45/40 38/43/38 
f 39/44/39 41/46/41 42/47/42 43/48/43 
f 44/49/44 45/50/45 43/48/43 46/51/46 
f 44/49/44 46/51/46 47/52/47 48/53/48 
f 48/53/48 47/52/47 49/54/49 50/55/50 
f 51/56/51 24/29/24 27/32/27 49/54/49 
f 26/31/26 52/57/52 53/58/53 27/32/27 
f 32/37/32 52/57/52 26/31/26 29/34/29 
f 54/59/54 30/35/30 29/34/29 28/33/28 
f 30/35/30 54/59/54 55/60/55 34/39/34 
f 34/39/34 55/60/55 56/61/56 35/40/35 
f 35/40/35 56/61/56 57/62/57 37/42/37 
f 37/42/37 57/62/57 41/46/41 39/44/39 
f 39/44/39 43/48/43 45/50/45 40/45/40 
f 42/47/42 58/63/58 46/51/46 43/48/43 
f 58/63/58 59/64/59 47/52/47 46/51/46 
f 59/64/59 51/56/51 49/54/49 47/52/47 
f 49/54/49 27/32/27 53/58/53 50/55/50 
f 12/17/12 11/16/11 53/58/53 52/57/52 
f 14/19/14 12/17/12 52/57/52 32/37/32 
f 31/36/31 15/20/15 14/19/14 32/37/32 
f 31/36/31 33/38/33 16/21/16 15/20/15 
f 36/41/36 17/22/17 16/21/16 33/38/33 
f 38/43/38 18/23/18 17/22/17 36/41/36 
f 40/45/40 19/24/19 18/23/18 38/43/38 
f 20/25/20 19/24/19 40/45/40 45/50/45 
f 45/50/45 44/49/44 21/26/21 20/25/20 
f 22/27/22 21/26/21 44/49/44 48/53/48 
f 48/53/48 50/55/50 23/28/23 22/27/22 
f 53/58/53 11/16/11 23/28/23 50/55/50 
# 42 polygons - 14 triangles

