# 3ds Max Wavefront OBJ Exporter v0.97b - (c)2007 guruware
# 创建的文件:04.08.2017 16:02:34

mtllib A13.mtl

#
# object A13
#

v  -0.0109 0.0095 0.0085
v  -0.0008 0.0096 0.0001
v  -0.0052 0.0096 0.0125
v  0.0014 0.0097 0.0132
v  0.0077 0.0098 0.0104
v  0.0116 0.0098 0.0048
v  0.0122 0.0098 -0.0020
v  0.0093 0.0098 -0.0083
v  0.0038 0.0097 -0.0123
v  -0.0030 0.0096 -0.0128
v  -0.0092 0.0095 -0.0100
v  -0.0132 0.0095 -0.0044
v  -0.0138 0.0095 0.0024
v  0.0016 -0.0097 0.0134
v  -0.0050 -0.0098 0.0124
v  0.0077 -0.0096 0.0106
v  0.0118 -0.0096 0.0050
v  0.0124 -0.0096 -0.0018
v  0.0095 -0.0096 -0.0080
v  0.0040 -0.0097 -0.0120
v  -0.0029 -0.0098 -0.0126
v  -0.0091 -0.0098 -0.0098
v  -0.0130 -0.0099 -0.0042
v  -0.0137 -0.0099 0.0026
v  -0.0108 -0.0099 0.0086
v  0.0023 0.0296 -0.0225
v  0.0017 0.0212 -0.0151
v  0.0017 0.0604 -0.0152
v  0.0023 0.0583 -0.0227
v  0.0010 0.0606 -0.0076
v  0.0010 0.0186 -0.0077
v  0.0001 0.0186 0.0031
v  0.0001 0.0605 0.0027
v  -0.0006 0.0220 0.0110
v  -0.0006 0.0605 0.0105
v  0.0015 0.0198 -0.0160
v  0.0023 0.0294 -0.0247
v  0.0007 0.0169 -0.0078
v  -0.0002 0.0169 0.0032
v  -0.0010 0.0200 0.0118
v  -0.0013 -0.0334 -0.0022
v  0.0001 -0.0334 -0.0021
v  0.0005 -0.0294 -0.0076
v  -0.0008 -0.0294 -0.0077
v  0.0007 0.0057 -0.0078
v  -0.0002 0.0057 0.0032
v  -0.0032 0.0296 0.0200
v  -0.0032 0.0547 0.0200
v  -0.0017 0.0547 0.0202
v  -0.0018 0.0296 0.0202
v  -0.0012 0.0585 0.0174
v  -0.0012 0.0301 0.0176
v  0.0023 0.0557 -0.0251
v  -0.0017 -0.0250 0.0030
v  -0.0003 -0.0250 0.0031
v  -0.0004 -0.0294 0.0027
v  -0.0017 -0.0294 0.0026
v  -0.0030 0.0585 0.0173
v  -0.0001 0.0604 -0.0153
v  0.0005 0.0583 -0.0228
v  -0.0017 0.0605 0.0025
v  -0.0008 0.0606 -0.0078
v  -0.0024 0.0605 0.0104
v  0.0007 -0.0195 -0.0078
v  0.0007 -0.0250 -0.0079
v  -0.0001 -0.0195 0.0019
v  -0.0003 -0.0122 0.0032
v  0.0007 -0.0122 -0.0078
v  -0.0003 0.0014 0.0032
v  0.0007 0.0014 -0.0078
v  -0.0001 -0.0046 0.0012
v  0.0007 -0.0046 -0.0078
v  -0.0017 0.0169 0.0031
v  -0.0025 0.0200 0.0116
v  -0.0008 0.0169 -0.0079
v  -0.0008 0.0057 -0.0079
v  -0.0016 -0.0195 0.0018
v  -0.0008 -0.0250 -0.0080
v  -0.0008 -0.0195 -0.0079
v  -0.0017 -0.0122 0.0030
v  -0.0008 -0.0122 -0.0079
v  -0.0016 -0.0046 0.0011
v  -0.0008 0.0014 -0.0079
v  -0.0017 0.0057 0.0031
v  -0.0017 0.0014 0.0031
v  -0.0008 -0.0046 -0.0079
v  -0.0008 0.0294 -0.0250
v  0.0007 0.0294 -0.0248
v  0.0007 0.0557 -0.0252
v  -0.0008 0.0557 -0.0254
v  -0.0013 0.0296 -0.0228
v  -0.0012 0.0583 -0.0230
v  -0.0019 0.0604 -0.0155
v  -0.0019 0.0212 -0.0154
v  -0.0026 0.0606 -0.0079
v  -0.0035 0.0605 0.0024
v  -0.0035 0.0186 0.0028
v  -0.0026 0.0186 -0.0080
v  -0.0041 0.0605 0.0102
v  -0.0042 0.0220 0.0107
v  -0.0016 0.0198 -0.0162
v  -0.0023 0.0169 -0.0080
v  -0.0032 0.0169 0.0029
v  -0.0039 0.0200 0.0115
v  -0.0023 0.0057 -0.0080
v  -0.0032 0.0057 0.0029
v  -0.0047 0.0547 0.0199
v  -0.0046 0.0296 0.0199
v  -0.0047 0.0301 0.0173
v  -0.0047 0.0585 0.0171
v  -0.0030 -0.0294 0.0025
v  -0.0026 -0.0334 -0.0023
v  -0.0021 -0.0294 -0.0078
v  -0.0023 -0.0195 -0.0081
v  -0.0031 -0.0195 0.0016
v  -0.0032 -0.0250 0.0028
v  -0.0022 -0.0250 -0.0081
v  -0.0023 -0.0122 -0.0080
v  -0.0032 -0.0122 0.0029
v  -0.0032 0.0014 0.0030
v  -0.0023 0.0014 -0.0080
v  -0.0001 0.0198 -0.0161
v  -0.0023 -0.0046 -0.0080
v  -0.0030 -0.0046 0.0010
# 124 vertices

vn -0.2194 0.6844 0.6953
vn -0.0025 1.0000 0.0005
vn -0.1079 0.6964 0.7095
vn -0.0288 0.6988 0.7148
vn 0.0917 0.6913 0.7167
vn 0.5831 0.6176 0.5278
vn 0.6855 0.6071 -0.4019
vn 0.2190 0.6858 -0.6941
vn 0.1009 0.6939 -0.7130
vn 0.0198 0.6933 -0.7204
vn -0.0977 0.6794 -0.7272
vn -0.6129 0.5812 -0.5353
vn -0.7107 0.5809 0.3968
vn -0.0350 0.0071 0.9994
vn -0.1447 -0.0030 0.9895
vn 0.1314 0.0176 0.9912
vn 0.7512 0.0430 0.6587
vn 0.8762 0.0344 -0.4808
vn 0.3111 -0.0001 -0.9504
vn 0.1472 -0.0086 -0.9891
vn 0.0321 -0.0123 -0.9994
vn -0.1297 -0.0175 -0.9914
vn -0.7411 -0.0429 -0.6700
vn -0.8591 -0.0336 0.5107
vn -0.2945 -0.0062 0.9556
vn 0.9639 -0.1523 -0.2185
vn 0.9371 -0.3238 -0.1302
vn 0.9961 0.0027 0.0879
vn 0.9981 0.0009 -0.0620
vn 0.9957 0.0024 0.0921
vn 0.9251 -0.3793 0.0166
vn 0.9154 -0.3682 0.1630
vn 0.9953 0.0022 0.0964
vn 0.9083 -0.2859 0.3054
vn 0.9953 0.0015 0.0969
vn 0.4432 -0.7663 -0.4651
vn 0.5210 -0.3216 -0.7907
vn 0.7055 -0.6082 -0.3639
vn 0.6364 -0.5883 0.4990
vn 0.3694 -0.7511 0.5471
vn -0.0030 -0.9994 0.0344
vn 0.5868 -0.8056 0.0820
vn 0.6456 -0.4255 -0.6342
vn 0.0764 -0.4805 -0.8737
vn 0.7689 -0.0006 -0.6394
vn 0.6410 0.0030 0.7676
vn -0.0816 -0.3527 0.9322
vn -0.0872 -0.0001 0.9962
vn 0.5423 -0.0008 0.8402
vn 0.3720 -0.3114 0.8744
vn 0.9738 0.0003 0.2273
vn 0.9125 -0.1312 0.3874
vn 0.6734 -0.0095 -0.7392
vn -0.0870 0.0641 0.9941
vn 0.6201 -0.0090 0.7845
vn 0.5269 -0.4098 0.7446
vn -0.0772 -0.4634 0.8828
vn -0.0704 0.5895 0.8047
vn 0.0241 0.9610 -0.2755
vn -0.0010 0.9999 0.0112
vn 0.0001 1.0000 -0.0010
vn 0.7708 -0.0045 -0.6370
vn 0.7723 -0.0773 -0.6305
vn 0.6910 0.0033 0.7228
vn 0.5915 0.0271 0.8058
vn 0.7700 -0.0014 -0.6381
vn 0.6013 -0.1153 0.7906
vn 0.7690 -0.0010 -0.6392
vn -0.0242 0.9606 0.2769
vn 0.0023 0.9997 -0.0263
vn 0.7153 -0.0231 0.6984
vn 0.7693 -0.0006 -0.6388
vn -0.0714 -0.5742 0.8156
vn -0.0492 -0.8257 0.5619
vn 0.0711 -0.5779 -0.8130
vn 0.0872 0.0010 -0.9962
vn -0.0871 0.0211 0.9960
vn 0.0871 -0.0250 -0.9959
vn 0.0872 0.0062 -0.9962
vn -0.0871 0.0394 0.9954
vn 0.0872 0.0021 -0.9962
vn -0.0871 -0.0347 0.9956
vn 0.0872 0.0007 -0.9962
vn -0.0872 0.0061 0.9962
vn -0.0861 -0.1546 0.9842
vn -0.3758 -0.3216 -0.8691
vn 0.0810 -0.3680 -0.9263
vn 0.0871 -0.0149 -0.9961
vn -0.5349 -0.0095 -0.8449
vn -0.9113 -0.1523 -0.3826
vn -0.9722 0.0009 -0.2343
vn -0.9963 0.0027 -0.0864
vn -0.9003 -0.3238 -0.2909
vn -0.9966 0.0024 -0.0822
vn -0.9970 0.0022 -0.0779
vn -0.9298 -0.3682 0.0015
vn -0.9140 -0.3793 -0.1443
vn -0.9970 0.0015 -0.0774
vn -0.9475 -0.2859 0.1430
vn -0.3557 -0.7663 -0.5350
vn -0.6316 -0.6082 -0.4809
vn -0.7133 -0.5883 0.3809
vn -0.4588 -0.7511 0.4746
vn -0.6461 -0.0006 -0.7632
vn -0.7645 0.0030 0.6446
vn -0.6799 -0.0008 0.7333
vn -0.5182 -0.3114 0.7965
vn -0.9659 -0.1312 0.2231
vn -0.9985 0.0003 0.0547
vn -0.6482 -0.4098 0.6418
vn -0.5921 -0.8056 -0.0211
vn -0.5256 -0.4255 -0.7367
vn 0.0641 0.6781 -0.7322
vn -0.6485 -0.0045 -0.7612
vn -0.8061 0.0033 0.5918
vn -0.7469 -0.0090 0.6649
vn -0.6511 -0.0773 -0.7550
vn -0.6475 -0.0014 -0.7621
vn -0.7225 0.0271 0.6909
vn -0.7295 -0.1153 0.6742
vn -0.6463 -0.0010 -0.7631
vn 0.0481 -0.8339 -0.5498
vn -0.6467 -0.0006 -0.7627
vn -0.8257 -0.0231 0.5636
# 124 vertex normals

vt 0.7351 0.4476 0.0000
vt 0.7352 0.4768 0.0000
vt 0.7497 0.4515 0.0000
vt 0.7604 0.4621 0.0000
vt 0.7644 0.4767 0.0000
vt 0.7606 0.4913 0.0000
vt 0.7499 0.5021 0.0000
vt 0.7353 0.5061 0.0000
vt 0.7207 0.5022 0.0000
vt 0.7099 0.4916 0.0000
vt 0.7060 0.4770 0.0000
vt 0.7098 0.4623 0.0000
vt 0.7205 0.4516 0.0000
vt 0.8150 0.4606 0.0000
vt 0.8092 0.4605 0.0000
vt 0.8086 0.5036 0.0000
vt 0.8135 0.5038 0.0000
vt 0.8208 0.4609 0.0000
vt 0.8184 0.5040 0.0000
vt 0.8233 0.5043 0.0000
vt 0.8265 0.4613 0.0000
vt 0.8282 0.5048 0.0000
vt 0.8321 0.4618 0.0000
vt 0.8372 0.4626 0.0000
vt 0.8331 0.5053 0.0000
vt 0.7747 0.4622 0.0000
vt 0.7696 0.4631 0.0000
vt 0.7739 0.5058 0.0000
vt 0.7790 0.5052 0.0000
vt 0.7840 0.5046 0.0000
vt 0.7802 0.4616 0.0000
vt 0.7889 0.5042 0.0000
vt 0.7859 0.4612 0.0000
vt 0.7938 0.5039 0.0000
vt 0.7917 0.4608 0.0000
vt 0.7975 0.4606 0.0000
vt 0.7988 0.5037 0.0000
vt 0.8037 0.5036 0.0000
vt 0.8034 0.4605 0.0000
vt 0.7071 0.3501 0.0000
vt 0.6942 0.3656 0.0000
vt 0.6943 0.2933 0.0000
vt 0.7074 0.2973 0.0000
vt 0.6812 0.2929 0.0000
vt 0.6814 0.3704 0.0000
vt 0.6625 0.3704 0.0000
vt 0.6633 0.2931 0.0000
vt 0.6489 0.3641 0.0000
vt 0.6496 0.2931 0.0000
vt 0.6957 0.3682 0.0000
vt 0.7109 0.3505 0.0000
vt 0.6814 0.3735 0.0000
vt 0.6624 0.3735 0.0000
vt 0.6475 0.3677 0.0000
vt 0.6715 0.4663 0.0000
vt 0.6811 0.4589 0.0000
vt 0.6814 0.3941 0.0000
vt 0.6624 0.3941 0.0000
vt 0.6329 0.3500 0.0000
vt 0.6328 0.3038 0.0000
vt 0.6377 0.2968 0.0000
vt 0.6373 0.3492 0.0000
vt 0.7116 0.3020 0.0000
vt 0.6625 0.4507 0.0000
vt 0.6632 0.4589 0.0000
vt 0.6815 0.4406 0.0000
vt 0.6816 0.4507 0.0000
vt 0.6646 0.4406 0.0000
vt 0.6624 0.4272 0.0000
vt 0.6815 0.4272 0.0000
vt 0.6623 0.4021 0.0000
vt 0.6814 0.4021 0.0000
vt 0.6658 0.4133 0.0000
vt 0.6815 0.4133 0.0000
# 74 texture coords

g A13
usemtl Material__78
s 2
f 3/3/3 2/2/2 1/1/1 
f 4/4/4 2/2/2 3/3/3 
f 5/5/5 2/2/2 4/4/4 
f 6/6/6 2/2/2 5/5/5 
f 7/7/7 2/2/2 6/6/6 
f 8/8/8 2/2/2 7/7/7 
f 9/9/9 2/2/2 8/8/8 
f 10/10/10 2/2/2 9/9/9 
f 11/11/11 2/2/2 10/10/10 
f 12/12/12 2/2/2 11/11/11 
f 13/13/13 2/2/2 12/12/12 
f 1/1/1 2/2/2 13/13/13 
f 4/17/4 3/16/3 15/15/15 14/14/14 
f 5/19/5 4/17/4 14/14/14 16/18/16 
f 5/19/5 16/18/16 17/21/17 6/20/6 
f 6/20/6 17/21/17 18/23/18 7/22/7 
f 8/25/8 7/22/7 18/23/18 19/24/19 
f 9/29/9 8/28/8 19/27/19 20/26/20 
f 20/26/20 21/31/21 10/30/10 9/29/9 
f 21/31/21 22/33/22 11/32/11 10/30/10 
f 11/32/11 22/33/22 23/35/23 12/34/12 
f 13/37/13 12/34/12 23/35/23 24/36/24 
f 13/37/13 24/36/24 25/39/25 1/38/1 
f 3/16/3 1/38/1 25/39/25 15/15/15 
usemtl Material__77
s 524288
f 29/43/29 28/42/28 27/41/27 26/40/26 
f 33/47/33 32/46/32 31/45/31 30/44/30 
f 35/49/35 34/48/34 32/46/32 33/47/33 
f 37/51/37 26/40/26 27/41/27 36/50/36 
f 31/45/31 32/46/32 39/53/39 38/52/38 
f 39/53/39 32/46/32 34/48/34 40/54/40 
f 44/56/44 43/56/43 42/55/42 41/55/41 
f 38/52/38 39/53/39 46/58/46 45/57/45 
f 50/59/50 49/60/49 48/60/48 47/59/47 
f 50/59/50 52/62/52 51/61/51 49/60/49 
f 29/43/29 26/40/26 37/51/37 53/63/53 
f 57/65/57 56/65/56 55/64/55 54/64/54 
f 42/55/42 43/56/43 56/65/56 
s off
f 49/60/58 51/61/58 58/61/58 48/60/58 
f 28/42/59 29/43/59 60/43/59 59/42/59 
f 33/47/60 30/44/60 62/44/60 61/47/60 
f 35/49/61 33/47/61 61/47/61 63/49/61 
s 524288
f 66/68/64 55/64/55 65/67/63 64/66/62 
f 68/70/66 67/69/65 66/68/64 64/66/62 
f 70/72/68 45/57/45 46/58/46 69/71/67 
f 34/48/34 35/49/35 51/61/51 52/62/52 
f 50/59/50 40/54/40 34/48/34 52/62/52 
s off
f 51/61/69 35/49/69 63/49/69 58/61/69 
s 524288
f 28/42/28 30/44/30 31/45/31 27/41/27 
f 38/52/38 36/50/36 27/41/27 31/45/31 
s off
f 30/44/70 28/42/70 59/42/70 62/44/70 
s 524288
f 68/70/66 72/74/72 71/73/71 67/69/65 
f 72/74/72 70/72/68 69/71/67 71/73/71 
f 39/53/39 40/54/40 74/54/74 73/53/73 
f 38/52/38 45/57/45 76/57/76 75/52/75 
f 55/64/55 66/68/64 77/68/77 54/64/54 
f 65/67/63 43/56/43 44/56/44 78/67/78 
f 42/55/42 56/65/56 57/65/57 41/55/41 
f 64/66/62 65/67/63 78/67/78 79/66/79 
f 66/68/64 67/69/65 80/69/80 77/68/77 
f 68/70/66 64/66/62 79/66/79 81/70/81 
f 67/69/65 71/73/71 82/73/82 80/69/80 
f 45/57/45 70/72/68 83/72/83 76/57/76 
f 46/58/46 39/53/39 73/53/73 84/58/84 
f 40/54/40 50/59/50 47/59/47 74/54/74 
f 71/73/71 69/71/67 85/71/85 82/73/82 
f 72/74/72 68/70/66 81/70/81 86/74/83 
f 70/72/68 72/74/72 86/74/83 83/72/83 
f 69/71/67 46/58/46 84/58/84 85/71/85 
f 55/64/55 56/65/56 43/56/43 65/67/63 
f 90/63/89 89/63/88 88/51/87 87/51/86 
f 94/41/93 93/42/92 92/43/91 91/40/90 
f 98/45/97 97/46/96 96/47/95 95/44/94 
f 97/46/96 100/48/99 99/49/98 96/47/95 
f 94/41/93 91/40/90 87/51/86 101/50/100 
f 103/53/102 97/46/96 98/45/97 102/52/101 
f 100/48/99 97/46/96 103/53/102 104/54/103 
f 106/58/105 103/53/102 102/52/101 105/57/104 
f 110/61/109 109/62/108 108/59/107 107/60/106 
f 87/51/86 91/40/90 92/43/91 90/63/89 
f 113/56/112 112/55/111 111/65/110 
s off
f 89/63/113 90/63/113 92/43/113 60/43/113 
s 524288
f 117/67/117 116/64/116 115/68/115 114/66/114 
f 115/68/115 119/69/119 118/70/118 114/66/114 
f 106/58/105 105/57/104 121/72/121 120/71/120 
f 110/61/109 99/49/98 100/48/99 109/62/108 
f 100/48/99 104/54/103 108/59/107 109/62/108 
f 98/45/97 95/44/94 93/42/92 94/41/93 
f 94/41/93 101/50/100 102/52/101 98/45/97 
f 101/50/100 87/51/86 88/51/87 122/50/122 
f 124/73/124 123/74/123 118/70/118 119/69/119 
f 120/71/120 121/72/121 123/74/123 124/73/124 
f 36/50/36 38/52/38 75/52/75 122/50/122 
f 113/56/112 111/65/110 116/64/116 117/67/117 
f 113/56/112 44/56/44 41/55/41 112/55/111 
f 47/59/47 48/60/48 107/60/106 108/59/107 
f 111/65/110 57/65/57 54/64/54 116/64/116 
s off
f 107/60/58 48/60/58 58/61/58 110/61/58 
f 93/42/59 59/42/59 60/43/59 92/43/59 
f 96/47/60 61/47/60 62/44/60 95/44/60 
f 99/49/61 63/49/61 61/47/61 96/47/61 
f 110/61/69 58/61/69 63/49/69 99/49/69 
f 95/44/70 62/44/70 59/42/70 93/42/70 
s 524288
f 103/53/102 73/53/73 74/54/74 104/54/103 
f 102/52/101 75/52/75 76/57/76 105/57/104 
f 116/64/116 54/64/54 77/68/77 115/68/115 
f 117/67/117 78/67/78 44/56/44 113/56/112 
f 112/55/111 41/55/41 57/65/57 111/65/110 
f 114/66/114 79/66/79 78/67/78 117/67/117 
f 115/68/115 77/68/77 80/69/80 119/69/119 
f 118/70/118 81/70/81 79/66/79 114/66/114 
f 119/69/119 80/69/80 82/73/82 124/73/124 
f 105/57/104 76/57/76 83/72/83 121/72/121 
f 106/58/105 84/58/84 73/53/73 103/53/102 
f 104/54/103 74/54/74 47/59/47 108/59/107 
f 124/73/124 82/73/82 85/71/85 120/71/120 
f 123/74/123 86/74/83 81/70/81 118/70/118 
f 121/72/121 83/72/83 86/74/83 123/74/123 
f 120/71/120 85/71/85 84/58/84 106/58/105 
f 88/51/87 89/63/88 53/63/53 37/51/37 
s off
f 53/63/113 89/63/113 60/43/113 29/43/113 
s 524288
f 122/50/122 88/51/87 37/51/37 36/50/36 
f 101/50/100 122/50/122 75/52/75 102/52/101 
# 108 polygons - 14 triangles

