# 3ds Max Wavefront OBJ Exporter v0.97b - (c)2007 guruware
# 创建的文件:31.07.2017 09:55:19

mtllib A31.mtl

#
# object A31
#

v  0.0247 0.0474 0.0268
v  0.0249 0.0511 0.0039
v  -0.0226 0.0518 0.0042
v  -0.0228 0.0480 0.0272
v  -0.0229 0.0351 0.0456
v  0.0246 0.0345 0.0453
v  -0.0229 0.0153 0.0570
v  0.0245 0.0147 0.0567
v  -0.0229 -0.0073 0.0584
v  0.0245 -0.0078 0.0580
v  0.0246 -0.0290 0.0497
v  -0.0228 -0.0284 0.0501
v  -0.0227 -0.0435 0.0326
v  0.0247 -0.0442 0.0321
v  0.0249 -0.0505 0.0104
v  -0.0225 -0.0500 0.0109
v  0.0251 -0.0468 -0.0125
v  -0.0224 -0.0462 -0.0121
v  -0.0223 -0.0332 -0.0310
v  0.0252 -0.0339 -0.0314
v  0.0252 -0.0140 -0.0424
v  -0.0222 -0.0134 -0.0419
v  -0.0222 0.0096 -0.0432
v  0.0252 0.0090 -0.0436
v  0.0252 0.0297 -0.0353
v  -0.0223 0.0303 -0.0349
v  -0.0224 0.0454 -0.0174
v  0.0250 0.0448 -0.0177
v  -0.0226 0.0011 0.0084
v  0.0588 0.1448 -0.0125
v  0.0587 0.1469 -0.0156
v  0.0593 0.1529 -0.0086
v  0.0587 0.1501 -0.0176
v  0.0587 0.1537 -0.0182
v  0.0587 0.1572 -0.0169
v  0.0588 0.1598 -0.0143
v  0.0588 0.1612 -0.0096
v  0.0588 0.1446 -0.0076
v  0.0569 0.1413 -0.0072
v  0.0538 0.1391 -0.0069
v  0.0536 0.1397 -0.0143
v  0.0568 0.1418 -0.0136
v  0.0567 0.1445 -0.0181
v  0.0535 0.1430 -0.0196
v  0.0566 0.1490 -0.0208
v  0.0535 0.1483 -0.0230
v  0.0566 0.1541 -0.0215
v  0.0535 0.1544 -0.0236
v  0.0567 0.1591 -0.0197
v  0.0536 0.1603 -0.0216
v  0.0568 0.1628 -0.0160
v  0.0537 0.1646 -0.0172
v  0.0569 0.1645 -0.0100
v  0.0538 0.1668 -0.0103
v  -0.0004 0.1380 -0.0237
v  -0.0005 0.1460 -0.0288
v  -0.0003 0.1328 -0.0158
v  -0.0001 0.1317 -0.0061
v  -0.0002 0.1710 -0.0199
v  -0.0001 0.1741 -0.0111
v  -0.0004 0.1644 -0.0268
v  -0.0005 0.1554 -0.0300
v  -0.0591 0.1452 -0.0102
v  -0.0594 0.1530 -0.0086
v  -0.0591 0.1473 -0.0134
v  -0.0591 0.1504 -0.0154
v  -0.0591 0.1541 -0.0158
v  -0.0591 0.1576 -0.0146
v  -0.0590 0.1602 -0.0119
v  -0.0590 0.1613 -0.0096
v  -0.0590 0.1446 -0.0076
v  -0.0540 0.1399 -0.0122
v  -0.0539 0.1392 -0.0070
v  -0.0570 0.1413 -0.0072
v  -0.0571 0.1421 -0.0113
v  -0.0572 0.1449 -0.0158
v  -0.0541 0.1433 -0.0174
v  -0.0573 0.1493 -0.0186
v  -0.0542 0.1487 -0.0208
v  -0.0572 0.1545 -0.0193
v  -0.0542 0.1547 -0.0215
v  -0.0572 0.1594 -0.0175
v  -0.0541 0.1606 -0.0194
v  -0.0571 0.1631 -0.0138
v  -0.0540 0.1650 -0.0150
v  -0.0570 0.1646 -0.0100
v  -0.0539 0.1668 -0.0103
v  0.0588 0.1460 -0.0028
v  0.0587 0.1487 -0.0002
v  0.0587 0.1523 0.0009
v  0.0587 0.1560 0.0005
v  0.0587 0.1590 -0.0016
v  0.0588 0.1610 -0.0047
v  0.0536 0.1414 0.0000
v  0.0568 0.1433 -0.0011
v  0.0567 0.1470 0.0026
v  0.0535 0.1459 0.0044
v  0.0566 0.1520 0.0043
v  0.0535 0.1518 0.0064
v  0.0566 0.1572 0.0037
v  0.0535 0.1579 0.0057
v  0.0567 0.1616 0.0008
v  0.0536 0.1631 0.0023
v  0.0568 0.1642 -0.0037
v  0.0537 0.1663 -0.0031
v  -0.0005 0.1510 0.0128
v  -0.0004 0.1420 0.0097
v  -0.0003 0.1350 0.0031
v  -0.0002 0.1732 -0.0018
v  -0.0004 0.1684 0.0064
v  -0.0005 0.1604 0.0115
v  -0.0591 0.1458 -0.0052
v  -0.0591 0.1485 -0.0026
v  -0.0591 0.1521 -0.0015
v  -0.0591 0.1558 -0.0019
v  -0.0591 0.1589 -0.0039
v  -0.0590 0.1608 -0.0070
v  -0.0540 0.1412 -0.0021
v  -0.0571 0.1430 -0.0033
v  -0.0572 0.1468 0.0004
v  -0.0541 0.1457 0.0023
v  -0.0573 0.1518 0.0020
v  -0.0542 0.1517 0.0043
v  -0.0572 0.1570 0.0014
v  -0.0542 0.1577 0.0035
v  -0.0572 0.1614 -0.0015
v  -0.0541 0.1630 0.0002
v  -0.0571 0.1641 -0.0060
v  -0.0540 0.1662 -0.0052
v  -0.0087 0.1417 -0.0041
v  -0.0098 0.1412 -0.0082
v  -0.0105 0.0325 0.0034
v  -0.0094 0.0329 0.0075
v  -0.0060 0.1420 -0.0010
v  -0.0067 0.0332 0.0106
v  -0.0021 0.1421 0.0007
v  -0.0028 0.0334 0.0123
v  0.0013 0.0334 0.0122
v  0.0020 0.1421 0.0006
v  0.0057 0.1418 -0.0014
v  0.0050 0.0332 0.0103
v  0.0075 0.0327 0.0068
v  0.0082 0.1414 -0.0048
v  0.0082 0.0324 0.0027
v  0.0089 0.1410 -0.0089
v  0.0071 0.0319 -0.0013
v  0.0078 0.1406 -0.0131
v  0.0044 0.0316 -0.0045
v  0.0051 0.1404 -0.0163
v  0.0006 0.0315 -0.0062
v  0.0013 0.1402 -0.0179
v  -0.0037 0.0315 -0.0060
v  -0.0029 0.1402 -0.0177
v  -0.0073 0.0317 -0.0041
v  -0.0066 0.1404 -0.0158
v  -0.0097 0.0322 -0.0007
v  -0.0090 0.1408 -0.0123
# 157 vertices

vn 0.0143 0.9267 0.3754
vn 0.0122 0.9978 -0.0644
vn -0.6554 0.7535 -0.0513
vn -0.6567 0.6998 0.2811
vn -0.6592 0.5091 0.5534
vn 0.0136 0.6754 0.7373
vn -0.6569 0.2178 0.7218
vn 0.0108 0.2861 0.9581
vn -0.6613 -0.1181 0.7408
vn 0.0067 -0.1596 0.9872
vn 0.0002 -0.5810 0.8139
vn -0.6580 -0.4362 0.6138
vn -0.6666 -0.6555 0.3549
vn -0.0069 -0.8793 0.4763
vn -0.0121 -0.9982 0.0594
vn -0.6632 -0.7471 0.0438
vn -0.0151 -0.9279 -0.3726
vn -0.6657 -0.6919 -0.2795
vn -0.6626 -0.5014 -0.5563
vn -0.0155 -0.6725 -0.7399
vn -0.0124 -0.2769 -0.9608
vn -0.6618 -0.2042 -0.7214
vn -0.6609 0.1225 -0.7404
vn -0.0069 0.1608 -0.9870
vn -0.0002 0.5797 -0.8148
vn -0.6558 0.4388 -0.6143
vn -0.6585 0.6598 -0.3619
vn 0.0069 0.8773 -0.4799
vn -1.0000 -0.0011 -0.0069
vn 0.9461 -0.3040 -0.1114
vn 0.9446 -0.2214 -0.2423
vn 1.0000 -0.0004 -0.0001
vn 0.9436 -0.1103 -0.3123
vn 0.9423 0.0314 -0.3332
vn 0.9454 0.1629 -0.2824
vn 0.9479 0.2666 -0.1744
vn 0.9498 0.3105 -0.0372
vn 0.9492 -0.3125 0.0372
vn 0.7209 -0.6881 0.0823
vn 0.3574 -0.9273 0.1112
vn 0.3460 -0.8865 -0.3073
vn 0.7163 -0.6588 -0.2301
vn 0.7117 -0.4912 -0.5022
vn 0.3404 -0.6616 -0.6682
vn 0.7120 -0.2324 -0.6626
vn 0.3421 -0.3088 -0.8875
vn 0.7105 0.0714 -0.7001
vn 0.3423 0.1017 -0.9341
vn 0.7173 0.3641 -0.5941
vn 0.3462 0.4975 -0.7954
vn 0.7254 0.5863 -0.3606
vn 0.3558 0.7968 -0.4883
vn 0.7301 0.6785 -0.0813
vn 0.3629 0.9252 -0.1112
vn -0.0160 -0.7043 -0.7097
vn -0.0200 -0.3334 -0.9426
vn -0.0084 -0.9423 -0.3346
vn -0.0010 -0.9929 0.1191
vn -0.0063 0.8509 -0.5252
vn -0.0008 0.9928 -0.1201
vn -0.0152 0.5375 -0.8431
vn -0.0193 0.1113 -0.9936
vn -0.9524 -0.2896 -0.0954
vn -1.0000 0.0026 -0.0003
vn -0.9538 -0.2173 -0.2074
vn -0.9569 -0.0980 -0.2734
vn -0.9558 0.0349 -0.2918
vn -0.9554 0.1684 -0.2425
vn -0.9533 0.2595 -0.1545
vn -0.9461 0.3214 -0.0393
vn -0.9413 -0.3352 0.0394
vn -0.3650 -0.8752 -0.3175
vn -0.3577 -0.9273 0.1108
vn -0.7183 -0.6909 0.0818
vn -0.7256 -0.6473 -0.2334
vn -0.7321 -0.4892 -0.4741
vn -0.3683 -0.6579 -0.6569
vn -0.7412 -0.2275 -0.6316
vn -0.3733 -0.3112 -0.8740
vn -0.7388 0.0795 -0.6692
vn -0.3743 0.1056 -0.9213
vn -0.7361 0.3710 -0.5661
vn -0.3686 0.5056 -0.7800
vn -0.7292 0.5820 -0.3598
vn -0.3620 0.7918 -0.4919
vn -0.7233 0.6855 -0.0832
vn -0.3562 0.9276 -0.1126
vn 0.9452 -0.2708 0.1825
vn 0.9432 -0.1609 0.2906
vn 0.9428 -0.0313 0.3319
vn 0.9433 0.1107 0.3131
vn 0.9465 0.2229 0.2335
vn 0.9482 0.2998 0.1049
vn 0.3461 -0.7893 0.5072
vn 0.7147 -0.5876 0.3794
vn 0.7077 -0.3636 0.6058
vn 0.3386 -0.4874 0.8049
vn 0.7087 -0.0702 0.7020
vn 0.3411 -0.0923 0.9355
vn 0.7121 0.2359 0.6612
vn 0.3411 0.3208 0.8836
vn 0.7170 0.4941 0.4917
vn 0.3452 0.6735 0.6536
vn 0.7249 0.6560 0.2100
vn 0.3545 0.8902 0.2860
vn -0.0196 -0.0981 0.9950
vn -0.0154 -0.5191 0.8546
vn -0.0082 -0.8381 0.5454
vn -0.0060 0.9507 0.3101
vn -0.0150 0.7203 0.6935
vn -0.0193 0.3459 0.9381
vn -0.9532 -0.2576 0.1583
vn -0.9550 -0.1594 0.2501
vn -0.9573 -0.0288 0.2878
vn -0.9558 0.1029 0.2753
vn -0.9554 0.2203 0.1965
vn -0.9524 0.2911 0.0908
vn -0.3631 -0.7786 0.5119
vn -0.7252 -0.5744 0.3797
vn -0.7346 -0.3605 0.5749
vn -0.3691 -0.4856 0.7924
vn -0.7462 -0.0666 0.6624
vn -0.3775 -0.0889 0.9218
vn -0.7423 0.2344 0.6277
vn -0.3790 0.3218 0.8677
vn -0.7398 0.4905 0.4605
vn -0.3730 0.6709 0.6409
vn -0.7314 0.6492 0.2088
vn -0.3652 0.8842 0.2911
vn -0.8825 0.0556 0.4669
vn -0.9994 0.0101 0.0340
vn -0.9993 0.0102 0.0355
vn -0.8820 0.0557 0.4680
vn -0.5927 0.0894 0.8005
vn -0.5914 0.0895 0.8014
vn -0.1927 0.1055 0.9756
vn -0.1934 0.1055 0.9754
vn 0.2515 0.1015 0.9625
vn 0.2523 0.1015 0.9623
vn 0.6548 0.0765 0.7519
vn 0.6555 0.0765 0.7513
vn 0.9216 0.0355 0.3865
vn 0.9220 0.0354 0.3857
vn 0.9990 -0.0112 -0.0442
vn 0.9989 -0.0114 -0.0456
vn 0.8869 -0.0551 -0.4586
vn 0.8863 -0.0552 -0.4597
vn 0.5985 -0.0895 -0.7961
vn 0.5971 -0.0896 -0.7972
vn 0.1808 -0.1059 -0.9778
vn 0.1815 -0.1059 -0.9777
vn -0.2609 -0.1008 -0.9601
vn -0.2599 -0.1009 -0.9603
vn -0.6625 -0.0753 -0.7453
vn -0.6633 -0.0752 -0.7445
vn -0.9224 -0.0352 -0.3846
vn -0.9221 -0.0353 -0.3853
# 157 vertex normals

vt 0.0622 0.8587 0.0000
vt 0.0622 0.8726 0.0000
vt 0.0066 0.8726 0.0000
vt 0.0066 0.8587 0.0000
vt 0.0066 0.8453 0.0000
vt 0.0622 0.8453 0.0000
vt 0.0066 0.8317 0.0000
vt 0.0622 0.8317 0.0000
vt 0.0066 0.8183 0.0000
vt 0.0622 0.8183 0.0000
vt 0.0622 0.8047 0.0000
vt 0.0066 0.8047 0.0000
vt 0.0622 0.9951 0.0000
vt 0.0066 0.9951 0.0000
vt 0.0066 0.9813 0.0000
vt 0.0622 0.9813 0.0000
vt 0.0622 0.9679 0.0000
vt 0.0066 0.9679 0.0000
vt 0.0622 0.9541 0.0000
vt 0.0066 0.9541 0.0000
vt 0.0066 0.9404 0.0000
vt 0.0622 0.9404 0.0000
vt 0.0622 0.9271 0.0000
vt 0.0066 0.9267 0.0000
vt 0.0066 0.9131 0.0000
vt 0.0622 0.9131 0.0000
vt 0.0622 0.8998 0.0000
vt 0.0066 0.8998 0.0000
vt 0.0066 0.8860 0.0000
vt 0.0622 0.8860 0.0000
vt 0.2193 0.9209 0.0000
vt 0.2270 0.8856 0.0000
vt 0.2978 0.9206 0.0000
vt 0.2486 0.8581 0.0000
vt 0.2804 0.8414 0.0000
vt 0.3149 0.8412 0.0000
vt 0.3474 0.8561 0.0000
vt 0.3697 0.8832 0.0000
vt 0.3776 0.9179 0.0000
vt 0.3699 0.9532 0.0000
vt 0.3483 0.9808 0.0000
vt 0.3165 0.9974 0.0000
vt 0.2813 0.9973 0.0000
vt 0.2496 0.9825 0.0000
vt 0.2275 0.9547 0.0000
vt 0.5537 0.9637 0.0000
vt 0.5499 0.9591 0.0000
vt 0.5662 0.9508 0.0000
vt 0.5480 0.9537 0.0000
vt 0.5479 0.9478 0.0000
vt 0.5499 0.9424 0.0000
vt 0.5537 0.9379 0.0000
vt 0.5618 0.9343 0.0000
vt 0.5619 0.9673 0.0000
vt 0.5555 0.9754 0.0000
vt 0.5462 0.9810 0.0000
vt 0.5408 0.9712 0.0000
vt 0.5472 0.9684 0.0000
vt 0.5436 0.9617 0.0000
vt 0.5388 0.9629 0.0000
vt 0.5421 0.9544 0.0000
vt 0.5381 0.9547 0.0000
vt 0.5420 0.9471 0.0000
vt 0.5381 0.9467 0.0000
vt 0.5435 0.9399 0.0000
vt 0.5388 0.9387 0.0000
vt 0.5472 0.9331 0.0000
vt 0.5407 0.9305 0.0000
vt 0.5554 0.9263 0.0000
vt 0.5460 0.9208 0.0000
vt 0.4695 0.9700 0.0000
vt 0.4694 0.9575 0.0000
vt 0.4696 0.9825 0.0000
vt 0.4699 0.9963 0.0000
vt 0.4696 0.9202 0.0000
vt 0.4698 0.9069 0.0000
vt 0.4694 0.9327 0.0000
vt 0.4694 0.9450 0.0000
vt 0.3849 0.9654 0.0000
vt 0.3773 0.9524 0.0000
vt 0.3888 0.9606 0.0000
vt 0.3907 0.9551 0.0000
vt 0.3908 0.9491 0.0000
vt 0.3888 0.9436 0.0000
vt 0.3849 0.9391 0.0000
vt 0.3810 0.9368 0.0000
vt 0.3810 0.9679 0.0000
vt 0.3982 0.9730 0.0000
vt 0.3948 0.9803 0.0000
vt 0.3864 0.9752 0.0000
vt 0.3915 0.9702 0.0000
vt 0.3952 0.9633 0.0000
vt 0.4000 0.9645 0.0000
vt 0.3966 0.9558 0.0000
vt 0.4006 0.9560 0.0000
vt 0.3967 0.9483 0.0000
vt 0.4006 0.9478 0.0000
vt 0.3952 0.9408 0.0000
vt 0.4000 0.9395 0.0000
vt 0.3914 0.9340 0.0000
vt 0.3981 0.9311 0.0000
vt 0.3864 0.9294 0.0000
vt 0.3948 0.9241 0.0000
vt 0.2576 0.7961 0.0000
vt 0.2518 0.7961 0.0000
vt 0.2518 0.6365 0.0000
vt 0.2576 0.6365 0.0000
vt 0.2632 0.7961 0.0000
vt 0.2632 0.6365 0.0000
vt 0.2689 0.7961 0.0000
vt 0.2689 0.6365 0.0000
vt 0.2744 0.6365 0.0000
vt 0.2746 0.7961 0.0000
vt 0.2801 0.7961 0.0000
vt 0.2801 0.6365 0.0000
vt 0.2859 0.6365 0.0000
vt 0.2859 0.7961 0.0000
vt 0.2915 0.6365 0.0000
vt 0.2915 0.7961 0.0000
vt 0.2179 0.6365 0.0000
vt 0.2179 0.7961 0.0000
vt 0.2121 0.7961 0.0000
vt 0.2121 0.6365 0.0000
vt 0.2236 0.6365 0.0000
vt 0.2236 0.7961 0.0000
vt 0.2292 0.6365 0.0000
vt 0.2292 0.7961 0.0000
vt 0.2350 0.6365 0.0000
vt 0.2348 0.7961 0.0000
vt 0.2405 0.6365 0.0000
vt 0.2405 0.7961 0.0000
vt 0.2462 0.6365 0.0000
vt 0.2462 0.7961 0.0000
# 133 texture coords

g A31
usemtl Material__304
s 134217728
f 1/1/1 2/2/2 3/3/3 4/4/4 
f 4/4/4 5/5/5 6/6/6 1/1/1 
f 5/5/5 7/7/7 8/8/8 6/6/6 
f 7/7/7 9/9/9 10/10/10 8/8/8 
f 11/11/11 10/10/10 9/9/9 12/12/12 
f 11/13/11 12/14/12 13/15/13 14/16/14 
f 15/17/15 14/16/14 13/15/13 16/18/16 
f 17/19/17 15/17/15 16/18/16 18/20/18 
f 17/19/17 18/20/18 19/21/19 20/22/20 
f 21/23/21 20/22/20 19/21/19 22/24/22 
f 23/25/23 24/26/24 21/23/21 22/24/22 
f 25/27/25 24/26/24 23/25/23 26/28/26 
f 25/27/25 26/28/26 27/29/27 28/30/28 
f 2/2/2 28/30/28 27/29/27 3/3/3 
f 4/31/4 3/32/3 29/33/29 
f 3/32/3 27/34/27 29/33/29 
f 27/34/27 26/35/26 29/33/29 
f 26/35/26 23/36/23 29/33/29 
f 23/36/23 22/37/22 29/33/29 
f 22/37/22 19/38/19 29/33/29 
f 19/38/19 18/39/18 29/33/29 
f 18/39/18 16/40/16 29/33/29 
f 16/40/16 13/41/13 29/33/29 
f 13/41/13 12/42/12 29/33/29 
f 12/42/12 9/43/9 29/33/29 
f 9/43/9 7/44/7 29/33/29 
f 7/44/7 5/45/5 29/33/29 
f 5/45/5 4/31/4 29/33/29 
f 30/46/30 31/47/31 32/48/32 
f 31/47/31 33/49/33 32/48/32 
f 33/49/33 34/50/34 32/48/32 
f 34/50/34 35/51/35 32/48/32 
f 35/51/35 36/52/36 32/48/32 
f 36/52/36 37/53/37 32/48/32 
f 38/54/38 30/46/30 32/48/32 
f 39/55/39 40/56/40 41/57/41 42/58/42 
f 42/58/42 30/46/30 38/54/38 39/55/39 
f 43/59/43 31/47/31 30/46/30 42/58/42 
f 42/58/42 41/57/41 44/60/44 43/59/43 
f 33/49/33 31/47/31 43/59/43 45/61/45 
f 46/62/46 45/61/45 43/59/43 44/60/44 
f 47/63/47 34/50/34 33/49/33 45/61/45 
f 48/64/48 47/63/47 45/61/45 46/62/46 
f 34/50/34 47/63/47 49/65/49 35/51/35 
f 47/63/47 48/64/48 50/66/50 49/65/49 
f 49/65/49 51/67/51 36/52/36 35/51/35 
f 52/68/52 51/67/51 49/65/49 50/66/50 
f 51/67/51 53/69/53 37/53/37 36/52/36 
f 54/70/54 53/69/53 51/67/51 52/68/52 
f 46/62/46 44/60/44 55/71/55 56/72/56 
f 41/57/41 57/73/57 55/71/55 44/60/44 
f 57/73/57 41/57/41 40/56/40 58/74/58 
f 59/75/59 60/76/60 54/70/54 52/68/52 
f 59/75/59 52/68/52 50/66/50 61/77/61 
f 48/64/48 62/78/62 61/77/61 50/66/50 
f 56/72/56 62/78/62 48/64/48 46/62/46 
f 63/79/63 64/80/64 65/81/65 
f 65/81/65 64/80/64 66/82/66 
f 66/82/66 64/80/64 67/83/67 
f 67/83/67 64/80/64 68/84/68 
f 68/84/68 64/80/64 69/85/69 
f 69/85/69 64/80/64 70/86/70 
f 71/87/71 64/80/64 63/79/63 
f 72/88/72 73/89/73 74/90/74 75/91/75 
f 75/91/75 74/90/74 71/87/71 63/79/63 
f 76/92/76 75/91/75 63/79/63 65/81/65 
f 72/88/72 75/91/75 76/92/76 77/93/77 
f 66/82/66 78/94/78 76/92/76 65/81/65 
f 78/94/78 79/95/79 77/93/77 76/92/76 
f 80/96/80 78/94/78 66/82/66 67/83/67 
f 80/96/80 81/97/81 79/95/79 78/94/78 
f 68/84/68 82/98/82 80/96/80 67/83/67 
f 81/97/81 80/96/80 82/98/82 83/99/83 
f 69/85/69 84/100/84 82/98/82 68/84/68 
f 83/99/83 82/98/82 84/100/84 85/101/85 
f 69/85/69 70/86/70 86/102/86 84/100/84 
f 86/102/86 87/103/87 85/101/85 84/100/84 
f 56/72/56 55/71/55 77/93/77 79/95/79 
f 77/93/77 55/71/55 57/73/57 72/88/72 
f 73/89/73 72/88/72 57/73/57 58/74/58 
f 59/75/59 85/101/85 87/103/87 60/76/60 
f 85/101/85 59/75/59 61/77/61 83/99/83 
f 61/77/61 62/78/62 81/97/81 83/99/83 
f 56/72/56 79/95/79 81/97/81 62/78/62 
f 88/46/88 32/48/32 89/47/89 
f 89/47/89 32/48/32 90/49/90 
f 90/49/90 32/48/32 91/50/91 
f 91/50/91 32/48/32 92/51/92 
f 92/51/92 32/48/32 93/52/93 
f 93/52/93 32/48/32 37/53/37 
f 38/54/38 32/48/32 88/46/88 
f 94/57/94 40/56/40 39/55/39 95/58/95 
f 95/58/95 39/55/39 38/54/38 88/46/88 
f 88/46/88 89/47/89 96/59/96 95/58/95 
f 95/58/95 96/59/96 97/60/97 94/57/94 
f 89/47/89 90/49/90 98/61/98 96/59/96 
f 96/59/96 98/61/98 99/62/99 97/60/97 
f 98/61/98 90/49/90 91/50/91 100/63/100 
f 101/64/101 99/62/99 98/61/98 100/63/100 
f 100/63/100 91/50/91 92/51/92 102/65/102 
f 102/65/102 103/66/103 101/64/101 100/63/100 
f 93/52/93 104/67/104 102/65/102 92/51/92 
f 102/65/102 104/67/104 105/68/105 103/66/103 
f 53/69/53 104/67/104 93/52/93 37/53/37 
f 54/70/54 105/68/105 104/67/104 53/69/53 
f 99/62/99 106/72/106 107/71/107 97/60/97 
f 108/73/108 94/57/94 97/60/97 107/71/107 
f 108/73/108 58/74/58 40/56/40 94/57/94 
f 54/70/54 60/76/60 109/75/109 105/68/105 
f 109/75/109 110/77/110 103/66/103 105/68/105 
f 101/64/101 103/66/103 110/77/110 111/78/111 
f 101/64/101 111/78/111 106/72/106 99/62/99 
f 112/79/112 113/81/113 64/80/64 
f 113/81/113 114/82/114 64/80/64 
f 114/82/114 115/83/115 64/80/64 
f 115/83/115 116/84/116 64/80/64 
f 116/84/116 117/85/117 64/80/64 
f 117/85/117 70/86/70 64/80/64 
f 71/87/71 112/79/112 64/80/64 
f 74/90/74 73/89/73 118/88/118 119/91/119 
f 74/90/74 119/91/119 112/79/112 71/87/71 
f 120/92/120 113/81/113 112/79/112 119/91/119 
f 119/91/119 118/88/118 121/93/121 120/92/120 
f 122/94/122 114/82/114 113/81/113 120/92/120 
f 123/95/123 122/94/122 120/92/120 121/93/121 
f 115/83/115 114/82/114 122/94/122 124/96/124 
f 124/96/124 122/94/122 123/95/123 125/97/125 
f 116/84/116 115/83/115 124/96/124 126/98/126 
f 125/97/125 127/99/127 126/98/126 124/96/124 
f 117/85/117 116/84/116 126/98/126 128/100/128 
f 127/99/127 129/101/129 128/100/128 126/98/126 
f 117/85/117 128/100/128 86/102/86 70/86/70 
f 128/100/128 129/101/129 87/103/87 86/102/86 
f 121/93/121 107/71/107 106/72/106 123/95/123 
f 121/93/121 118/88/118 108/73/108 107/71/107 
f 58/74/58 108/73/108 118/88/118 73/89/73 
f 129/101/129 109/75/109 60/76/60 87/103/87 
f 127/99/127 110/77/110 109/75/109 129/101/129 
f 110/77/110 127/99/127 125/97/125 111/78/111 
f 123/95/123 106/72/106 111/78/111 125/97/125 
f 130/104/130 131/105/131 132/106/132 133/107/133 
f 134/108/134 130/104/130 133/107/133 135/109/135 
f 136/110/136 134/108/134 135/109/135 137/111/137 
f 136/110/136 137/111/137 138/112/138 139/113/139 
f 140/114/140 139/113/139 138/112/138 141/115/141 
f 142/116/142 143/117/143 140/114/140 141/115/141 
f 143/117/143 142/116/142 144/118/144 145/119/145 
f 146/120/146 147/121/147 145/122/145 144/123/144 
f 148/124/148 149/125/149 147/121/147 146/120/146 
f 149/125/149 148/124/148 150/126/150 151/127/151 
f 150/126/150 152/128/152 153/129/153 151/127/151 
f 154/130/154 155/131/155 153/129/153 152/128/152 
f 156/132/156 157/133/157 155/131/155 154/130/154 
f 157/133/157 156/132/156 132/106/132 131/105/131 
# 112 polygons - 42 triangles

