# 3ds Max Wavefront OBJ Exporter v0.97b - (c)2007 guruware
# 创建的文件:31.07.2017 09:54:20

mtllib A34.mtl

#
# object A34
#

v  -0.0000 0.1913 0.0000
v  -0.0028 0.1911 0.0052
v  -0.0003 0.1911 0.0061
v  -0.0049 0.1911 0.0035
v  -0.0058 0.1911 0.0010
v  0.0058 0.1911 0.0017
v  0.0059 0.1911 -0.0009
v  0.0045 0.1911 0.0041
v  0.0023 0.1911 0.0056
v  0.0092 0.1755 0.0220
v  -0.0014 0.1755 0.0238
v  -0.0014 0.1640 0.0255
v  0.0099 0.1640 0.0237
v  0.0069 0.1828 0.0164
v  -0.0009 0.1829 0.0177
v  -0.0085 0.1829 0.0155
v  -0.0115 0.1755 0.0210
v  -0.0124 0.1640 0.0224
v  -0.0144 0.1828 0.0104
v  -0.0195 0.1755 0.0139
v  -0.0210 0.1640 0.0147
v  -0.0176 0.1829 0.0029
v  -0.0237 0.1755 0.0041
v  -0.0254 0.1640 0.0042
v  0.0231 0.1755 0.0068
v  0.0237 0.1755 -0.0040
v  0.0177 0.1829 -0.0029
v  0.0173 0.1829 0.0050
v  0.0248 0.1640 0.0071
v  0.0255 0.1640 -0.0043
v  0.0180 0.1755 0.0160
v  0.0135 0.1829 0.0119
v  0.0194 0.1641 0.0170
v  -0.0031 0.0987 0.0058
v  -0.0088 0.1000 0.0159
v  -0.0149 0.1000 0.0105
v  -0.0053 0.0987 0.0040
v  -0.0003 0.0987 0.0066
v  -0.0010 0.1000 0.0181
v  0.0025 0.0988 0.0062
v  0.0070 0.1000 0.0168
v  0.0137 0.1000 0.0121
v  0.0049 0.0987 0.0045
v  0.0064 0.0987 0.0020
v  0.0176 0.1000 0.0051
v  0.0065 0.0988 -0.0010
v  0.0180 0.1000 -0.0029
v  -0.0179 0.1000 0.0030
v  -0.0065 0.0987 0.0012
v  -0.0003 0.1830 0.0061
v  -0.0028 0.1830 0.0052
v  -0.0049 0.1830 0.0035
v  -0.0058 0.1830 0.0010
v  0.0059 0.1830 -0.0009
v  0.0058 0.1830 0.0017
v  0.0045 0.1830 0.0041
v  0.0023 0.1830 0.0056
v  -0.0043 0.1911 -0.0040
v  -0.0022 0.1911 -0.0056
v  -0.0056 0.1911 -0.0017
v  0.0049 0.1911 -0.0035
v  0.0029 0.1911 -0.0052
v  0.0004 0.1911 -0.0059
v  0.0016 0.1755 -0.0239
v  0.0017 0.1640 -0.0255
v  -0.0096 0.1640 -0.0237
v  -0.0090 0.1755 -0.0219
v  -0.0066 0.1829 -0.0164
v  0.0012 0.1828 -0.0176
v  -0.0177 0.1755 -0.0160
v  -0.0131 0.1828 -0.0119
v  -0.0190 0.1640 -0.0170
v  -0.0170 0.1829 -0.0050
v  -0.0230 0.1755 -0.0066
v  -0.0247 0.1640 -0.0071
v  0.0197 0.1755 -0.0139
v  0.0147 0.1829 -0.0103
v  0.0211 0.1640 -0.0148
v  0.0119 0.1755 -0.0210
v  0.0089 0.1829 -0.0155
v  0.0127 0.1640 -0.0224
v  -0.0135 0.1000 -0.0120
v  -0.0049 0.0988 -0.0044
v  -0.0063 0.0987 -0.0020
v  -0.0175 0.1000 -0.0050
v  -0.0068 0.1000 -0.0168
v  -0.0024 0.0988 -0.0061
v  0.0012 0.1000 -0.0182
v  0.0004 0.0987 -0.0065
v  0.0032 0.0988 -0.0058
v  0.0090 0.1000 -0.0159
v  0.0150 0.1000 -0.0106
v  0.0054 0.0987 -0.0038
v  -0.0022 0.1830 -0.0056
v  -0.0043 0.1830 -0.0040
v  -0.0056 0.1830 -0.0017
v  0.0049 0.1830 -0.0035
v  0.0030 0.1830 -0.0052
v  0.0004 0.1830 -0.0059
v  -0.0083 0.1523 0.0057
v  -0.0094 0.1524 0.0016
v  -0.0102 0.0430 0.0002
v  -0.0090 0.0429 0.0043
v  -0.0063 0.0429 0.0076
v  -0.0056 0.1522 0.0090
v  -0.0025 0.0428 0.0092
v  -0.0018 0.1521 0.0106
v  0.0024 0.1521 0.0105
v  0.0016 0.0428 0.0091
v  0.0054 0.0428 0.0071
v  0.0061 0.1521 0.0085
v  0.0078 0.0428 0.0036
v  0.0085 0.1522 0.0050
v  0.0086 0.0429 -0.0005
v  0.0093 0.1522 0.0009
v  0.0082 0.1523 -0.0031
v  0.0074 0.0430 -0.0045
v  0.0047 0.0430 -0.0078
v  0.0054 0.1524 -0.0064
v  0.0008 0.0431 -0.0093
v  0.0016 0.1524 -0.0079
v  -0.0033 0.0431 -0.0092
v  -0.0027 0.1525 -0.0078
v  -0.0062 0.1525 -0.0059
v  -0.0069 0.0431 -0.0073
v  -0.0094 0.0431 -0.0038
v  -0.0087 0.1524 -0.0024
# 127 vertices

vn -0.0105 0.9994 0.0328
vn -0.0224 0.9994 0.0264
vn -0.0322 0.9994 0.0129
vn 0.0341 0.9994 0.0013
vn 0.0296 0.9994 0.0167
vn 0.0193 0.9994 0.0283
vn 0.0065 0.9994 0.0336
vn 0.1611 0.1484 0.9757
vn 0.1297 0.6245 0.7702
vn -0.2108 0.6265 0.7504
vn -0.2695 0.1442 0.9522
vn -0.5153 0.6335 0.5772
vn -0.6562 0.1425 0.7410
vn -0.7078 0.6357 0.3082
vn -0.9110 0.1452 0.3860
vn 0.7803 0.6241 0.0417
vn 0.9869 0.1504 0.0581
vn 0.6828 0.6241 0.3798
vn 0.8669 0.1485 0.4758
vn 0.4415 0.6275 0.6414
vn 0.5634 0.1475 0.8129
vn -0.0758 -0.9934 0.0862
vn -0.0315 -0.9933 0.1113
vn 0.0262 -0.9938 0.1079
vn 0.0553 -0.9939 0.0956
vn 0.0991 -0.9935 0.0557
vn 0.1097 -0.9940 -0.0040
vn -0.1056 -0.9935 0.0435
vn -0.6583 -0.1127 0.7443
vn -0.2743 -0.1130 0.9550
vn 0.1576 -0.1127 0.9811
vn 0.5689 -0.1126 0.8146
vn 0.8702 -0.1135 0.4795
vn 0.9919 -0.1142 0.0560
vn -0.9181 -0.1139 0.3796
vn -0.0025 1.0000 0.0084
vn -0.0157 0.9999 0.0035
vn -0.0084 0.9999 0.0137
vn 0.0086 1.0000 0.0004
vn 0.0075 1.0000 0.0042
vn -0.0002 0.9999 0.0162
vn 0.0116 0.9999 0.0112
vn -0.3048 0.0000 0.9524
vn -0.6477 0.0000 0.7619
vn -0.9285 0.0000 0.3714
vn 0.9993 0.0000 0.0370
vn 0.8706 0.0000 0.4920
vn 0.5634 0.0000 0.8262
vn 0.1887 0.0000 0.9820
vn -0.0209 0.9994 -0.0275
vn -0.0300 0.9994 -0.0177
vn -0.0349 0.9994 -0.0025
vn 0.0317 0.9994 -0.0127
vn 0.0227 0.9994 -0.0253
vn 0.0092 0.9994 -0.0327
vn -0.0052 0.9994 -0.0337
vn -0.1691 0.1477 -0.9745
vn -0.1259 0.6282 -0.7678
vn -0.4477 0.6285 -0.6360
vn -0.5652 0.1455 -0.8120
vn -0.6701 0.6349 -0.3845
vn -0.8597 0.1441 -0.4900
vn -0.7720 0.6333 -0.0540
vn -0.9872 0.1465 -0.0628
vn 0.7213 0.6273 -0.2935
vn 0.9146 0.1469 -0.3766
vn 0.5226 0.6311 -0.5732
vn 0.6656 0.1370 -0.7336
vn 0.2035 0.6351 -0.7451
vn 0.2726 0.1390 -0.9520
vn -0.0914 -0.9938 -0.0628
vn -0.0604 -0.9944 -0.0872
vn -0.0280 -0.9939 -0.1069
vn 0.0386 -0.9939 -0.1032
vn 0.0661 -0.9939 -0.0879
vn 0.1048 -0.9940 -0.0318
vn -0.1140 -0.9935 -0.0062
vn -0.8642 -0.1129 -0.4903
vn -0.5709 -0.1126 -0.8133
vn -0.1675 -0.1124 -0.9794
vn 0.2790 -0.1127 -0.9537
vn 0.6630 -0.1126 -0.7401
vn 0.9196 -0.1139 -0.3760
vn -0.9918 -0.1143 -0.0565
vn -0.0154 0.9999 -0.0052
vn -0.0067 0.9999 -0.0148
vn -0.0086 1.0000 -0.0006
vn 0.0079 1.0000 -0.0032
vn 0.0058 1.0000 -0.0063
vn -0.0056 0.9999 -0.0153
vn 0.0074 0.9999 -0.0144
vn -0.6061 0.0000 -0.7954
vn -0.8609 0.0000 -0.5087
vn -0.9975 0.0000 -0.0712
vn 0.9285 0.0000 -0.3713
vn 0.6782 0.0042 -0.7349
vn 0.2647 0.0016 -0.9643
vn -0.1519 0.0000 -0.9884
vn -0.9628 0.0031 0.2701
vn -0.7644 -0.0034 0.6448
vn -0.4084 -0.0091 0.9127
vn 0.0480 -0.0131 0.9988
vn 0.4520 -0.0145 0.8919
vn 0.8247 -0.0125 0.5654
vn 0.9815 -0.0087 0.1914
vn 0.9628 -0.0031 -0.2701
vn 0.7585 0.0031 -0.6517
vn 0.3880 0.0093 -0.9216
vn -0.0237 0.0129 -0.9996
vn -0.4667 0.0143 -0.8843
vn -0.8138 0.0126 -0.5811
vn -0.9837 0.0090 -0.1798
# 112 vertex normals

vt 0.4303 0.8511 0.0000
vt 0.4394 0.8387 0.0000
vt 0.4335 0.8371 0.0000
vt 0.4443 0.8417 0.0000
vt 0.4481 0.8465 0.0000
vt 0.4164 0.8413 0.0000
vt 0.4125 0.8460 0.0000
vt 0.4213 0.8384 0.0000
vt 0.4273 0.8370 0.0000
vt 0.4194 0.7750 0.0000
vt 0.4432 0.7755 0.0000
vt 0.4444 0.7557 0.0000
vt 0.4186 0.7553 0.0000
vt 0.4210 0.7938 0.0000
vt 0.4408 0.7940 0.0000
vt 0.4605 0.7977 0.0000
vt 0.4669 0.7783 0.0000
vt 0.4703 0.7576 0.0000
vt 0.4785 0.8048 0.0000
vt 0.4907 0.7843 0.0000
vt 0.4966 0.7602 0.0000
vt 0.4935 0.8173 0.0000
vt 0.5142 0.7947 0.0000
vt 0.5238 0.7625 0.0000
vt 0.3719 0.7823 0.0000
vt 0.3481 0.7918 0.0000
vt 0.3676 0.8152 0.0000
vt 0.3829 0.8032 0.0000
vt 0.3669 0.7580 0.0000
vt 0.3395 0.7593 0.0000
vt 0.3955 0.7771 0.0000
vt 0.4011 0.7965 0.0000
vt 0.3927 0.7563 0.0000
vt 0.4587 0.5991 0.0000
vt 0.4619 0.6291 0.0000
vt 0.4813 0.6298 0.0000
vt 0.4717 0.5991 0.0000
vt 0.4428 0.5991 0.0000
vt 0.4431 0.6278 0.0000
vt 0.4261 0.5991 0.0000
vt 0.4247 0.6276 0.0000
vt 0.4057 0.6282 0.0000
vt 0.4102 0.5991 0.0000
vt 0.3969 0.5991 0.0000
vt 0.3866 0.6282 0.0000
vt 0.3881 0.5991 0.0000
vt 0.3675 0.6234 0.0000
vt 0.5004 0.6258 0.0000
vt 0.4809 0.5991 0.0000
vt 0.4361 0.8222 0.0000
vt 0.4467 0.8243 0.0000
vt 0.4555 0.8280 0.0000
vt 0.4614 0.8330 0.0000
vt 0.3995 0.8322 0.0000
vt 0.4055 0.8273 0.0000
vt 0.4144 0.8238 0.0000
vt 0.4251 0.8221 0.0000
vt 0.9429 0.5943 0.0000
vt 0.9366 0.5943 0.0000
vt 0.9366 0.4219 0.0000
vt 0.9429 0.4219 0.0000
vt 0.9489 0.4219 0.0000
vt 0.9489 0.5943 0.0000
vt 0.9550 0.4219 0.0000
vt 0.9550 0.5943 0.0000
vt 0.9612 0.5943 0.0000
vt 0.9610 0.4219 0.0000
vt 0.9672 0.4219 0.0000
vt 0.9672 0.5943 0.0000
vt 0.9734 0.4219 0.0000
vt 0.9734 0.5943 0.0000
vt 0.9795 0.4219 0.0000
vt 0.9795 0.5943 0.0000
vt 0.9000 0.5943 0.0000
vt 0.8937 0.5943 0.0000
vt 0.8937 0.4219 0.0000
vt 0.9000 0.4219 0.0000
vt 0.9061 0.4219 0.0000
vt 0.9061 0.5943 0.0000
vt 0.9122 0.4219 0.0000
vt 0.9122 0.5943 0.0000
vt 0.9185 0.4219 0.0000
vt 0.9183 0.5943 0.0000
vt 0.9244 0.5943 0.0000
vt 0.9244 0.4219 0.0000
vt 0.9306 0.4219 0.0000
vt 0.9306 0.5943 0.0000
# 87 texture coords

g A34
usemtl Material__12
s off
f 1/1/1 2/2/1 3/3/1 
f 1/1/2 4/4/2 2/2/2 
f 1/1/3 5/5/3 4/4/3 
f 1/1/4 6/6/4 7/7/4 
f 1/1/5 8/8/5 6/6/5 
f 1/1/6 9/9/6 8/8/6 
f 1/1/7 3/3/7 9/9/7 
f 10/10/8 11/11/8 12/12/8 13/13/8 
f 14/14/9 15/15/9 11/11/9 10/10/9 
f 16/16/10 17/17/10 11/11/10 15/15/10 
f 11/11/11 17/17/11 18/18/11 12/12/11 
f 17/17/12 16/16/12 19/19/12 20/20/12 
f 20/20/13 21/21/13 18/18/13 17/17/13 
f 20/20/14 19/19/14 22/22/14 23/23/14 
f 23/23/15 24/24/15 21/21/15 20/20/15 
f 25/25/16 26/26/16 27/27/16 28/28/16 
f 29/29/17 30/30/17 26/26/17 25/25/17 
f 31/31/18 25/25/18 28/28/18 32/32/18 
f 33/33/19 29/29/19 25/25/19 31/31/19 
f 14/14/20 10/10/20 31/31/20 32/32/20 
f 10/10/21 13/13/21 33/33/21 31/31/21 
f 34/34/22 35/35/22 36/36/22 37/37/22 
f 35/35/23 34/34/23 38/38/23 39/39/23 
f 38/38/24 40/40/24 41/41/24 39/39/24 
f 42/42/25 41/41/25 40/40/25 43/43/25 
f 43/43/26 44/44/26 45/45/26 42/42/26 
f 44/44/27 46/46/27 47/47/27 45/45/27 
f 37/37/28 36/36/28 48/48/28 49/49/28 
f 18/18/29 21/21/29 36/36/29 35/35/29 
f 12/12/30 18/18/30 35/35/30 39/39/30 
f 39/39/31 41/41/31 13/13/31 12/12/31 
f 33/33/32 13/13/32 41/41/32 42/42/32 
f 42/42/33 45/45/33 29/29/33 33/33/33 
f 30/30/34 29/29/34 45/45/34 47/47/34 
f 48/48/35 36/36/35 21/21/35 24/24/35 
f 15/15/36 50/50/36 51/51/36 16/16/36 
f 52/52/37 19/19/37 16/16/37 51/51/37 
f 53/53/38 22/22/38 19/19/38 52/52/38 
f 27/27/39 54/54/39 55/55/39 28/28/39 
f 56/56/40 32/32/40 28/28/40 55/55/40 
f 57/57/41 14/14/41 32/32/41 56/56/41 
f 50/50/42 15/15/42 14/14/42 57/57/42 
f 50/50/43 3/3/43 2/2/43 51/51/43 
f 2/2/44 4/4/44 52/52/44 51/51/44 
f 5/5/45 53/53/45 52/52/45 4/4/45 
f 55/55/46 54/54/46 7/7/46 6/6/46 
f 56/56/47 55/55/47 6/6/47 8/8/47 
f 9/9/48 57/57/48 56/56/48 8/8/48 
f 50/50/49 57/57/49 9/9/49 3/3/49 
f 58/2/50 1/1/50 59/3/50 
f 60/4/51 1/1/51 58/2/51 
f 5/5/52 1/1/52 60/4/52 
f 61/6/53 1/1/53 7/7/53 
f 62/8/54 1/1/54 61/6/54 
f 63/9/55 1/1/55 62/8/55 
f 59/3/56 1/1/56 63/9/56 
f 64/10/57 65/13/57 66/12/57 67/11/57 
f 67/11/58 68/15/58 69/14/58 64/10/58 
f 67/11/59 70/17/59 71/16/59 68/15/59 
f 67/11/60 66/12/60 72/18/60 70/17/60 
f 73/19/61 71/16/61 70/17/61 74/20/61 
f 74/20/62 70/17/62 72/18/62 75/21/62 
f 74/20/63 23/23/63 22/22/63 73/19/63 
f 74/20/64 75/21/64 24/24/64 23/23/64 
f 26/26/65 76/25/65 77/28/65 27/27/65 
f 78/29/66 76/25/66 26/26/66 30/30/66 
f 76/25/67 79/31/67 80/32/67 77/28/67 
f 78/29/68 81/33/68 79/31/68 76/25/68 
f 69/14/69 80/32/69 79/31/69 64/10/69 
f 65/13/70 64/10/70 79/31/70 81/33/70 
f 82/35/71 83/34/71 84/37/71 85/36/71 
f 82/35/72 86/39/72 87/38/72 83/34/72 
f 86/39/73 88/41/73 89/40/73 87/38/73 
f 90/43/74 89/40/74 88/41/74 91/42/74 
f 90/43/75 91/42/75 92/45/75 93/44/75 
f 93/44/76 92/45/76 47/47/76 46/46/76 
f 49/49/77 48/48/77 85/36/77 84/37/77 
f 75/21/78 72/18/78 82/35/78 85/36/78 
f 86/39/79 82/35/79 72/18/79 66/12/79 
f 66/12/80 65/13/80 88/41/80 86/39/80 
f 88/41/81 65/13/81 81/33/81 91/42/81 
f 78/29/82 92/45/82 91/42/82 81/33/82 
f 78/29/83 30/30/83 47/47/83 92/45/83 
f 85/36/84 48/48/84 24/24/84 75/21/84 
f 94/50/85 68/15/85 71/16/85 95/51/85 
f 73/19/86 96/52/86 95/51/86 71/16/86 
f 96/52/87 73/19/87 22/22/87 53/53/87 
f 54/54/88 27/27/88 77/28/88 97/55/88 
f 80/32/89 98/56/89 97/55/89 77/28/89 
f 99/57/90 98/56/90 80/32/90 69/14/90 
f 69/14/91 68/15/91 94/50/91 99/57/91 
f 59/3/92 94/50/92 95/51/92 58/2/92 
f 60/4/93 58/2/93 95/51/93 96/52/93 
f 53/53/94 5/5/94 60/4/94 96/52/94 
f 97/55/95 61/6/95 7/7/95 54/54/95 
f 97/55/96 98/56/96 62/8/96 61/6/96 
f 99/57/97 63/9/97 62/8/97 98/56/97 
f 63/9/98 99/57/98 94/50/98 59/3/98 
f 100/58/99 101/59/99 102/60/99 103/61/99 
f 100/58/100 103/61/100 104/62/100 105/63/100 
f 105/63/101 104/62/101 106/64/101 107/65/101 
f 108/66/102 107/65/102 106/64/102 109/67/102 
f 109/67/103 110/68/103 111/69/103 108/66/103 
f 110/68/104 112/70/104 113/71/104 111/69/104 
f 112/70/105 114/72/105 115/73/105 113/71/105 
f 116/74/106 115/75/106 114/76/106 117/77/106 
f 117/77/107 118/78/107 119/79/107 116/74/107 
f 118/78/108 120/80/108 121/81/108 119/79/108 
f 120/80/109 122/82/109 123/83/109 121/81/109 
f 124/84/110 123/83/110 122/82/110 125/85/110 
f 125/85/111 126/86/111 127/87/111 124/84/111 
f 126/86/112 102/60/112 101/59/112 127/87/112 
# 98 polygons - 14 triangles

