# 3ds Max Wavefront OBJ Exporter v0.97b - (c)2007 guruware
# 创建的文件:31.07.2017 09:53:37

mtllib A35.mtl

#
# object A35
#

v  0.0919 0.0547 -0.0045
v  0.0921 0.0548 -0.0003
v  0.0956 0.0465 -0.0024
v  0.0929 0.0532 0.0034
v  0.0942 0.0503 0.0061
v  0.0956 0.0466 0.0070
v  0.0944 0.0460 -0.0119
v  0.0933 0.0498 -0.0110
v  0.0923 0.0529 -0.0083
v  0.0887 0.0547 -0.0105
v  0.0840 0.0550 -0.0119
v  0.0833 0.0580 -0.0056
v  0.0881 0.0572 -0.0052
v  0.0884 0.0574 0.0007
v  0.0837 0.0581 0.0014
v  0.0896 0.0551 0.0059
v  0.0851 0.0555 0.0077
v  0.0913 0.0510 0.0097
v  0.0872 0.0506 0.0120
v  0.0934 0.0458 0.0110
v  0.0896 0.0444 0.0136
v  0.0918 0.0449 -0.0155
v  0.0901 0.0503 -0.0141
v  0.0877 0.0434 -0.0176
v  0.0857 0.0498 -0.0162
v  0.0444 0.0304 0.0029
v  0.0433 0.0362 0.0076
v  0.0423 0.0381 0.0031
v  0.0440 0.0310 0.0015
v  0.0420 0.0380 -0.0017
v  0.0440 0.0309 -0.0000
v  0.0425 0.0358 -0.0063
v  0.0441 0.0303 -0.0014
v  0.0437 0.0322 -0.0092
v  0.0445 0.0291 -0.0023
v  0.0449 0.0277 -0.0022
v  0.0451 0.0277 -0.0099
v  0.0465 0.0284 0.0121
v  0.0447 0.0328 0.0106
v  0.0448 0.0293 0.0040
v  0.0453 0.0279 0.0048
v  0.0979 0.0377 -0.0044
v  0.0982 0.0379 -0.0002
v  0.0979 0.0397 0.0035
v  0.0969 0.0428 0.0061
v  0.0957 0.0422 -0.0108
v  0.0970 0.0393 -0.0082
v  0.0954 0.0355 -0.0104
v  0.0967 0.0334 -0.0049
v  0.0936 0.0296 -0.0052
v  0.0921 0.0322 -0.0115
v  0.0971 0.0335 0.0008
v  0.0941 0.0299 0.0017
v  0.0966 0.0361 0.0061
v  0.0935 0.0329 0.0080
v  0.0953 0.0404 0.0098
v  0.0919 0.0381 0.0122
v  0.0936 0.0397 -0.0141
v  0.0899 0.0372 -0.0160
v  0.0492 0.0203 0.0085
v  0.0462 0.0253 0.0038
v  0.0463 0.0246 0.0026
v  0.0496 0.0181 0.0042
v  0.0462 0.0246 0.0009
v  0.0493 0.0179 -0.0007
v  0.0459 0.0252 -0.0005
v  0.0482 0.0198 -0.0051
v  0.0454 0.0263 -0.0014
v  0.0467 0.0233 -0.0083
v  0.0458 0.0265 0.0049
v  0.0481 0.0239 0.0117
v  0.0586 0.0363 0.0021
v  0.0584 0.0369 -0.0001
v  0.0006 0.0153 -0.0009
v  0.0008 0.0147 0.0014
v  0.0013 0.0133 0.0031
v  0.0591 0.0348 0.0040
v  0.0020 0.0113 0.0042
v  0.0598 0.0328 0.0049
v  0.0029 0.0091 0.0041
v  0.0606 0.0306 0.0049
v  0.0036 0.0071 0.0029
v  0.0614 0.0286 0.0037
v  0.0041 0.0058 0.0009
v  0.0619 0.0274 0.0017
v  0.0043 0.0054 -0.0014
v  0.0621 0.0270 -0.0006
v  0.0041 0.0060 -0.0036
v  0.0619 0.0276 -0.0028
v  0.0036 0.0075 -0.0055
v  0.0614 0.0290 -0.0047
v  0.0606 0.0311 -0.0056
v  0.0029 0.0095 -0.0063
v  0.0020 0.0118 -0.0063
v  0.0598 0.0333 -0.0055
v  0.0013 0.0137 -0.0051
v  0.0591 0.0352 -0.0044
v  0.0008 0.0149 -0.0033
v  0.0586 0.0365 -0.0024
v  0.0065 0.0224 0.0124
v  -0.0007 0.0224 0.0145
v  -0.0006 0.0199 0.0197
v  0.0092 0.0199 0.0169
v  0.0163 0.0199 0.0096
v  0.0116 0.0224 0.0070
v  0.0187 0.0199 -0.0003
v  0.0135 0.0224 -0.0002
v  0.0159 0.0199 -0.0101
v  0.0114 0.0224 -0.0075
v  0.0086 0.0199 -0.0173
v  0.0060 0.0224 -0.0127
v  -0.0013 0.0199 -0.0197
v  -0.0012 0.0224 -0.0145
v  -0.0112 0.0199 -0.0169
v  -0.0084 0.0224 -0.0124
v  -0.0136 0.0224 -0.0070
v  -0.0183 0.0199 -0.0096
v  -0.0207 0.0199 0.0003
v  -0.0154 0.0224 0.0002
v  -0.0179 0.0199 0.0101
v  -0.0134 0.0224 0.0075
v  -0.0106 0.0199 0.0173
v  -0.0080 0.0224 0.0126
v  -0.0010 0.0216 0.0000
v  -0.0006 0.0010 0.0211
v  0.0099 0.0010 0.0181
v  0.0175 0.0010 0.0102
v  0.0200 0.0010 -0.0004
v  0.0170 0.0010 -0.0108
v  0.0093 0.0010 -0.0184
v  -0.0013 0.0010 -0.0211
v  -0.0119 0.0010 -0.0181
v  -0.0195 0.0010 -0.0102
v  -0.0220 0.0011 0.0004
v  -0.0190 0.0010 0.0108
v  -0.0112 0.0010 0.0184
# 136 vertices

vn 0.7478 0.6493 -0.1386
vn 0.7575 0.6523 0.0256
vn 0.9401 0.3337 -0.0697
vn 0.7883 0.5939 0.1609
vn 0.8357 0.4829 0.2616
vn 0.8966 0.3311 0.2940
vn 0.8623 0.2747 -0.4254
vn 0.8072 0.4473 -0.3851
vn 0.7627 0.5833 -0.2796
vn 0.3949 0.7686 -0.5033
vn -0.1045 0.7735 -0.6252
vn -0.1521 0.9609 -0.2312
vn 0.3586 0.9097 -0.2095
vn 0.3746 0.9190 0.1232
vn -0.1309 0.9704 0.2028
vn 0.4450 0.7918 0.4184
vn -0.0437 0.8071 0.5888
vn 0.5439 0.5574 0.6273
vn 0.0875 0.5047 0.8588
vn 0.6663 0.2576 0.6997
vn 0.2382 0.1245 0.9632
vn 0.5853 0.1817 -0.7902
vn 0.4782 0.5099 -0.7150
vn 0.1400 0.0118 -0.9901
vn 0.0052 0.4357 -0.9001
vn -0.9561 -0.2676 0.1194
vn -0.8026 0.3313 0.4960
vn -0.8660 0.4553 0.2065
vn -0.9625 -0.2579 0.0844
vn -0.8842 0.4498 -0.1263
vn -0.9657 -0.2568 0.0393
vn -0.8538 0.2992 -0.4259
vn -0.9599 -0.2803 0.0015
vn -0.7585 0.0596 -0.6489
vn -0.9555 -0.2940 -0.0231
vn -0.9456 -0.3244 -0.0238
vn -0.6670 -0.2655 -0.6962
vn -0.5914 -0.1695 0.7884
vn -0.7135 0.1061 0.6926
vn -0.9473 -0.2882 0.1396
vn -0.9318 -0.3220 0.1677
vn 0.9878 -0.0187 -0.1543
vn 0.9999 -0.0113 0.0060
vn 0.9863 0.0620 0.1527
vn 0.9486 0.1850 0.2569
vn 0.9108 0.1397 -0.3884
vn 0.9547 0.0449 -0.2940
vn 0.7957 -0.3324 -0.5063
vn 0.8677 -0.4514 -0.2082
vn 0.5129 -0.8288 -0.2236
vn 0.4195 -0.6664 -0.6164
vn 0.8876 -0.4457 0.1163
vn 0.5427 -0.8136 0.2088
vn 0.8615 -0.3003 0.4095
vn 0.5030 -0.6266 0.5952
vn 0.7813 -0.0508 0.6220
vn 0.3957 -0.2854 0.8729
vn 0.6956 -0.1110 -0.7098
vn 0.2822 -0.3722 -0.8842
vn -0.3892 -0.7626 0.5167
vn -0.8999 -0.4128 0.1404
vn -0.8984 -0.4271 0.1021
vn -0.3614 -0.9047 0.2257
vn -0.9018 -0.4290 0.0525
vn -0.3794 -0.9189 -0.1085
vn -0.9119 -0.4100 0.0193
vn -0.4585 -0.7905 -0.4061
vn -0.9268 -0.3753 -0.0099
vn -0.5672 -0.5621 -0.6019
vn -0.9139 -0.3717 0.1631
vn -0.4562 -0.4948 0.7396
vn -0.3140 0.8246 0.4706
vn -0.3502 0.9360 0.0356
vn -0.3502 0.9360 0.0362
vn -0.3138 0.8242 0.4714
vn -0.2195 0.5603 0.7987
vn -0.2201 0.5621 0.7972
vn -0.0815 0.1826 0.9798
vn 0.0775 -0.2440 0.9667
vn 0.0778 -0.2449 0.9664
vn 0.2236 -0.6278 0.7455
vn 0.2236 -0.6278 0.7456
vn 0.3186 -0.8676 0.3818
vn 0.3188 -0.8680 0.3807
vn 0.3503 -0.9359 -0.0383
vn 0.3503 -0.9358 -0.0389
vn 0.3149 -0.8263 -0.4670
vn 0.3148 -0.8260 -0.4675
vn 0.2157 -0.5485 -0.8078
vn 0.2155 -0.5478 -0.8084
vn 0.0728 -0.1585 -0.9847
vn -0.0784 0.2456 -0.9662
vn -0.0786 0.2462 -0.9660
vn -0.2224 0.6231 -0.7498
vn -0.2225 0.6235 -0.7495
vn -0.3182 0.8659 -0.3860
vn -0.3180 0.8654 -0.3872
vn 0.1189 0.9734 0.1960
vn 0.0041 0.9732 0.2301
vn 0.0145 0.5293 0.8483
vn 0.4376 0.5293 0.7268
vn 0.7444 0.5286 0.4081
vn 0.2009 0.9732 0.1116
vn 0.8490 0.5282 -0.0168
vn 0.2334 0.9724 -0.0043
vn 0.7289 0.5277 -0.4361
vn 0.1992 0.9726 -0.1195
vn 0.4140 0.5284 -0.7412
vn 0.1122 0.9729 -0.2020
vn -0.0124 0.5295 -0.8482
vn -0.0035 0.9731 -0.2302
vn -0.4368 0.5304 -0.7266
vn -0.1171 0.9738 -0.1951
vn -0.1996 0.9737 -0.1095
vn -0.7432 0.5305 -0.4078
vn -0.8481 0.5296 0.0167
vn -0.2296 0.9733 0.0041
vn -0.7286 0.5286 0.4356
vn -0.1992 0.9727 0.1189
vn -0.4131 0.5284 0.7417
vn -0.1119 0.9729 0.2022
vn 0.0001 1.0000 -0.0002
vn 0.0167 0.0706 0.9974
vn 0.5147 0.0706 0.8545
vn 0.8748 0.0706 0.4794
vn 0.9973 0.0704 -0.0202
vn 0.8562 0.0704 -0.5118
vn 0.4864 0.0705 -0.8709
vn -0.0141 0.0706 -0.9974
vn -0.5136 0.0707 -0.8551
vn -0.8743 0.0707 -0.4803
vn -0.9973 0.0706 0.0202
vn -0.8557 0.0706 0.5127
vn -0.4854 0.0705 0.8714
# 134 vertex normals

vt 0.6080 0.8428 0.0000
vt 0.6171 0.8427 0.0000
vt 0.6127 0.8774 0.0000
vt 0.6257 0.8466 0.0000
vt 0.6332 0.8544 0.0000
vt 0.6384 0.8668 0.0000
vt 0.5867 0.8678 0.0000
vt 0.5919 0.8551 0.0000
vt 0.5995 0.8471 0.0000
vt 0.5957 0.8335 0.0000
vt 0.5941 0.8231 0.0000
vt 0.6064 0.8206 0.0000
vt 0.6069 0.8299 0.0000
vt 0.6182 0.8294 0.0000
vt 0.6186 0.8203 0.0000
vt 0.6294 0.8327 0.0000
vt 0.6310 0.8222 0.0000
vt 0.6401 0.8397 0.0000
vt 0.6432 0.8259 0.0000
vt 0.6503 0.8517 0.0000
vt 0.6568 0.8298 0.0000
vt 0.5749 0.8532 0.0000
vt 0.5849 0.8408 0.0000
vt 0.5681 0.8317 0.0000
vt 0.5816 0.8271 0.0000
vt 0.6243 0.7112 0.0000
vt 0.6265 0.7371 0.0000
vt 0.6166 0.7371 0.0000
vt 0.6159 0.7112 0.0000
vt 0.6068 0.7371 0.0000
vt 0.6069 0.7112 0.0000
vt 0.5968 0.7371 0.0000
vt 0.5986 0.7112 0.0000
vt 0.5866 0.7375 0.0000
vt 0.5918 0.7112 0.0000
vt 0.5874 0.7112 0.0000
vt 0.5763 0.7396 0.0000
vt 0.6469 0.7396 0.0000
vt 0.6367 0.7375 0.0000
vt 0.6312 0.7112 0.0000
vt 0.6355 0.7112 0.0000
vt 0.6149 0.9960 0.0000
vt 0.6110 0.9960 0.0000
vt 0.6110 0.8885 0.0000
vt 0.6149 0.8885 0.0000
vt 0.6187 0.8885 0.0000
vt 0.6187 0.9960 0.0000
vt 0.6225 0.8885 0.0000
vt 0.6225 0.9960 0.0000
vt 0.6262 0.8885 0.0000
vt 0.6263 0.9960 0.0000
vt 0.6301 0.8885 0.0000
vt 0.6301 0.9960 0.0000
vt 0.6340 0.8885 0.0000
vt 0.6340 0.9960 0.0000
vt 0.6377 0.8885 0.0000
vt 0.6377 0.9960 0.0000
vt 0.5881 0.8885 0.0000
vt 0.5881 0.9960 0.0000
vt 0.5842 0.9960 0.0000
vt 0.5842 0.8885 0.0000
vt 0.5920 0.8885 0.0000
vt 0.5920 0.9960 0.0000
vt 0.5958 0.9960 0.0000
vt 0.5958 0.8885 0.0000
vt 0.5997 0.8885 0.0000
vt 0.5995 0.9960 0.0000
vt 0.6034 0.8885 0.0000
vt 0.6034 0.9960 0.0000
vt 0.6072 0.8885 0.0000
vt 0.6072 0.9960 0.0000
vt 0.6966 0.9729 0.0000
vt 0.7173 0.9729 0.0000
vt 0.7234 0.9956 0.0000
vt 0.6906 0.9956 0.0000
vt 0.6621 0.9792 0.0000
vt 0.6787 0.9626 0.0000
vt 0.6457 0.9507 0.0000
vt 0.6684 0.9447 0.0000
vt 0.6457 0.9179 0.0000
vt 0.6684 0.9239 0.0000
vt 0.6621 0.8894 0.0000
vt 0.6787 0.9060 0.0000
vt 0.6906 0.8730 0.0000
vt 0.6966 0.8957 0.0000
vt 0.7234 0.8730 0.0000
vt 0.7174 0.8957 0.0000
vt 0.7353 0.9060 0.0000
vt 0.7519 0.8894 0.0000
vt 0.7683 0.9179 0.0000
vt 0.7456 0.9240 0.0000
vt 0.7683 0.9507 0.0000
vt 0.7456 0.9447 0.0000
vt 0.7519 0.9792 0.0000
vt 0.7353 0.9626 0.0000
vt 0.7070 0.9343 0.0000
vt 0.9035 0.8105 0.0000
vt 0.8386 0.8105 0.0000
vt 0.8386 0.7916 0.0000
vt 0.9035 0.7916 0.0000
vt 0.8386 0.7726 0.0000
vt 0.9035 0.7726 0.0000
vt 0.8386 0.7537 0.0000
vt 0.9035 0.7537 0.0000
vt 0.8386 0.7347 0.0000
vt 0.9035 0.7347 0.0000
vt 0.8386 0.7158 0.0000
vt 0.9035 0.7158 0.0000
vt 0.8386 0.6968 0.0000
vt 0.9035 0.6968 0.0000
vt 0.8386 0.6779 0.0000
vt 0.9035 0.6779 0.0000
vt 0.8386 0.6589 0.0000
vt 0.9035 0.6589 0.0000
vt 0.8386 0.6400 0.0000
vt 0.9035 0.6400 0.0000
vt 0.8386 0.8484 0.0000
vt 0.9035 0.8484 0.0000
vt 0.9035 0.8674 0.0000
vt 0.8386 0.8674 0.0000
vt 0.8386 0.8295 0.0000
vt 0.9035 0.8295 0.0000
# 122 texture coords

g A35
usemtl Material__349
s 524288
f 1/1/1 2/2/2 3/3/3 
f 2/2/2 4/4/4 3/3/3 
f 4/4/4 5/5/5 3/3/3 
f 5/5/5 6/6/6 3/3/3 
f 7/7/7 8/8/8 3/3/3 
f 8/8/8 9/9/9 3/3/3 
f 9/9/9 1/1/1 3/3/3 
f 10/10/10 11/11/11 12/12/12 13/13/13 
f 13/13/13 1/1/1 9/9/9 10/10/10 
f 2/2/2 1/1/1 13/13/13 14/14/14 
f 12/12/12 15/15/15 14/14/14 13/13/13 
f 14/14/14 16/16/16 4/4/4 2/2/2 
f 16/16/16 14/14/14 15/15/15 17/17/17 
f 4/4/4 16/16/16 18/18/18 5/5/5 
f 19/19/19 18/18/18 16/16/16 17/17/17 
f 5/5/5 18/18/18 20/20/20 6/6/6 
f 20/20/20 18/18/18 19/19/19 21/21/21 
f 22/22/22 23/23/23 8/8/8 7/7/7 
f 23/23/23 22/22/22 24/24/24 25/25/25 
f 8/8/8 23/23/23 10/10/10 9/9/9 
f 23/23/23 25/25/25 11/11/11 10/10/10 
f 26/26/26 27/27/27 28/28/28 29/29/29 
f 30/30/30 31/31/31 29/29/29 28/28/28 
f 31/31/31 30/30/30 32/32/32 33/33/33 
f 33/33/33 32/32/32 34/34/34 35/35/35 
f 36/36/36 35/35/35 34/34/34 37/37/37 
f 38/38/38 39/39/39 40/40/40 41/41/41 
f 40/40/40 39/39/39 27/27/27 26/26/26 
f 17/17/17 15/15/15 28/28/28 27/27/27 
f 12/12/12 30/30/30 28/28/28 15/15/15 
f 11/11/11 32/32/32 30/30/30 12/12/12 
f 25/25/25 34/34/34 32/32/32 11/11/11 
f 24/24/24 37/37/37 34/34/34 25/25/25 
f 39/39/39 38/38/38 21/21/21 19/19/19 
f 27/27/27 39/39/39 19/19/19 17/17/17 
f 42/1/42 3/3/3 43/2/43 
f 43/2/43 3/3/3 44/4/44 
f 44/4/44 3/3/3 45/5/45 
f 45/5/45 3/3/3 6/6/6 
f 7/7/7 3/3/3 46/8/46 
f 46/8/46 3/3/3 47/9/47 
f 47/9/47 3/3/3 42/1/42 
f 48/10/48 49/13/49 50/12/50 51/11/51 
f 48/10/48 47/9/47 42/1/42 49/13/49 
f 49/13/49 42/1/42 43/2/43 52/14/52 
f 53/15/53 50/12/50 49/13/49 52/14/52 
f 44/4/44 54/16/54 52/14/52 43/2/43 
f 53/15/53 52/14/52 54/16/54 55/17/55 
f 54/16/54 44/4/44 45/5/45 56/18/56 
f 56/18/56 57/19/57 55/17/55 54/16/54 
f 45/5/45 6/6/6 20/20/20 56/18/56 
f 56/18/56 20/20/20 21/21/21 57/19/57 
f 22/22/22 7/7/7 46/8/46 58/23/58 
f 24/24/24 22/22/22 58/23/58 59/25/59 
f 47/9/47 48/10/48 58/23/58 46/8/46 
f 58/23/58 48/10/48 51/11/51 59/25/59 
f 60/27/60 61/26/61 62/29/62 63/28/63 
f 64/31/64 65/30/65 63/28/63 62/29/62 
f 65/30/65 64/31/64 66/33/66 67/32/67 
f 68/35/68 69/34/69 67/32/67 66/33/66 
f 68/35/68 36/36/36 37/37/37 69/34/69 
f 70/40/70 71/39/71 38/38/38 41/41/41 
f 60/27/60 71/39/71 70/40/70 61/26/61 
f 53/15/53 55/17/55 60/27/60 63/28/63 
f 53/15/53 63/28/63 65/30/65 50/12/50 
f 50/12/50 65/30/65 67/32/67 51/11/51 
f 69/34/69 59/25/59 51/11/51 67/32/67 
f 59/25/59 69/34/69 37/37/37 24/24/24 
f 57/19/57 21/21/21 38/38/38 71/39/71 
f 71/39/71 60/27/60 55/17/55 57/19/57 
f 72/42/72 73/43/73 74/44/74 75/45/75 
f 76/46/76 77/47/77 72/42/72 75/45/75 
f 77/47/77 76/46/76 78/48/78 79/49/78 
f 80/50/79 81/51/80 79/49/78 78/48/78 
f 82/52/81 83/53/82 81/51/80 80/50/79 
f 83/53/82 82/52/81 84/54/83 85/55/84 
f 86/56/85 87/57/86 85/55/84 84/54/83 
f 88/58/87 89/59/88 87/60/86 86/61/85 
f 89/59/88 88/58/87 90/62/89 91/63/90 
f 92/64/91 91/63/90 90/62/89 93/65/91 
f 94/66/92 95/67/93 92/64/91 93/65/91 
f 94/66/92 96/68/94 97/69/95 95/67/93 
f 96/68/94 98/70/96 99/71/97 97/69/95 
f 99/71/97 98/70/96 74/44/74 73/43/73 
f 100/72/98 101/73/99 102/74/100 103/75/101 
f 104/76/102 105/77/103 100/72/98 103/75/101 
f 104/76/102 106/78/104 107/79/105 105/77/103 
f 106/78/104 108/80/106 109/81/107 107/79/105 
f 110/82/108 111/83/109 109/81/107 108/80/106 
f 112/84/110 113/85/111 111/83/109 110/82/108 
f 113/85/111 112/84/110 114/86/112 115/87/113 
f 116/88/114 115/87/113 114/86/112 117/89/115 
f 118/90/116 119/91/117 116/88/114 117/89/115 
f 120/92/118 121/93/119 119/91/117 118/90/116 
f 122/94/120 123/95/121 121/93/119 120/92/118 
f 102/74/100 101/73/99 123/95/121 122/94/120 
f 101/73/99 100/72/98 124/96/122 
f 100/72/98 105/77/103 124/96/122 
f 105/77/103 107/79/105 124/96/122 
f 107/79/105 109/81/107 124/96/122 
f 109/81/107 111/83/109 124/96/122 
f 111/83/109 113/85/111 124/96/122 
f 113/85/111 115/87/113 124/96/122 
f 115/87/113 116/88/114 124/96/122 
f 116/88/114 119/91/117 124/96/122 
f 119/91/117 121/93/119 124/96/122 
f 121/93/119 123/95/121 124/96/122 
f 123/95/121 101/73/99 124/96/122 
f 102/97/100 125/98/123 126/99/124 103/100/101 
f 127/101/125 104/102/102 103/100/101 126/99/124 
f 128/103/126 106/104/104 104/102/102 127/101/125 
f 129/105/127 108/106/106 106/104/104 128/103/126 
f 129/105/127 130/107/128 110/108/108 108/106/106 
f 110/108/108 130/107/128 131/109/129 112/110/110 
f 131/109/129 132/111/130 114/112/112 112/110/110 
f 133/113/131 117/114/115 114/112/112 132/111/130 
f 134/115/132 118/116/116 117/114/115 133/113/131 
f 135/117/133 120/118/118 118/119/116 134/120/132 
f 136/121/134 122/122/120 120/118/118 135/117/133 
f 125/98/123 102/97/100 122/122/120 136/121/134 
# 94 polygons - 26 triangles

