{
	"asset": {
		"generator": "Unity 5.6.3f1",
		"extras": {
			"exporterVersion" : "2.1.1"
		},
		"version": "2.0"
	},
	"accessors": [
		{
			"bufferView": 2,
			"byteOffset": 0,
			"componentType": 5126,
			"count": 40,
			"max": [ 0.02697789, -0.06176646, 0.1034508 ],
			"min": [ -0.03098956, -0.1410208, -0.1423395 ],
			"type": "VEC3"
		},
		{
			"bufferView": 2,
			"byteOffset": 480,
			"componentType": 5126,
			"count": 40,
			"max": [ 0.007956099, -0.5629091, 0.8261352 ],
			"min": [ -0.06873936, -0.9981364, -0.7693547 ],
			"type": "VEC3"
		},
		{
			"bufferView": 1,
			"byteOffset": 0,
			"componentType": 5126,
			"count": 40,
			"max": [ 0.0778, 0.7974 ],
			"min": [ 0.0033, 0.299 ],
			"type": "VEC2"
		},
		{
			"bufferView": 3,
			"byteOffset": 0,
			"componentType": 5126,
			"count": 40,
			"max": [ -0.9974464, 0.07129321, 0.003491491, 1 ],
			"min": [ -0.9999974, -0.01069314, -0.01246863, 1 ],
			"type": "VEC4"
		},
		{
			"bufferView": 0,
			"byteOffset": 0,
			"componentType": 5123,
			"count": 54,
			"max": [ 39 ],
			"min": [ 0 ],
			"type": "SCALAR"
		}
	],
	"buffers": [
		{
			"byteLength": 2028,
			"uri": "Unity2Skfb.bin"
		}
	],
	"bufferViews": [
		{
			"buffer": 0,
			"byteLength": 108,
			"byteOffset": 1920,
			"target": 34963
		},
		{
			"buffer": 0,
			"byteLength": 320,
			"byteOffset": 0,
			"byteStride": 8,
			"target": 34962
		},
		{
			"buffer": 0,
			"byteLength": 960,
			"byteOffset": 320,
			"byteStride": 12,
			"target": 34962
		},
		{
			"buffer": 0,
			"byteLength": 640,
			"byteOffset": 1280,
			"byteStride": 16,
			"target": 34962
		}
	],
	"images": [
		{
			"uri": "Assets/jicheanniu/37_jiashihsianniu.jpg"
		},
		{
			"uri": "Assets/jicheanniu/37_jiashihsianniu_converted_metalRoughness.jpg"
		}
	],
	"materials": [
		{
			"pbrMetallicRoughness": {
				"baseColorTexture" : {
					"index" : 0,
					"texCoord" : 0
				},
				"baseColorFactor": [0.588, 0.588, 0.588, 1],
				"metallicRoughnessTexture" : {
					"index" : 1,
					"texCoord" : 0
				},
				"metallicFactor": 1,
				"roughnessFactor": 1
			},
			"emissiveTexture" : {
				"index" : 0,
				"texCoord" : 0
			},
			"emissiveFactor": [1, 1, 1],
			"doubleSided": false,
			"name": "Material__106"
		}
	],
	"meshes": [
		{
			"name": "mesh_A23_47340A23",
			"primitives": [
				{
					"attributes": {
						"POSITION": 0,
						"NORMAL": 1,
						"TEXCOORD_0": 2,
						"TANGENT": 3
					},
					"indices": 4,
					"material": 0,
					"mode": 4
				}
			]
		}
	],
	"nodes": [
		{
			"name": "UnityGlTF_correctionMatrix",
			"children": [
				2
			],
			"matrix": [-1, 0, -8.742278E-08, 0, 0, 1, 0, 0, 8.742278E-08, 0, -1, 0, 0, 0, 0, 1]
		},
		{
			"name": "node_A23_-193930",
			"mesh": 0,
			"translation": [ -0.004850626, 8.854254, 2.3858],
			"rotation": [-0.02333846, -0.1631158, -0.9763874, -0.1397006]
		},
		{
			"name": "node_A23_02_-193926",
			"children": [
				1
			],
			"matrix": [1, 0, 0, 0, 0, -1.192093E-07, 1, 0, 0, -1, -1.192093E-07, 0, 0.004850686, 2.3858, -8.854254, 1]
		}
	],
	"samplers": [
		{
			"magFilter": 9729,
			"minFilter": 9985,
			"wrapS": 10497,
			"wrapT": 10497
		}
	],
	"scenes": [
		{
			"name":"defaultScene",
			"nodes": [
				0
			]
		}
	],
	"scene": 0,
	"textures": [
		{
			"sampler": 0,
			"source": 0
		},
		{
			"sampler": 0,
			"source": 1
		}
	]
}